<?xml version="1.0" encoding="UTF-8" standalone="no"?>
<!-- Created with Inkscape (http://www.inkscape.org/) -->

<svg
   xmlns:ns0="http://www.iki.fi/pav/software/textext/"
   xmlns:dc="http://purl.org/dc/elements/1.1/"
   xmlns:cc="http://creativecommons.org/ns#"
   xmlns:rdf="http://www.w3.org/1999/02/22-rdf-syntax-ns#"
   xmlns:svg="http://www.w3.org/2000/svg"
   xmlns="http://www.w3.org/2000/svg"
   xmlns:sodipodi="http://sodipodi.sourceforge.net/DTD/sodipodi-0.dtd"
   xmlns:inkscape="http://www.inkscape.org/namespaces/inkscape"
   width="210mm"
   height="297mm"
   viewBox="0 0 793.7008056641 1122.51965332"
   version="1.1"
   id="svg41687"
   inkscape:version="0.92.3 (2405546, 2018-03-11)"
   sodipodi:docname="ANG_mark_center.svg">
  <metadata
     id="metadata41693">
    <rdf:RDF>
      <cc:Work
         rdf:about="">
        <dc:format>image/svg+xml</dc:format>
        <dc:type
           rdf:resource="http://purl.org/dc/dcmitype/StillImage" />
        <dc:title></dc:title>
      </cc:Work>
    </rdf:RDF>
  </metadata>
  <defs
     id="defs41691">
    <marker
       inkscape:stockid="DimmArrow_Start"
       style="overflow:visible"
       refY="0"
       refX="0"
       orient="auto"
       id="DimmArrow_Start">
      <path
         inkscape:connector-curvature="0"
         id="path40644"
         transform="matrix(-2.5,0,0,-2.5,-10,0)"
         style="fill:#ff0000;fill-rule:evenodd;stroke:none;stroke-width:1"
         d="M 0,0 -4,0.705308 V -0.705308 Z" />
    </marker>
    <marker
       inkscape:stockid="DimmArrow_End"
       style="overflow:visible"
       refY="0"
       refX="0"
       orient="auto"
       id="DimmArrow_End">
      <path
         inkscape:connector-curvature="0"
         id="path40647"
         transform="matrix(2.5,0,0,2.5,10,0)"
         style="fill:#ff0000;fill-rule:evenodd;stroke:none;stroke-width:1"
         d="M 0,0 -4,0.705308 V -0.705308 Z" />
    </marker>
    <marker
       inkscape:stockid="DimmArrow_Start"
       style="overflow:visible"
       refY="0"
       refX="0"
       orient="auto"
       id="marker42281">
      <path
         inkscape:connector-curvature="0"
         id="path42279"
         transform="matrix(-2.5,0,0,-2.5,-10,0)"
         style="fill:#ff0000;fill-rule:evenodd;stroke:none;stroke-width:1"
         d="M 0,0 -4,0.705308 V -0.705308 Z" />
    </marker>
    <marker
       inkscape:stockid="DimmArrow_End"
       style="overflow:visible"
       refY="0"
       refX="0"
       orient="auto"
       id="marker42285">
      <path
         inkscape:connector-curvature="0"
         id="path42283"
         transform="matrix(2.5,0,0,2.5,10,0)"
         style="fill:#ff0000;fill-rule:evenodd;stroke:none;stroke-width:1"
         d="M 0,0 -4,0.705308 V -0.705308 Z" />
    </marker>
    <marker
       inkscape:stockid="DimmArrow_Start"
       style="overflow:visible"
       refY="0"
       refX="0"
       orient="auto"
       id="DimmArrow_Start-3">
      <path
         inkscape:connector-curvature="0"
         id="path40644-3"
         transform="matrix(-2.5,0,0,-2.5,-10,0)"
         style="fill:#ff0000;fill-rule:evenodd;stroke:none;stroke-width:1"
         d="M 0,0 -4,0.705308 V -0.705308 Z" />
    </marker>
    <marker
       inkscape:stockid="DimmArrow_End"
       style="overflow:visible"
       refY="0"
       refX="0"
       orient="auto"
       id="DimmArrow_End-3">
      <path
         inkscape:connector-curvature="0"
         id="path40647-7"
         transform="matrix(2.5,0,0,2.5,10,0)"
         style="fill:#ff0000;fill-rule:evenodd;stroke:none;stroke-width:1"
         d="M 0,0 -4,0.705308 V -0.705308 Z" />
    </marker>
    <marker
       inkscape:stockid="DimmArrow_Start"
       style="overflow:visible"
       refY="0"
       refX="0"
       orient="auto"
       id="marker42450">
      <path
         inkscape:connector-curvature="0"
         id="path42448"
         transform="matrix(-2.5,0,0,-2.5,-10,0)"
         style="fill:#ff0000;fill-rule:evenodd;stroke:none;stroke-width:1"
         d="M 0,0 -4,0.705308 V -0.705308 Z" />
    </marker>
    <marker
       inkscape:stockid="DimmArrow_End"
       style="overflow:visible"
       refY="0"
       refX="0"
       orient="auto"
       id="marker42454">
      <path
         inkscape:connector-curvature="0"
         id="path42452"
         transform="matrix(2.5,0,0,2.5,10,0)"
         style="fill:#ff0000;fill-rule:evenodd;stroke:none;stroke-width:1"
         d="M 0,0 -4,0.705308 V -0.705308 Z" />
    </marker>
    <marker
       inkscape:stockid="DimmArrow_Start"
       style="overflow:visible"
       refY="0"
       refX="0"
       orient="auto"
       id="DimmArrow_Start-32">
      <path
         inkscape:connector-curvature="0"
         id="path40644-6"
         transform="matrix(-2.5,0,0,-2.5,-10,0)"
         style="fill:#ff0000;fill-rule:evenodd;stroke:none;stroke-width:1"
         d="M 0,0 -4,0.705308 V -0.705308 Z" />
    </marker>
    <marker
       inkscape:stockid="DimmArrow_End"
       style="overflow:visible"
       refY="0"
       refX="0"
       orient="auto"
       id="DimmArrow_End-5">
      <path
         inkscape:connector-curvature="0"
         id="path40647-2"
         transform="matrix(2.5,0,0,2.5,10,0)"
         style="fill:#ff0000;fill-rule:evenodd;stroke:none;stroke-width:1"
         d="M 0,0 -4,0.705308 V -0.705308 Z" />
    </marker>
    <marker
       inkscape:stockid="DimmArrow_Start"
       style="overflow:visible"
       refY="0"
       refX="0"
       orient="auto"
       id="marker42979">
      <path
         inkscape:connector-curvature="0"
         id="path42977"
         transform="matrix(-2.5,0,0,-2.5,-10,0)"
         style="fill:#ff0000;fill-rule:evenodd;stroke:none;stroke-width:1"
         d="M 0,0 -4,0.705308 V -0.705308 Z" />
    </marker>
    <marker
       inkscape:stockid="DimmArrow_End"
       style="overflow:visible"
       refY="0"
       refX="0"
       orient="auto"
       id="marker42983">
      <path
         inkscape:connector-curvature="0"
         id="path42981"
         transform="matrix(2.5,0,0,2.5,10,0)"
         style="fill:#ff0000;fill-rule:evenodd;stroke:none;stroke-width:1"
         d="M 0,0 -4,0.705308 V -0.705308 Z" />
    </marker>
    <marker
       id="DimmArrow_Start-1"
       orient="auto"
       refX="0"
       refY="0"
       style="overflow:visible"
       inkscape:stockid="DimmArrow_Start">
      <path
         d="M 0,0 -4,0.705308 V -0.705308 Z"
         style="fill:#ff0000;fill-rule:evenodd;stroke:none;stroke-width:1"
         transform="matrix(-2.5,0,0,-2.5,-10,0)"
         id="path37513-4"
         inkscape:connector-curvature="0" />
    </marker>
    <marker
       id="DimmArrow_End-6"
       orient="auto"
       refX="0"
       refY="0"
       style="overflow:visible"
       inkscape:stockid="DimmArrow_End">
      <path
         d="M 0,0 -4,0.705308 V -0.705308 Z"
         style="fill:#ff0000;fill-rule:evenodd;stroke:none;stroke-width:1"
         transform="matrix(2.5,0,0,2.5,10,0)"
         id="path37516-9"
         inkscape:connector-curvature="0" />
    </marker>
    <marker
       inkscape:stockid="DimmArrow_Start"
       style="overflow:visible"
       refY="0"
       refX="0"
       orient="auto"
       id="DimmArrow_Start-6">
      <path
         inkscape:connector-curvature="0"
         id="path40644-5"
         transform="matrix(-2.5,0,0,-2.5,-10,0)"
         style="fill:#ff0000;fill-rule:evenodd;stroke:none;stroke-width:1"
         d="M 0,0 -4,0.705308 V -0.705308 Z" />
    </marker>
    <marker
       inkscape:stockid="DimmArrow_End"
       style="overflow:visible"
       refY="0"
       refX="0"
       orient="auto"
       id="DimmArrow_End-8">
      <path
         inkscape:connector-curvature="0"
         id="path40647-79"
         transform="matrix(2.5,0,0,2.5,10,0)"
         style="fill:#ff0000;fill-rule:evenodd;stroke:none;stroke-width:1"
         d="M 0,0 -4,0.705308 V -0.705308 Z" />
    </marker>
    <marker
       inkscape:stockid="DimmArrow_Start"
       style="overflow:visible"
       refY="0"
       refX="0"
       orient="auto"
       id="marker43553">
      <path
         inkscape:connector-curvature="0"
         id="path43551"
         transform="matrix(-2.5,0,0,-2.5,-10,0)"
         style="fill:#ff0000;fill-rule:evenodd;stroke:none;stroke-width:1"
         d="M 0,0 -4,0.705308 V -0.705308 Z" />
    </marker>
    <marker
       inkscape:stockid="DimmArrow_End"
       style="overflow:visible"
       refY="0"
       refX="0"
       orient="auto"
       id="marker43557">
      <path
         inkscape:connector-curvature="0"
         id="path43555"
         transform="matrix(2.5,0,0,2.5,10,0)"
         style="fill:#ff0000;fill-rule:evenodd;stroke:none;stroke-width:1"
         d="M 0,0 -4,0.705308 V -0.705308 Z" />
    </marker>
    <marker
       inkscape:stockid="DimmArrow_Start"
       style="overflow:visible"
       refY="0"
       refX="0"
       orient="auto"
       id="DimmArrow_Start-60">
      <path
         inkscape:connector-curvature="0"
         id="path40644-4"
         transform="matrix(-2.5,0,0,-2.5,-10,0)"
         style="fill:#ff0000;fill-rule:evenodd;stroke:none;stroke-width:1"
         d="M 0,0 -4,0.705308 V -0.705308 Z" />
    </marker>
    <marker
       inkscape:stockid="DimmArrow_End"
       style="overflow:visible"
       refY="0"
       refX="0"
       orient="auto"
       id="DimmArrow_End-1">
      <path
         inkscape:connector-curvature="0"
         id="path40647-0"
         transform="matrix(2.5,0,0,2.5,10,0)"
         style="fill:#ff0000;fill-rule:evenodd;stroke:none;stroke-width:1"
         d="M 0,0 -4,0.705308 V -0.705308 Z" />
    </marker>
    <marker
       inkscape:stockid="DimmArrow_Start"
       style="overflow:visible"
       refY="0"
       refX="0"
       orient="auto"
       id="marker43926">
      <path
         inkscape:connector-curvature="0"
         id="path43924"
         transform="matrix(-2.5,0,0,-2.5,-10,0)"
         style="fill:#ff0000;fill-rule:evenodd;stroke:none;stroke-width:1"
         d="M 0,0 -4,0.705308 V -0.705308 Z" />
    </marker>
    <marker
       inkscape:stockid="DimmArrow_End"
       style="overflow:visible"
       refY="0"
       refX="0"
       orient="auto"
       id="marker43930">
      <path
         inkscape:connector-curvature="0"
         id="path43928"
         transform="matrix(2.5,0,0,2.5,10,0)"
         style="fill:#ff0000;fill-rule:evenodd;stroke:none;stroke-width:1"
         d="M 0,0 -4,0.705308 V -0.705308 Z" />
    </marker>
    <marker
       inkscape:stockid="DimmArrow_Start"
       style="overflow:visible"
       refY="0"
       refX="0"
       orient="auto"
       id="DimmArrow_Start-4">
      <path
         inkscape:connector-curvature="0"
         id="path40644-8"
         transform="matrix(-2.5,0,0,-2.5,-10,0)"
         style="fill:#ff0000;fill-rule:evenodd;stroke:none;stroke-width:1"
         d="M 0,0 -4,0.705308 V -0.705308 Z" />
    </marker>
    <marker
       inkscape:stockid="DimmArrow_End"
       style="overflow:visible"
       refY="0"
       refX="0"
       orient="auto"
       id="DimmArrow_End-7">
      <path
         inkscape:connector-curvature="0"
         id="path40647-08"
         transform="matrix(2.5,0,0,2.5,10,0)"
         style="fill:#ff0000;fill-rule:evenodd;stroke:none;stroke-width:1"
         d="M 0,0 -4,0.705308 V -0.705308 Z" />
    </marker>
    <marker
       inkscape:stockid="DimmArrow_Start"
       style="overflow:visible"
       refY="0"
       refX="0"
       orient="auto"
       id="marker44222">
      <path
         inkscape:connector-curvature="0"
         id="path44220"
         transform="matrix(-2.5,0,0,-2.5,-10,0)"
         style="fill:#ff0000;fill-rule:evenodd;stroke:none;stroke-width:1"
         d="M 0,0 -4,0.705308 V -0.705308 Z" />
    </marker>
    <marker
       inkscape:stockid="DimmArrow_End"
       style="overflow:visible"
       refY="0"
       refX="0"
       orient="auto"
       id="marker44226">
      <path
         inkscape:connector-curvature="0"
         id="path44224"
         transform="matrix(2.5,0,0,2.5,10,0)"
         style="fill:#ff0000;fill-rule:evenodd;stroke:none;stroke-width:1"
         d="M 0,0 -4,0.705308 V -0.705308 Z" />
    </marker>
  </defs>
  <sodipodi:namedview
     pagecolor="#ffffff"
     bordercolor="#666666"
     borderopacity="1"
     objecttolerance="10"
     gridtolerance="10"
     guidetolerance="10"
     inkscape:pageopacity="0"
     inkscape:pageshadow="2"
     inkscape:window-width="762"
     inkscape:window-height="480"
     id="namedview41689"
     showgrid="true"
     inkscape:zoom="1.189304400548"
     inkscape:cx="388.4838388636"
     inkscape:cy="611.1925053039"
     inkscape:window-x="1133"
     inkscape:window-y="170"
     inkscape:window-maximized="0"
     inkscape:current-layer="svg41687">
    <inkscape:grid
       type="xygrid"
       id="grid42315" />
  </sodipodi:namedview>
  <g
     transform="translate(140,-140)"
     id="g25866">
    <path
       sodipodi:nodetypes="cc"
       inkscape:connector-curvature="0"
       id="path4557-05-0"
       d="M 185,732.5196533203 H 285"
       style="color:#000000;clip-rule:nonzero;display:inline;overflow:visible;visibility:visible;opacity:1;isolation:auto;mix-blend-mode:normal;color-interpolation:sRGB;color-interpolation-filters:linearRGB;solid-color:#000000;solid-opacity:1;vector-effect:none;fill:#000000;fill-opacity:1;fill-rule:nonzero;stroke:#5f8dd3;stroke-width:1px;stroke-linecap:round;stroke-linejoin:round;stroke-miterlimit:4;stroke-dasharray:none;stroke-dashoffset:0;stroke-opacity:1;marker:none;color-rendering:auto;image-rendering:auto;shape-rendering:auto;text-rendering:auto;enable-background:accumulate" />
    <path
       sodipodi:nodetypes="cc"
       inkscape:connector-curvature="0"
       id="path4557-0-6-8"
       d="m 185,692.5196216012 100,3.17191e-5"
       style="color:#000000;clip-rule:nonzero;display:inline;overflow:visible;visibility:visible;opacity:1;isolation:auto;mix-blend-mode:normal;color-interpolation:sRGB;color-interpolation-filters:linearRGB;solid-color:#000000;solid-opacity:1;vector-effect:none;fill:#000000;fill-opacity:1;fill-rule:nonzero;stroke:#5f8dd3;stroke-width:1px;stroke-linecap:round;stroke-linejoin:round;stroke-miterlimit:4;stroke-dasharray:none;stroke-dashoffset:0;stroke-opacity:1;marker:none;color-rendering:auto;image-rendering:auto;shape-rendering:auto;text-rendering:auto;enable-background:accumulate" />
    <path
       sodipodi:nodetypes="cc"
       inkscape:connector-curvature="0"
       id="path4557-0-6-2-4-6"
       d="m 230,682.5196533203 v 49.9999682809"
       style="color:#000000;clip-rule:nonzero;display:inline;overflow:visible;visibility:visible;opacity:1;isolation:auto;mix-blend-mode:normal;color-interpolation:sRGB;color-interpolation-filters:linearRGB;solid-color:#000000;solid-opacity:1;vector-effect:none;fill:#000000;fill-opacity:1;fill-rule:nonzero;stroke:#5f8dd3;stroke-width:1px;stroke-linecap:round;stroke-linejoin:round;stroke-miterlimit:4;stroke-dasharray:none;stroke-dashoffset:0;stroke-opacity:1;marker:none;color-rendering:auto;image-rendering:auto;shape-rendering:auto;text-rendering:auto;enable-background:accumulate" />
    <path
       sodipodi:nodetypes="cc"
       inkscape:connector-curvature="0"
       id="path4557-0-6-6-0"
       d="m 185,682.5196216012 v 50"
       style="color:#000000;clip-rule:nonzero;display:inline;overflow:visible;visibility:visible;opacity:1;isolation:auto;mix-blend-mode:normal;color-interpolation:sRGB;color-interpolation-filters:linearRGB;solid-color:#000000;solid-opacity:1;vector-effect:none;fill:#000000;fill-opacity:1;fill-rule:nonzero;stroke:#5f8dd3;stroke-width:1px;stroke-linecap:round;stroke-linejoin:round;stroke-miterlimit:4;stroke-dasharray:none;stroke-dashoffset:0;stroke-opacity:1;marker:none;color-rendering:auto;image-rendering:auto;shape-rendering:auto;text-rendering:auto;enable-background:accumulate" />
    <path
       sodipodi:nodetypes="cc"
       inkscape:connector-curvature="0"
       id="path4557-0-7-7-8"
       d="m 185,682.5196216012 100,3.17191e-5"
       style="color:#000000;clip-rule:nonzero;display:inline;overflow:visible;visibility:visible;opacity:1;isolation:auto;mix-blend-mode:normal;color-interpolation:sRGB;color-interpolation-filters:linearRGB;solid-color:#000000;solid-opacity:1;vector-effect:none;fill:#000000;fill-opacity:1;fill-rule:nonzero;stroke:#5f8dd3;stroke-width:1px;stroke-linecap:round;stroke-linejoin:round;stroke-miterlimit:4;stroke-dasharray:none;stroke-dashoffset:0;stroke-opacity:1;marker:none;color-rendering:auto;image-rendering:auto;shape-rendering:auto;text-rendering:auto;enable-background:accumulate" />
    <path
       sodipodi:nodetypes="cc"
       inkscape:connector-curvature="0"
       id="path4557-0-6-2-2-0-1"
       d="m 285,682.5196533203 v 49.9999682809"
       style="color:#000000;clip-rule:nonzero;display:inline;overflow:visible;visibility:visible;opacity:1;isolation:auto;mix-blend-mode:normal;color-interpolation:sRGB;color-interpolation-filters:linearRGB;solid-color:#000000;solid-opacity:1;vector-effect:none;fill:#000000;fill-opacity:1;fill-rule:nonzero;stroke:#5f8dd3;stroke-width:1px;stroke-linecap:round;stroke-linejoin:round;stroke-miterlimit:4;stroke-dasharray:none;stroke-dashoffset:0;stroke-opacity:1;marker:none;color-rendering:auto;image-rendering:auto;shape-rendering:auto;text-rendering:auto;enable-background:accumulate" />
    <path
       sodipodi:nodetypes="ccc"
       style="color:#000000;clip-rule:nonzero;display:inline;overflow:visible;visibility:visible;opacity:1;isolation:auto;mix-blend-mode:normal;color-interpolation:sRGB;color-interpolation-filters:linearRGB;solid-color:#000000;solid-opacity:1;vector-effect:none;fill:none;fill-opacity:1;fill-rule:nonzero;stroke:#0000ff;stroke-width:1;stroke-linecap:round;stroke-linejoin:round;stroke-miterlimit:4;stroke-dasharray:none;stroke-dashoffset:0;stroke-opacity:1;marker:none;marker-start:none;paint-order:normal;color-rendering:auto;image-rendering:auto;shape-rendering:auto;text-rendering:auto;enable-background:accumulate"
       d="m 205,717.5196533203 -10,-5 15,-5"
       id="path817-6-5-9"
       inkscape:connector-curvature="0" />
    <path
       sodipodi:nodetypes="cccc"
       style="color:#000000;clip-rule:nonzero;display:inline;overflow:visible;visibility:visible;opacity:1;isolation:auto;mix-blend-mode:normal;color-interpolation:sRGB;color-interpolation-filters:linearRGB;solid-color:#000000;solid-opacity:1;vector-effect:none;fill:none;fill-opacity:1;fill-rule:nonzero;stroke:#0000ff;stroke-width:1;stroke-linecap:round;stroke-linejoin:round;stroke-miterlimit:4;stroke-dasharray:none;stroke-dashoffset:0;stroke-opacity:1;marker:none;marker-start:none;paint-order:normal;color-rendering:auto;image-rendering:auto;shape-rendering:auto;text-rendering:auto;enable-background:accumulate"
       d="m 255,717.5196533203 -5,-5.0000317191 v -9.9999682809 l 10,-3.17191e-5"
       id="path817-7-2-3-5"
       inkscape:connector-curvature="0" />
    <g
       transform="translate(5,-40)"
       inkscape:label="Dim"
       id="g16659">
      <path
         inkscape:connector-curvature="0"
         d="m 235.000126875,742.519685039 h -2 4"
         style="fill:none;stroke:#ff0000;stroke-width:0.400000006;stroke-linecap:round;stroke-linejoin:round;stroke-dasharray:none"
         inkscape:label="none"
         id="path16637" />
      <path
         inkscape:connector-curvature="0"
         d="m 235.000126875,742.519685039 v -2 4"
         style="fill:none;stroke:#ff0000;stroke-width:0.400000006;stroke-linecap:round;stroke-linejoin:round;stroke-dasharray:none"
         inkscape:label="none"
         id="path16639" />
      <path
         inkscape:connector-curvature="0"
         d="m 251.131367261,758.651027759 6.788203568,6.788246631"
         style="fill:none;stroke:#ff0000;stroke-width:0.400000006;stroke-linecap:round;stroke-linejoin:round;stroke-dasharray:none"
         inkscape:label="none"
         id="path16641" />
      <path
         inkscape:connector-curvature="0"
         d="m 256.6,742.519616526 10.813218168,-3.4298e-5"
         style="fill:none;stroke:#ff0000;stroke-width:0.400000006;stroke-linecap:round;stroke-linejoin:round;stroke-dasharray:none"
         inkscape:label="none"
         id="path16643" />
      <path
         d="m 265.5539604948,746.5083922873 a 30.81309127808,30.81309127808 0 0 1 -6.1285908695,14.7957271956"
         style="fill:none;stroke:#ff0000;stroke-width:0.400000006;stroke-linecap:round;stroke-linejoin:round;stroke-dasharray:none;marker-start:url(#DimmArrow_Start-4);marker-end:url(#DimmArrow_End-7)"
         sodipodi:cx="235.0001220703"
         sodipodi:cy="742.5197143555"
         sodipodi:end="0.655586382232"
         sodipodi:open="true"
         sodipodi:rx="30.81309127808"
         sodipodi:ry="30.81309127808"
         sodipodi:start="0.129811781156"
         sodipodi:type="arc"
         inkscape:label="arc"
         id="path16645" />
      <g
         style="font-style:normal;font-variant:normal;font-weight:normal;font-stretch:normal;letter-spacing:normal;word-spacing:normal;text-anchor:start;fill:none;fill-opacity:1;fill-rule:evenodd;stroke:#000000;stroke-linecap:butt;stroke-linejoin:miter;stroke-miterlimit:10.4329996109;stroke-dasharray:none;stroke-dashoffset:0;stroke-opacity:1"
         id="g16657"
         xml:space="preserve"
         stroke-miterlimit="10.433"
         font-style="normal"
         font-variant="normal"
         font-weight="normal"
         font-stretch="normal"
         font-size-adjust="none"
         letter-spacing="normal"
         word-spacing="normal"
         ns0:text=" \\SI{45.0}{\\degree}"
         ns0:preamble="/home/fernando/.config/inkscape/extensions/textextLib/basicLatexPackages.tex"
         transform="matrix(0.2264399098653,-0.5466743014594,-0.5466743014594,-0.2264399098653,476.5477877779,992.5697906775)">
<path
   inkscape:connector-curvature="0"
   d="m 226.36,478.87 v -0.86 c 0,-0.36 -0.02,-0.47 -0.75,-0.47 h -0.21 v -0.31 c 0.4,0.04 0.92,0.04 1.34,0.04 0.42,0 0.95,0 1.36,-0.04 v 0.31 h -0.21 c -0.74,0 -0.76,0.11 -0.76,0.47 v 0.86 h 1 v 0.31 h -1 v 4.52 c 0,0.2 0,0.26 -0.16,0.26 -0.09,0 -0.12,0 -0.2,-0.12 l -3.06,-4.66 h 0.28 l 2.43,3.71 v -3.71 h -2.43 -0.28 v -0.31 z"
   style="fill:#000000;stroke-width:0"
   id="path16647" />
<path
   inkscape:connector-curvature="0"
   d="m 232.89,479.23 v 0.11 l -0.01,0.11 -0.01,0.11 -0.02,0.1 -0.02,0.11 -0.02,0.1 -0.03,0.1 -0.03,0.1 -0.04,0.1 -0.04,0.09 -0.05,0.09 -0.04,0.09 -0.06,0.09 -0.05,0.08 -0.06,0.08 -0.06,0.07 -0.07,0.08 -0.07,0.06 -0.07,0.07 -0.07,0.06 -0.08,0.06 -0.08,0.05 -0.08,0.05 -0.08,0.04 -0.09,0.04 -0.09,0.04 -0.09,0.03 -0.09,0.02 -0.1,0.02 -0.1,0.02 h -0.09 l -0.1,0.01 c -0.48,0 -0.91,-0.16 -1.27,-0.51 v 1.94 c 0.2,-0.06 0.53,-0.13 0.85,-0.13 1.22,0 1.92,0.9 1.92,1.03 0,0.06 -0.03,0.11 -0.1,0.11 -0.01,0 -0.03,0 -0.08,-0.03 -0.2,-0.09 -0.69,-0.29 -1.35,-0.29 -0.4,0 -0.86,0.07 -1.33,0.28 -0.08,0.03 -0.1,0.03 -0.12,0.03 -0.1,0 -0.1,-0.08 -0.1,-0.24 v -2.94 c 0,-0.18 0,-0.26 0.14,-0.26 0.07,0 0.09,0.03 0.13,0.09 0.11,0.16 0.48,0.7 1.29,0.7 0.51,0 0.76,-0.46 0.84,-0.64 0.16,-0.37 0.18,-0.75 0.18,-1.25 0,-0.35 0,-0.94 -0.24,-1.36 -0.24,-0.39 -0.6,-0.64 -1.06,-0.64 -0.73,0 -1.3,0.52 -1.47,1.11 0.03,-0.01 0.06,-0.02 0.17,-0.02 0.33,0 0.5,0.25 0.5,0.48 0,0.24 -0.17,0.49 -0.5,0.49 -0.14,0 -0.49,-0.07 -0.49,-0.53 0,-0.85 0.69,-1.81 1.81,-1.81 1.15,0 2.17,0.95 2.17,2.21 z"
   style="fill:#000000;stroke-width:0"
   id="path16649" />
<path
   inkscape:connector-curvature="0"
   d="m 235.31,477.76 v 0.03 0.03 l -0.01,0.02 v 0.03 l -0.01,0.02 v 0.03 l -0.01,0.02 -0.01,0.03 -0.01,0.02 -0.01,0.02 -0.02,0.02 -0.01,0.02 -0.02,0.03 -0.01,0.02 -0.02,0.01 -0.02,0.02 -0.01,0.02 -0.02,0.02 -0.02,0.01 -0.02,0.02 -0.03,0.01 -0.02,0.01 -0.02,0.02 -0.02,0.01 -0.03,0.01 h -0.02 l -0.03,0.01 -0.02,0.01 h -0.03 l -0.03,0.01 h -0.02 -0.03 c -0.29,0 -0.53,-0.24 -0.53,-0.53 0,-0.29 0.24,-0.53 0.53,-0.53 0.29,0 0.53,0.24 0.53,0.53 z"
   style="fill:#000000;stroke-width:0"
   id="path16651" />
<path
   inkscape:connector-curvature="0"
   d="m 240.75,480.41 v 0.15 0.15 l -0.01,0.15 v 0.15 l -0.01,0.15 -0.02,0.14 -0.01,0.15 -0.02,0.15 -0.02,0.14 -0.03,0.15 -0.03,0.14 -0.04,0.15 -0.04,0.14 -0.05,0.14 -0.06,0.14 -0.03,0.07 -0.03,0.07 c -0.46,0.95 -1.28,1.11 -1.7,1.11 -0.59,0 -1.32,-0.26 -1.73,-1.18 -0.32,-0.69 -0.37,-1.46 -0.37,-2.26 0,-0.74 0.04,-1.64 0.45,-2.39 0.43,-0.81 1.16,-1 1.65,-1 v 0.21 c -0.39,0 -0.98,0.25 -1.16,1.21 -0.11,0.59 -0.11,1.51 -0.11,2.09 0,0.64 0,1.29 0.08,1.83 0.19,1.18 0.94,1.27 1.19,1.27 0.32,0 0.98,-0.18 1.17,-1.16 0.1,-0.56 0.1,-1.31 0.1,-1.94 0,-0.74 0,-1.42 -0.11,-2.05 -0.15,-0.95 -0.72,-1.25 -1.16,-1.25 v 0 -0.21 c 0.53,0 1.29,0.21 1.73,1.15 0.32,0.68 0.37,1.46 0.37,2.24 z"
   style="fill:#000000;stroke-width:0"
   id="path16653" />
<path
   inkscape:connector-curvature="0"
   d="m 244.69,482.59 v 0.08 l -0.01,0.07 -0.01,0.08 -0.01,0.07 -0.02,0.08 -0.02,0.07 -0.02,0.07 -0.03,0.07 -0.03,0.06 -0.03,0.07 -0.04,0.06 -0.04,0.06 -0.04,0.06 -0.05,0.06 -0.04,0.05 -0.05,0.05 -0.06,0.05 -0.05,0.05 -0.06,0.04 -0.06,0.04 -0.06,0.04 -0.06,0.04 -0.06,0.03 -0.07,0.03 -0.07,0.03 -0.07,0.02 -0.07,0.02 -0.07,0.01 -0.08,0.02 -0.07,0.01 h -0.08 -0.07 v -0.34 c 0.65,0 1.16,-0.53 1.16,-1.14 0,-0.65 -0.52,-1.16 -1.16,-1.16 v 0 c -0.66,0 -1.17,0.53 -1.17,1.15 0,0.65 0.52,1.15 1.17,1.15 v 0.34 c -0.84,0 -1.51,-0.67 -1.51,-1.48 0,-0.84 0.68,-1.5 1.51,-1.5 0.83,0 1.5,0.68 1.5,1.49 z"
   style="fill:#000000;stroke-width:0"
   id="path16655" />
</g>    </g>
    <g
       inkscape:label="Dim"
       id="g21828">
      <path
         inkscape:connector-curvature="0"
         d="m 195,712.51965332 h -2 4"
         style="fill:none;stroke:#ff0000;stroke-width:0.400000006;stroke-linecap:round;stroke-linejoin:round;stroke-dasharray:none"
         inkscape:label="none"
         id="path21806" />
      <path
         inkscape:connector-curvature="0"
         d="m 195,712.51965332 v -2 4"
         style="fill:none;stroke:#ff0000;stroke-width:0.400000006;stroke-linecap:round;stroke-linejoin:round;stroke-dasharray:none"
         inkscape:label="none"
         id="path21808" />
      <path
         inkscape:connector-curvature="0"
         d="m 206.431083506,718.235195073 12.728636657,6.364318329"
         style="fill:none;stroke:#ff0000;stroke-width:0.400000006;stroke-linecap:round;stroke-linejoin:round;stroke-dasharray:none"
         inkscape:label="none"
         id="path21810" />
      <path
         inkscape:connector-curvature="0"
         d="m 211.517893277,707.013688895 9.107359661,-3.035786554"
         style="fill:none;stroke:#ff0000;stroke-width:0.400000006;stroke-linecap:round;stroke-linejoin:round;stroke-dasharray:none"
         inkscape:label="none"
         id="path21812" />
      <path
         d="m 220.069005861,708.3622977406 a 25.41138839722,25.41138839722 0 0 1 -0.8398950668,11.8182204392"
         style="fill:none;stroke:#ff0000;stroke-width:0.400000006;stroke-linecap:round;stroke-linejoin:round;stroke-dasharray:none;marker-start:url(#DimmArrow_Start-4);marker-end:url(#DimmArrow_End-7)"
         sodipodi:cx="195"
         sodipodi:cy="712.5196533203"
         sodipodi:end="0.306237870003"
         sodipodi:open="true"
         sodipodi:rx="25.41138839722"
         sodipodi:ry="25.41138839722"
         sodipodi:start="6.118844491781"
         sodipodi:type="arc"
         inkscape:label="arc"
         id="path21814" />
      <g
         style="font-style:normal;font-variant:normal;font-weight:normal;font-stretch:normal;letter-spacing:normal;word-spacing:normal;text-anchor:start;fill:none;fill-opacity:1;fill-rule:evenodd;stroke:#000000;stroke-linecap:butt;stroke-linejoin:miter;stroke-miterlimit:10.4329996109;stroke-dasharray:none;stroke-dashoffset:0;stroke-opacity:1"
         id="g21826"
         xml:space="preserve"
         stroke-miterlimit="10.433"
         font-style="normal"
         font-variant="normal"
         font-weight="normal"
         font-stretch="normal"
         font-size-adjust="none"
         letter-spacing="normal"
         word-spacing="normal"
         ns0:text=" \\SI{45.0}{\\degree}"
         ns0:preamble="/home/fernando/.config/inkscape/extensions/textextLib/basicLatexPackages.tex"
         transform="matrix(0.0419461655878,-0.5902273662314,-0.5902273662314,-0.0419461655878,497.8369041995,872.9710127898)">
<path
   inkscape:connector-curvature="0"
   d="m 226.36,478.87 v -0.86 c 0,-0.36 -0.02,-0.47 -0.75,-0.47 h -0.21 v -0.31 c 0.4,0.04 0.92,0.04 1.34,0.04 0.42,0 0.95,0 1.36,-0.04 v 0.31 h -0.21 c -0.74,0 -0.76,0.11 -0.76,0.47 v 0.86 h 1 v 0.31 h -1 v 4.52 c 0,0.2 0,0.26 -0.16,0.26 -0.09,0 -0.12,0 -0.2,-0.12 l -3.06,-4.66 h 0.28 l 2.43,3.71 v -3.71 h -2.43 -0.28 v -0.31 z"
   style="fill:#000000;stroke-width:0"
   id="path21816" />
<path
   inkscape:connector-curvature="0"
   d="m 232.89,479.23 v 0.11 l -0.01,0.11 -0.01,0.11 -0.02,0.1 -0.02,0.11 -0.02,0.1 -0.03,0.1 -0.03,0.1 -0.04,0.1 -0.04,0.09 -0.05,0.09 -0.04,0.09 -0.06,0.09 -0.05,0.08 -0.06,0.08 -0.06,0.07 -0.07,0.08 -0.07,0.06 -0.07,0.07 -0.07,0.06 -0.08,0.06 -0.08,0.05 -0.08,0.05 -0.08,0.04 -0.09,0.04 -0.09,0.04 -0.09,0.03 -0.09,0.02 -0.1,0.02 -0.1,0.02 h -0.09 l -0.1,0.01 c -0.48,0 -0.91,-0.16 -1.27,-0.51 v 1.94 c 0.2,-0.06 0.53,-0.13 0.85,-0.13 1.22,0 1.92,0.9 1.92,1.03 0,0.06 -0.03,0.11 -0.1,0.11 -0.01,0 -0.03,0 -0.08,-0.03 -0.2,-0.09 -0.69,-0.29 -1.35,-0.29 -0.4,0 -0.86,0.07 -1.33,0.28 -0.08,0.03 -0.1,0.03 -0.12,0.03 -0.1,0 -0.1,-0.08 -0.1,-0.24 v -2.94 c 0,-0.18 0,-0.26 0.14,-0.26 0.07,0 0.09,0.03 0.13,0.09 0.11,0.16 0.48,0.7 1.29,0.7 0.51,0 0.76,-0.46 0.84,-0.64 0.16,-0.37 0.18,-0.75 0.18,-1.25 0,-0.35 0,-0.94 -0.24,-1.36 -0.24,-0.39 -0.6,-0.64 -1.06,-0.64 -0.73,0 -1.3,0.52 -1.47,1.11 0.03,-0.01 0.06,-0.02 0.17,-0.02 0.33,0 0.5,0.25 0.5,0.48 0,0.24 -0.17,0.49 -0.5,0.49 -0.14,0 -0.49,-0.07 -0.49,-0.53 0,-0.85 0.69,-1.81 1.81,-1.81 1.15,0 2.17,0.95 2.17,2.21 z"
   style="fill:#000000;stroke-width:0"
   id="path21818" />
<path
   inkscape:connector-curvature="0"
   d="m 235.31,477.76 v 0.03 0.03 l -0.01,0.02 v 0.03 l -0.01,0.02 v 0.03 l -0.01,0.02 -0.01,0.03 -0.01,0.02 -0.01,0.02 -0.02,0.02 -0.01,0.02 -0.02,0.03 -0.01,0.02 -0.02,0.01 -0.02,0.02 -0.01,0.02 -0.02,0.02 -0.02,0.01 -0.02,0.02 -0.03,0.01 -0.02,0.01 -0.02,0.02 -0.02,0.01 -0.03,0.01 h -0.02 l -0.03,0.01 -0.02,0.01 h -0.03 l -0.03,0.01 h -0.02 -0.03 c -0.29,0 -0.53,-0.24 -0.53,-0.53 0,-0.29 0.24,-0.53 0.53,-0.53 0.29,0 0.53,0.24 0.53,0.53 z"
   style="fill:#000000;stroke-width:0"
   id="path21820" />
<path
   inkscape:connector-curvature="0"
   d="m 240.75,480.41 v 0.15 0.15 l -0.01,0.15 v 0.15 l -0.01,0.15 -0.02,0.14 -0.01,0.15 -0.02,0.15 -0.02,0.14 -0.03,0.15 -0.03,0.14 -0.04,0.15 -0.04,0.14 -0.05,0.14 -0.06,0.14 -0.03,0.07 -0.03,0.07 c -0.46,0.95 -1.28,1.11 -1.7,1.11 -0.59,0 -1.32,-0.26 -1.73,-1.18 -0.32,-0.69 -0.37,-1.46 -0.37,-2.26 0,-0.74 0.04,-1.64 0.45,-2.39 0.43,-0.81 1.16,-1 1.65,-1 v 0.21 c -0.39,0 -0.98,0.25 -1.16,1.21 -0.11,0.59 -0.11,1.51 -0.11,2.09 0,0.64 0,1.29 0.08,1.83 0.19,1.18 0.94,1.27 1.19,1.27 0.32,0 0.98,-0.18 1.17,-1.16 0.1,-0.56 0.1,-1.31 0.1,-1.94 0,-0.74 0,-1.42 -0.11,-2.05 -0.15,-0.95 -0.72,-1.25 -1.16,-1.25 v 0 -0.21 c 0.53,0 1.29,0.21 1.73,1.15 0.32,0.68 0.37,1.46 0.37,2.24 z"
   style="fill:#000000;stroke-width:0"
   id="path21822" />
<path
   inkscape:connector-curvature="0"
   d="m 244.69,482.59 v 0.08 l -0.01,0.07 -0.01,0.08 -0.01,0.07 -0.02,0.08 -0.02,0.07 -0.02,0.07 -0.03,0.07 -0.03,0.06 -0.03,0.07 -0.04,0.06 -0.04,0.06 -0.04,0.06 -0.05,0.06 -0.04,0.05 -0.05,0.05 -0.06,0.05 -0.05,0.05 -0.06,0.04 -0.06,0.04 -0.06,0.04 -0.06,0.04 -0.06,0.03 -0.07,0.03 -0.07,0.03 -0.07,0.02 -0.07,0.02 -0.07,0.01 -0.08,0.02 -0.07,0.01 h -0.08 -0.07 v -0.34 c 0.65,0 1.16,-0.53 1.16,-1.14 0,-0.65 -0.52,-1.16 -1.16,-1.16 v 0 c -0.66,0 -1.17,0.53 -1.17,1.15 0,0.65 0.52,1.15 1.17,1.15 v 0.34 c -0.84,0 -1.51,-0.67 -1.51,-1.48 0,-0.84 0.68,-1.5 1.51,-1.5 0.83,0 1.5,0.68 1.5,1.49 z"
   style="fill:#000000;stroke-width:0"
   id="path21824" />
</g>    </g>
    <text
       xml:space="preserve"
       style="font-style:normal;font-variant:normal;font-weight:normal;font-stretch:normal;font-size:5.3333334923px;line-height:20px;font-family:Verdana;-inkscape-font-specification:Verdana;font-variant-ligatures:normal;font-variant-position:normal;font-variant-caps:normal;font-variant-numeric:normal;font-variant-alternates:normal;font-feature-settings:normal;text-indent:0;text-align:center;text-decoration:none;text-decoration-line:none;text-decoration-style:solid;text-decoration-color:#000000;letter-spacing:0px;word-spacing:0px;text-transform:none;writing-mode:lr-tb;direction:ltr;text-orientation:mixed;dominant-baseline:auto;baseline-shift:baseline;text-anchor:middle;white-space:normal;shape-padding:0;opacity:1;vector-effect:none;fill:#000000;fill-opacity:1;stroke:none;stroke-width:1px;stroke-linecap:butt;stroke-linejoin:miter;stroke-miterlimit:4;stroke-dasharray:none;stroke-dashoffset:0;stroke-opacity:1"
       x="207.5065155029"
       y="689.4583740234"
       id="text4572-3-69"
       inkscape:export-xdpi="253.8950042725"
       inkscape:export-ydpi="253.8950042725"><tspan
         sodipodi:role="line"
         id="tspan4570-5-3"
         x="207.5065155029"
         y="689.4583740234">3 vertice</tspan></text>
    <text
       xml:space="preserve"
       style="font-style:normal;font-variant:normal;font-weight:normal;font-stretch:normal;font-size:5.3333334923px;line-height:20px;font-family:Verdana;-inkscape-font-specification:Verdana;font-variant-ligatures:normal;font-variant-position:normal;font-variant-caps:normal;font-variant-numeric:normal;font-variant-alternates:normal;font-feature-settings:normal;text-indent:0;text-align:center;text-decoration:none;text-decoration-line:none;text-decoration-style:solid;text-decoration-color:#000000;letter-spacing:0px;word-spacing:0px;text-transform:none;writing-mode:lr-tb;direction:ltr;text-orientation:mixed;dominant-baseline:auto;baseline-shift:baseline;text-anchor:middle;white-space:normal;shape-padding:0;opacity:1;vector-effect:none;fill:#000000;fill-opacity:1;stroke:none;stroke-width:1px;stroke-linecap:butt;stroke-linejoin:miter;stroke-miterlimit:4;stroke-dasharray:none;stroke-dashoffset:0;stroke-opacity:1"
       x="257.6692810059"
       y="689.4583740234"
       id="text4572-3-6-3-4"
       inkscape:export-xdpi="253.8950042725"
       inkscape:export-ydpi="253.8950042725"><tspan
         sodipodi:role="line"
         id="tspan4570-5-2-8-3"
         x="257.6692810059"
         y="689.4583740234">4 vertices</tspan></text>
  </g>
</svg>
