<?xml version="1.0" encoding="UTF-8" standalone="no"?>
<!-- Created with Inkscape (http://www.inkscape.org/) -->

<svg
   xmlns:ns0="http://www.iki.fi/pav/software/textext/"
   xmlns:dc="http://purl.org/dc/elements/1.1/"
   xmlns:cc="http://creativecommons.org/ns#"
   xmlns:rdf="http://www.w3.org/1999/02/22-rdf-syntax-ns#"
   xmlns:svg="http://www.w3.org/2000/svg"
   xmlns="http://www.w3.org/2000/svg"
   xmlns:sodipodi="http://sodipodi.sourceforge.net/DTD/sodipodi-0.dtd"
   xmlns:inkscape="http://www.inkscape.org/namespaces/inkscape"
   width="210mm"
   height="297mm"
   viewBox="0 0 793.7008056641 1122.51965332"
   version="1.1"
   id="svg41687"
   inkscape:version="0.92.3 (2405546, 2018-03-11)"
   sodipodi:docname="ANG_explementary.svg">
  <metadata
     id="metadata41693">
    <rdf:RDF>
      <cc:Work
         rdf:about="">
        <dc:format>image/svg+xml</dc:format>
        <dc:type
           rdf:resource="http://purl.org/dc/dcmitype/StillImage" />
        <dc:title></dc:title>
      </cc:Work>
    </rdf:RDF>
  </metadata>
  <defs
     id="defs41691">
    <marker
       inkscape:stockid="DimmArrow_Start"
       style="overflow:visible"
       refY="0"
       refX="0"
       orient="auto"
       id="DimmArrow_Start">
      <path
         inkscape:connector-curvature="0"
         id="path40644"
         transform="matrix(-2.5,0,0,-2.5,-10,0)"
         style="fill:#ff0000;fill-rule:evenodd;stroke:none;stroke-width:1"
         d="M 0,0 -4,0.705308 V -0.705308 Z" />
    </marker>
    <marker
       inkscape:stockid="DimmArrow_End"
       style="overflow:visible"
       refY="0"
       refX="0"
       orient="auto"
       id="DimmArrow_End">
      <path
         inkscape:connector-curvature="0"
         id="path40647"
         transform="matrix(2.5,0,0,2.5,10,0)"
         style="fill:#ff0000;fill-rule:evenodd;stroke:none;stroke-width:1"
         d="M 0,0 -4,0.705308 V -0.705308 Z" />
    </marker>
    <marker
       inkscape:stockid="DimmArrow_Start"
       style="overflow:visible"
       refY="0"
       refX="0"
       orient="auto"
       id="marker42281">
      <path
         inkscape:connector-curvature="0"
         id="path42279"
         transform="matrix(-2.5,0,0,-2.5,-10,0)"
         style="fill:#ff0000;fill-rule:evenodd;stroke:none;stroke-width:1"
         d="M 0,0 -4,0.705308 V -0.705308 Z" />
    </marker>
    <marker
       inkscape:stockid="DimmArrow_End"
       style="overflow:visible"
       refY="0"
       refX="0"
       orient="auto"
       id="marker42285">
      <path
         inkscape:connector-curvature="0"
         id="path42283"
         transform="matrix(2.5,0,0,2.5,10,0)"
         style="fill:#ff0000;fill-rule:evenodd;stroke:none;stroke-width:1"
         d="M 0,0 -4,0.705308 V -0.705308 Z" />
    </marker>
    <marker
       inkscape:stockid="DimmArrow_Start"
       style="overflow:visible"
       refY="0"
       refX="0"
       orient="auto"
       id="DimmArrow_Start-3">
      <path
         inkscape:connector-curvature="0"
         id="path40644-3"
         transform="matrix(-2.5,0,0,-2.5,-10,0)"
         style="fill:#ff0000;fill-rule:evenodd;stroke:none;stroke-width:1"
         d="M 0,0 -4,0.705308 V -0.705308 Z" />
    </marker>
    <marker
       inkscape:stockid="DimmArrow_End"
       style="overflow:visible"
       refY="0"
       refX="0"
       orient="auto"
       id="DimmArrow_End-3">
      <path
         inkscape:connector-curvature="0"
         id="path40647-7"
         transform="matrix(2.5,0,0,2.5,10,0)"
         style="fill:#ff0000;fill-rule:evenodd;stroke:none;stroke-width:1"
         d="M 0,0 -4,0.705308 V -0.705308 Z" />
    </marker>
    <marker
       inkscape:stockid="DimmArrow_Start"
       style="overflow:visible"
       refY="0"
       refX="0"
       orient="auto"
       id="marker42450">
      <path
         inkscape:connector-curvature="0"
         id="path42448"
         transform="matrix(-2.5,0,0,-2.5,-10,0)"
         style="fill:#ff0000;fill-rule:evenodd;stroke:none;stroke-width:1"
         d="M 0,0 -4,0.705308 V -0.705308 Z" />
    </marker>
    <marker
       inkscape:stockid="DimmArrow_End"
       style="overflow:visible"
       refY="0"
       refX="0"
       orient="auto"
       id="marker42454">
      <path
         inkscape:connector-curvature="0"
         id="path42452"
         transform="matrix(2.5,0,0,2.5,10,0)"
         style="fill:#ff0000;fill-rule:evenodd;stroke:none;stroke-width:1"
         d="M 0,0 -4,0.705308 V -0.705308 Z" />
    </marker>
    <marker
       inkscape:stockid="DimmArrow_Start"
       style="overflow:visible"
       refY="0"
       refX="0"
       orient="auto"
       id="DimmArrow_Start-32">
      <path
         inkscape:connector-curvature="0"
         id="path40644-6"
         transform="matrix(-2.5,0,0,-2.5,-10,0)"
         style="fill:#ff0000;fill-rule:evenodd;stroke:none;stroke-width:1"
         d="M 0,0 -4,0.705308 V -0.705308 Z" />
    </marker>
    <marker
       inkscape:stockid="DimmArrow_End"
       style="overflow:visible"
       refY="0"
       refX="0"
       orient="auto"
       id="DimmArrow_End-5">
      <path
         inkscape:connector-curvature="0"
         id="path40647-2"
         transform="matrix(2.5,0,0,2.5,10,0)"
         style="fill:#ff0000;fill-rule:evenodd;stroke:none;stroke-width:1"
         d="M 0,0 -4,0.705308 V -0.705308 Z" />
    </marker>
    <marker
       inkscape:stockid="DimmArrow_Start"
       style="overflow:visible"
       refY="0"
       refX="0"
       orient="auto"
       id="marker42979">
      <path
         inkscape:connector-curvature="0"
         id="path42977"
         transform="matrix(-2.5,0,0,-2.5,-10,0)"
         style="fill:#ff0000;fill-rule:evenodd;stroke:none;stroke-width:1"
         d="M 0,0 -4,0.705308 V -0.705308 Z" />
    </marker>
    <marker
       inkscape:stockid="DimmArrow_End"
       style="overflow:visible"
       refY="0"
       refX="0"
       orient="auto"
       id="marker42983">
      <path
         inkscape:connector-curvature="0"
         id="path42981"
         transform="matrix(2.5,0,0,2.5,10,0)"
         style="fill:#ff0000;fill-rule:evenodd;stroke:none;stroke-width:1"
         d="M 0,0 -4,0.705308 V -0.705308 Z" />
    </marker>
    <marker
       id="DimmArrow_Start-1"
       orient="auto"
       refX="0"
       refY="0"
       style="overflow:visible"
       inkscape:stockid="DimmArrow_Start">
      <path
         d="M 0,0 -4,0.705308 V -0.705308 Z"
         style="fill:#ff0000;fill-rule:evenodd;stroke:none;stroke-width:1"
         transform="matrix(-2.5,0,0,-2.5,-10,0)"
         id="path37513-4"
         inkscape:connector-curvature="0" />
    </marker>
    <marker
       id="DimmArrow_End-6"
       orient="auto"
       refX="0"
       refY="0"
       style="overflow:visible"
       inkscape:stockid="DimmArrow_End">
      <path
         d="M 0,0 -4,0.705308 V -0.705308 Z"
         style="fill:#ff0000;fill-rule:evenodd;stroke:none;stroke-width:1"
         transform="matrix(2.5,0,0,2.5,10,0)"
         id="path37516-9"
         inkscape:connector-curvature="0" />
    </marker>
    <marker
       inkscape:stockid="DimmArrow_Start"
       style="overflow:visible"
       refY="0"
       refX="0"
       orient="auto"
       id="DimmArrow_Start-6">
      <path
         inkscape:connector-curvature="0"
         id="path40644-5"
         transform="matrix(-2.5,0,0,-2.5,-10,0)"
         style="fill:#ff0000;fill-rule:evenodd;stroke:none;stroke-width:1"
         d="M 0,0 -4,0.705308 V -0.705308 Z" />
    </marker>
    <marker
       inkscape:stockid="DimmArrow_End"
       style="overflow:visible"
       refY="0"
       refX="0"
       orient="auto"
       id="DimmArrow_End-8">
      <path
         inkscape:connector-curvature="0"
         id="path40647-79"
         transform="matrix(2.5,0,0,2.5,10,0)"
         style="fill:#ff0000;fill-rule:evenodd;stroke:none;stroke-width:1"
         d="M 0,0 -4,0.705308 V -0.705308 Z" />
    </marker>
    <marker
       inkscape:stockid="DimmArrow_Start"
       style="overflow:visible"
       refY="0"
       refX="0"
       orient="auto"
       id="marker43553">
      <path
         inkscape:connector-curvature="0"
         id="path43551"
         transform="matrix(-2.5,0,0,-2.5,-10,0)"
         style="fill:#ff0000;fill-rule:evenodd;stroke:none;stroke-width:1"
         d="M 0,0 -4,0.705308 V -0.705308 Z" />
    </marker>
    <marker
       inkscape:stockid="DimmArrow_End"
       style="overflow:visible"
       refY="0"
       refX="0"
       orient="auto"
       id="marker43557">
      <path
         inkscape:connector-curvature="0"
         id="path43555"
         transform="matrix(2.5,0,0,2.5,10,0)"
         style="fill:#ff0000;fill-rule:evenodd;stroke:none;stroke-width:1"
         d="M 0,0 -4,0.705308 V -0.705308 Z" />
    </marker>
    <marker
       inkscape:stockid="DimmArrow_Start"
       style="overflow:visible"
       refY="0"
       refX="0"
       orient="auto"
       id="DimmArrow_Start-60">
      <path
         inkscape:connector-curvature="0"
         id="path40644-4"
         transform="matrix(-2.5,0,0,-2.5,-10,0)"
         style="fill:#ff0000;fill-rule:evenodd;stroke:none;stroke-width:1"
         d="M 0,0 -4,0.705308 V -0.705308 Z" />
    </marker>
    <marker
       inkscape:stockid="DimmArrow_End"
       style="overflow:visible"
       refY="0"
       refX="0"
       orient="auto"
       id="DimmArrow_End-1">
      <path
         inkscape:connector-curvature="0"
         id="path40647-0"
         transform="matrix(2.5,0,0,2.5,10,0)"
         style="fill:#ff0000;fill-rule:evenodd;stroke:none;stroke-width:1"
         d="M 0,0 -4,0.705308 V -0.705308 Z" />
    </marker>
    <marker
       inkscape:stockid="DimmArrow_Start"
       style="overflow:visible"
       refY="0"
       refX="0"
       orient="auto"
       id="marker43926">
      <path
         inkscape:connector-curvature="0"
         id="path43924"
         transform="matrix(-2.5,0,0,-2.5,-10,0)"
         style="fill:#ff0000;fill-rule:evenodd;stroke:none;stroke-width:1"
         d="M 0,0 -4,0.705308 V -0.705308 Z" />
    </marker>
    <marker
       inkscape:stockid="DimmArrow_End"
       style="overflow:visible"
       refY="0"
       refX="0"
       orient="auto"
       id="marker43930">
      <path
         inkscape:connector-curvature="0"
         id="path43928"
         transform="matrix(2.5,0,0,2.5,10,0)"
         style="fill:#ff0000;fill-rule:evenodd;stroke:none;stroke-width:1"
         d="M 0,0 -4,0.705308 V -0.705308 Z" />
    </marker>
  </defs>
  <sodipodi:namedview
     pagecolor="#ffffff"
     bordercolor="#666666"
     borderopacity="1"
     objecttolerance="10"
     gridtolerance="10"
     guidetolerance="10"
     inkscape:pageopacity="0"
     inkscape:pageshadow="2"
     inkscape:window-width="762"
     inkscape:window-height="480"
     id="namedview41689"
     showgrid="true"
     inkscape:zoom="1.189304400548"
     inkscape:cx="388.4838388636"
     inkscape:cy="611.1925053039"
     inkscape:window-x="1133"
     inkscape:window-y="170"
     inkscape:window-maximized="0"
     inkscape:current-layer="svg41687">
    <inkscape:grid
       type="xygrid"
       id="grid42315" />
  </sodipodi:namedview>
  <g
     transform="translate(140,-389.9999999999)"
     id="g25828">
    <g
       id="g25770"
       transform="translate(-10,10.00000000001)">
      <path
         style="color:#000000;clip-rule:nonzero;display:inline;overflow:visible;visibility:visible;opacity:1;isolation:auto;mix-blend-mode:normal;color-interpolation:sRGB;color-interpolation-filters:linearRGB;solid-color:#000000;solid-opacity:1;vector-effect:none;fill:none;fill-opacity:1;fill-rule:nonzero;stroke:#0000ff;stroke-width:1;stroke-linecap:round;stroke-linejoin:round;stroke-miterlimit:4;stroke-dasharray:none;stroke-dashoffset:0;stroke-opacity:1;marker:none;marker-start:none;paint-order:normal;color-rendering:auto;image-rendering:auto;shape-rendering:auto;text-rendering:auto;enable-background:accumulate"
         d="m 225,877.5196533203 h -20 l 15,15"
         id="path22473"
         inkscape:connector-curvature="0"
         sodipodi:nodetypes="ccc" />
      <g
         transform="translate(5,90.00000000001)"
         inkscape:label="Dim"
         id="g23806">
        <path
           d="m 216.5013358724,791.4827188488 a 16.9705619812,16.9705619812 0 0 1 -2.0308188689,4.9028304561"
           style="fill:none;stroke:#ff0000;stroke-width:0.400000006;stroke-linecap:round;stroke-linejoin:round;stroke-dasharray:none;marker-start:url(#DimmArrow_Start-60);marker-end:url(#DimmArrow_End-1)"
           sodipodi:cx="200"
           sodipodi:cy="787.5196533203"
           sodipodi:end="0.549695903002"
           sodipodi:open="true"
           sodipodi:rx="16.9705619812"
           sodipodi:ry="16.9705619812"
           sodipodi:start="0.235702260396"
           sodipodi:type="arc"
           inkscape:label="arc"
           id="path23792" />
        <g
           style="font-style:normal;font-variant:normal;font-weight:normal;font-stretch:normal;letter-spacing:normal;word-spacing:normal;text-anchor:start;fill:none;fill-opacity:1;fill-rule:evenodd;stroke:#000000;stroke-linecap:butt;stroke-linejoin:miter;stroke-miterlimit:10.4329996109;stroke-dasharray:none;stroke-dashoffset:0;stroke-opacity:1"
           id="g23804"
           xml:space="preserve"
           stroke-miterlimit="10.433"
           font-style="normal"
           font-variant="normal"
           font-weight="normal"
           font-stretch="normal"
           font-size-adjust="none"
           letter-spacing="normal"
           word-spacing="normal"
           ns0:text=" \\SI{45.0}{\\degree}"
           ns0:preamble="/home/fernando/.config/inkscape/extensions/textextLib/basicLatexPackages.tex"
           transform="matrix(0.2264399098653,-0.5466743014594,-0.5466743014594,-0.2264399098653,428.7588317779,1032.272452677)">
<path
   inkscape:connector-curvature="0"
   d="m 226.36,478.87 v -0.86 c 0,-0.36 -0.02,-0.47 -0.75,-0.47 h -0.21 v -0.31 c 0.4,0.04 0.92,0.04 1.34,0.04 0.42,0 0.95,0 1.36,-0.04 v 0.31 h -0.21 c -0.74,0 -0.76,0.11 -0.76,0.47 v 0.86 h 1 v 0.31 h -1 v 4.52 c 0,0.2 0,0.26 -0.16,0.26 -0.09,0 -0.12,0 -0.2,-0.12 l -3.06,-4.66 h 0.28 l 2.43,3.71 v -3.71 h -2.43 -0.28 v -0.31 z"
   style="fill:#000000;stroke-width:0"
   id="path23794" />
<path
   inkscape:connector-curvature="0"
   d="m 232.89,479.23 v 0.11 l -0.01,0.11 -0.01,0.11 -0.02,0.1 -0.02,0.11 -0.02,0.1 -0.03,0.1 -0.03,0.1 -0.04,0.1 -0.04,0.09 -0.05,0.09 -0.04,0.09 -0.06,0.09 -0.05,0.08 -0.06,0.08 -0.06,0.07 -0.07,0.08 -0.07,0.06 -0.07,0.07 -0.07,0.06 -0.08,0.06 -0.08,0.05 -0.08,0.05 -0.08,0.04 -0.09,0.04 -0.09,0.04 -0.09,0.03 -0.09,0.02 -0.1,0.02 -0.1,0.02 h -0.09 l -0.1,0.01 c -0.48,0 -0.91,-0.16 -1.27,-0.51 v 1.94 c 0.2,-0.06 0.53,-0.13 0.85,-0.13 1.22,0 1.92,0.9 1.92,1.03 0,0.06 -0.03,0.11 -0.1,0.11 -0.01,0 -0.03,0 -0.08,-0.03 -0.2,-0.09 -0.69,-0.29 -1.35,-0.29 -0.4,0 -0.86,0.07 -1.33,0.28 -0.08,0.03 -0.1,0.03 -0.12,0.03 -0.1,0 -0.1,-0.08 -0.1,-0.24 v -2.94 c 0,-0.18 0,-0.26 0.14,-0.26 0.07,0 0.09,0.03 0.13,0.09 0.11,0.16 0.48,0.7 1.29,0.7 0.51,0 0.76,-0.46 0.84,-0.64 0.16,-0.37 0.18,-0.75 0.18,-1.25 0,-0.35 0,-0.94 -0.24,-1.36 -0.24,-0.39 -0.6,-0.64 -1.06,-0.64 -0.73,0 -1.3,0.52 -1.47,1.11 0.03,-0.01 0.06,-0.02 0.17,-0.02 0.33,0 0.5,0.25 0.5,0.48 0,0.24 -0.17,0.49 -0.5,0.49 -0.14,0 -0.49,-0.07 -0.49,-0.53 0,-0.85 0.69,-1.81 1.81,-1.81 1.15,0 2.17,0.95 2.17,2.21 z"
   style="fill:#000000;stroke-width:0"
   id="path23796" />
<path
   inkscape:connector-curvature="0"
   d="m 235.31,477.76 v 0.03 0.03 l -0.01,0.02 v 0.03 l -0.01,0.02 v 0.03 l -0.01,0.02 -0.01,0.03 -0.01,0.02 -0.01,0.02 -0.02,0.02 -0.01,0.02 -0.02,0.03 -0.01,0.02 -0.02,0.01 -0.02,0.02 -0.01,0.02 -0.02,0.02 -0.02,0.01 -0.02,0.02 -0.03,0.01 -0.02,0.01 -0.02,0.02 -0.02,0.01 -0.03,0.01 h -0.02 l -0.03,0.01 -0.02,0.01 h -0.03 l -0.03,0.01 h -0.02 -0.03 c -0.29,0 -0.53,-0.24 -0.53,-0.53 0,-0.29 0.24,-0.53 0.53,-0.53 0.29,0 0.53,0.24 0.53,0.53 z"
   style="fill:#000000;stroke-width:0"
   id="path23798" />
<path
   inkscape:connector-curvature="0"
   d="m 240.75,480.41 v 0.15 0.15 l -0.01,0.15 v 0.15 l -0.01,0.15 -0.02,0.14 -0.01,0.15 -0.02,0.15 -0.02,0.14 -0.03,0.15 -0.03,0.14 -0.04,0.15 -0.04,0.14 -0.05,0.14 -0.06,0.14 -0.03,0.07 -0.03,0.07 c -0.46,0.95 -1.28,1.11 -1.7,1.11 -0.59,0 -1.32,-0.26 -1.73,-1.18 -0.32,-0.69 -0.37,-1.46 -0.37,-2.26 0,-0.74 0.04,-1.64 0.45,-2.39 0.43,-0.81 1.16,-1 1.65,-1 v 0.21 c -0.39,0 -0.98,0.25 -1.16,1.21 -0.11,0.59 -0.11,1.51 -0.11,2.09 0,0.64 0,1.29 0.08,1.83 0.19,1.18 0.94,1.27 1.19,1.27 0.32,0 0.98,-0.18 1.17,-1.16 0.1,-0.56 0.1,-1.31 0.1,-1.94 0,-0.74 0,-1.42 -0.11,-2.05 -0.15,-0.95 -0.72,-1.25 -1.16,-1.25 v 0 -0.21 c 0.53,0 1.29,0.21 1.73,1.15 0.32,0.68 0.37,1.46 0.37,2.24 z"
   style="fill:#000000;stroke-width:0"
   id="path23800" />
<path
   inkscape:connector-curvature="0"
   d="m 244.69,482.59 v 0.08 l -0.01,0.07 -0.01,0.08 -0.01,0.07 -0.02,0.08 -0.02,0.07 -0.02,0.07 -0.03,0.07 -0.03,0.06 -0.03,0.07 -0.04,0.06 -0.04,0.06 -0.04,0.06 -0.05,0.06 -0.04,0.05 -0.05,0.05 -0.06,0.05 -0.05,0.05 -0.06,0.04 -0.06,0.04 -0.06,0.04 -0.06,0.04 -0.06,0.03 -0.07,0.03 -0.07,0.03 -0.07,0.02 -0.07,0.02 -0.07,0.01 -0.08,0.02 -0.07,0.01 h -0.08 -0.07 v -0.34 c 0.65,0 1.16,-0.53 1.16,-1.14 0,-0.65 -0.52,-1.16 -1.16,-1.16 v 0 c -0.66,0 -1.17,0.53 -1.17,1.15 0,0.65 0.52,1.15 1.17,1.15 v 0.34 c -0.84,0 -1.51,-0.67 -1.51,-1.48 0,-0.84 0.68,-1.5 1.51,-1.5 0.83,0 1.5,0.68 1.5,1.49 z"
   style="fill:#000000;stroke-width:0"
   id="path23802" />
</g>      </g>
    </g>
    <g
       id="g25759"
       transform="translate(25,100)">
      <path
         style="color:#000000;clip-rule:nonzero;display:inline;overflow:visible;visibility:visible;opacity:1;isolation:auto;mix-blend-mode:normal;color-interpolation:sRGB;color-interpolation-filters:linearRGB;solid-color:#000000;solid-opacity:1;vector-effect:none;fill:none;fill-opacity:1;fill-rule:nonzero;stroke:#0000ff;stroke-width:1;stroke-linecap:round;stroke-linejoin:round;stroke-miterlimit:4;stroke-dasharray:none;stroke-dashoffset:0;stroke-opacity:1;marker:none;marker-start:none;paint-order:normal;color-rendering:auto;image-rendering:auto;shape-rendering:auto;text-rendering:auto;enable-background:accumulate"
         d="m 265,787.5196533203 h -20 l 15,15"
         id="path22473-6"
         inkscape:connector-curvature="0"
         sodipodi:nodetypes="ccc" />
      <g
         id="g24490"
         inkscape:label="Dim">
        <path
           id="path24474"
           inkscape:label="arc"
           sodipodi:type="arc"
           sodipodi:start="1.02110042379"
           sodipodi:ry="16.9705619812"
           sodipodi:rx="16.9705619812"
           sodipodi:open="true"
           sodipodi:end="6.047483046784"
           sodipodi:cy="787.5196533203"
           sodipodi:cx="245"
           style="fill:none;stroke:#ff0000;stroke-width:0.400000006;stroke-linecap:round;stroke-linejoin:round;stroke-dasharray:none;marker-start:url(#DimmArrow_Start-60);marker-end:url(#DimmArrow_End-1)"
           d="m 253.8658959846,801.9901703238 a 16.9705619812,16.9705619812 0 0 1 -19.8879286533,-1.5664567972 16.9705619812,16.9705619812 0 0 1 -4.656722201,-19.3984131144 16.9705619812,16.9705619812 0 0 1 17.0095493039,-10.4239496111 16.9705619812,16.9705619812 0 0 1 15.1705414382,12.9552369907" />
        <g
           transform="matrix(0.2264399098653,-0.5466743014594,-0.5466743014594,-0.2264399098653,435.0056989881,1017.859980147)"
           ns0:preamble="/home/fernando/.config/inkscape/extensions/textextLib/basicLatexPackages.tex"
           ns0:text=" \\SI{315.0}{\\degree}"
           word-spacing="normal"
           letter-spacing="normal"
           font-size-adjust="none"
           font-stretch="normal"
           font-weight="normal"
           font-variant="normal"
           font-style="normal"
           stroke-miterlimit="10.433"
           xml:space="preserve"
           id="g24488"
           style="font-style:normal;font-variant:normal;font-weight:normal;font-stretch:normal;letter-spacing:normal;word-spacing:normal;text-anchor:start;fill:none;fill-opacity:1;fill-rule:evenodd;stroke:#000000;stroke-linecap:butt;stroke-linejoin:miter;stroke-miterlimit:10.4329996109;stroke-dasharray:none;stroke-dashoffset:0;stroke-opacity:1">
<path
   id="path24476"
   style="fill:#000000;stroke-width:0"
   d="m 226.32,480.73 0.08,0.03 0.07,0.03 0.08,0.03 0.07,0.03 0.07,0.04 0.07,0.04 0.06,0.04 0.07,0.04 0.06,0.04 0.06,0.05 0.06,0.05 0.06,0.05 0.05,0.05 0.05,0.05 0.05,0.06 0.05,0.05 0.04,0.06 0.05,0.06 0.04,0.06 0.03,0.06 0.04,0.07 0.03,0.06 0.03,0.07 0.03,0.06 0.02,0.07 0.02,0.07 0.02,0.07 0.01,0.07 0.02,0.07 v 0.07 l 0.01,0.08 v 0.07 c 0,0.82 -0.88,1.37 -1.84,1.37 -1,0 -1.76,-0.59 -1.76,-1.35 0,-0.33 0.22,-0.52 0.51,-0.52 0.31,0 0.51,0.22 0.51,0.51 0,0.5 -0.47,0.5 -0.62,0.5 0.31,0.48 0.97,0.61 1.33,0.61 0.4,0 0.95,-0.22 0.95,-1.11 0,-0.12 -0.02,-0.69 -0.28,-1.13 -0.3,-0.48 -0.64,-0.51 -0.88,-0.52 -0.08,-0.01 -0.32,-0.03 -0.39,-0.03 -0.08,-0.01 -0.15,-0.02 -0.15,-0.12 0,-0.11 0.07,-0.11 0.24,-0.11 h 0.43 c 0.82,0 1.19,-0.67 1.19,-1.65 0,-1.35 -0.69,-1.63 -1.12,-1.63 -0.43,0 -1.18,0.16 -1.53,0.75 0.35,-0.05 0.66,0.17 0.66,0.55 0,0.35 -0.27,0.55 -0.56,0.55 -0.24,0 -0.56,-0.14 -0.56,-0.57 0,-0.91 0.93,-1.56 2.02,-1.56 1.21,0 2.12,0.9 2.12,1.91 0,0.82 -0.63,1.59 -1.67,1.8 z"
   inkscape:connector-curvature="0" />
<path
   id="path24478"
   style="fill:#000000;stroke-width:0"
   d="m 231.35,483.59 v 0.01 l -0.01,0.01 v 0.02 0.01 0 0.01 0.01 0.01 0.01 0.01 0.01 0.01 0 0.01 0.01 0 0.01 0.01 0.01 0.01 l -0.01,0.01 v 0.01 0.01 h -0.01 v 0.01 l -0.01,0.01 h -0.01 v 0.01 h -0.01 l -0.01,0.01 v 0 h -0.01 v 0 h -0.01 -0.01 v 0 l -0.01,0.01 v 0 h -0.01 -0.01 -0.01 v 0 h -0.01 -0.01 -0.01 -0.01 v 0 h -0.01 -0.01 -0.01 -0.01 -0.01 c -0.62,-0.64 -1.5,-0.64 -1.82,-0.64 v -0.3 c 0.2,0 0.79,0 1.31,0.26 v -5.15 c 0,-0.36 -0.03,-0.48 -0.93,-0.48 h -0.32 v -0.31 c 0.35,0.04 1.22,0.04 1.62,0.04 0.4,0 1.26,0 1.61,-0.04 v 0.31 h -0.32 c -0.89,0 -0.92,0.11 -0.92,0.48 z"
   inkscape:connector-curvature="0" />
<path
   id="path24480"
   style="fill:#000000;stroke-width:0"
   d="m 237.87,479.23 v 0.11 l -0.01,0.11 -0.01,0.11 -0.02,0.1 -0.02,0.11 -0.02,0.1 -0.03,0.1 -0.03,0.1 -0.04,0.1 -0.04,0.09 -0.05,0.09 -0.04,0.09 -0.06,0.09 -0.05,0.08 -0.06,0.08 -0.06,0.07 -0.07,0.08 -0.06,0.06 -0.08,0.07 -0.07,0.06 -0.08,0.06 -0.08,0.05 -0.08,0.05 -0.08,0.04 -0.09,0.04 -0.09,0.04 -0.09,0.03 -0.09,0.02 -0.1,0.02 -0.09,0.02 h -0.1 l -0.1,0.01 c -0.48,0 -0.91,-0.16 -1.27,-0.51 v 1.94 c 0.2,-0.06 0.53,-0.13 0.85,-0.13 1.23,0 1.92,0.9 1.92,1.03 0,0.06 -0.03,0.11 -0.1,0.11 -0.01,0 -0.03,0 -0.08,-0.03 -0.2,-0.09 -0.68,-0.29 -1.35,-0.29 -0.4,0 -0.86,0.07 -1.33,0.28 -0.08,0.03 -0.1,0.03 -0.12,0.03 -0.1,0 -0.1,-0.08 -0.1,-0.24 v -2.94 c 0,-0.18 0,-0.26 0.14,-0.26 0.07,0 0.09,0.03 0.13,0.09 0.11,0.16 0.48,0.7 1.29,0.7 0.52,0 0.77,-0.46 0.84,-0.64 0.16,-0.37 0.19,-0.75 0.19,-1.25 0,-0.35 0,-0.94 -0.25,-1.36 -0.23,-0.39 -0.6,-0.64 -1.06,-0.64 -0.73,0 -1.3,0.52 -1.47,1.11 0.03,-0.01 0.06,-0.02 0.17,-0.02 0.33,0 0.5,0.25 0.5,0.48 0,0.24 -0.17,0.49 -0.5,0.49 -0.14,0 -0.49,-0.07 -0.49,-0.53 0,-0.85 0.69,-1.81 1.81,-1.81 1.15,0 2.17,0.95 2.17,2.21 z"
   inkscape:connector-curvature="0" />
<path
   id="path24482"
   style="fill:#000000;stroke-width:0"
   d="m 240.29,477.76 v 0.03 0.03 l -0.01,0.02 v 0.03 l -0.01,0.02 v 0.03 l -0.01,0.02 -0.01,0.03 -0.01,0.02 -0.01,0.02 -0.02,0.02 -0.01,0.02 -0.02,0.03 -0.01,0.02 -0.02,0.01 -0.02,0.02 -0.01,0.02 -0.02,0.02 -0.02,0.01 -0.02,0.02 -0.03,0.01 -0.02,0.01 -0.02,0.02 -0.02,0.01 -0.03,0.01 h -0.02 l -0.03,0.01 -0.02,0.01 h -0.03 l -0.02,0.01 h -0.03 -0.03 c -0.29,0 -0.53,-0.24 -0.53,-0.53 0,-0.29 0.24,-0.53 0.53,-0.53 0.29,0 0.53,0.24 0.53,0.53 z"
   inkscape:connector-curvature="0" />
<path
   id="path24484"
   style="fill:#000000;stroke-width:0"
   d="m 245.73,480.41 v 0.15 0.15 l -0.01,0.15 v 0.15 l -0.01,0.15 -0.01,0.14 -0.02,0.15 -0.02,0.15 -0.02,0.14 -0.03,0.15 -0.03,0.14 -0.04,0.15 -0.04,0.14 -0.05,0.14 -0.06,0.14 -0.03,0.07 -0.03,0.07 c -0.46,0.95 -1.27,1.11 -1.69,1.11 -0.6,0 -1.33,-0.26 -1.74,-1.18 -0.32,-0.69 -0.37,-1.46 -0.37,-2.26 0,-0.74 0.04,-1.64 0.45,-2.39 0.43,-0.81 1.16,-1 1.65,-1 v 0.21 c -0.39,0 -0.98,0.25 -1.16,1.21 -0.11,0.59 -0.11,1.51 -0.11,2.09 0,0.64 0,1.29 0.08,1.83 0.19,1.18 0.94,1.27 1.19,1.27 0.33,0 0.98,-0.18 1.17,-1.16 0.1,-0.56 0.1,-1.31 0.1,-1.94 0,-0.74 0,-1.42 -0.11,-2.05 -0.15,-0.95 -0.71,-1.25 -1.16,-1.25 v 0 -0.21 c 0.54,0 1.29,0.21 1.73,1.15 0.32,0.68 0.37,1.46 0.37,2.24 z"
   inkscape:connector-curvature="0" />
<path
   id="path24486"
   style="fill:#000000;stroke-width:0"
   d="m 249.67,482.59 v 0.08 l -0.01,0.07 -0.01,0.08 -0.01,0.07 -0.02,0.08 -0.02,0.07 -0.02,0.07 -0.03,0.07 -0.03,0.06 -0.03,0.07 -0.04,0.06 -0.04,0.06 -0.04,0.06 -0.04,0.06 -0.05,0.05 -0.05,0.05 -0.05,0.05 -0.06,0.05 -0.06,0.04 -0.05,0.04 -0.07,0.04 -0.06,0.04 -0.06,0.03 -0.07,0.03 -0.07,0.03 -0.07,0.02 -0.07,0.02 -0.07,0.01 -0.08,0.02 -0.07,0.01 h -0.08 -0.07 v -0.34 c 0.65,0 1.16,-0.53 1.16,-1.14 0,-0.65 -0.52,-1.16 -1.16,-1.16 v 0 c -0.66,0 -1.16,0.53 -1.16,1.15 0,0.65 0.51,1.15 1.16,1.15 v 0.34 c -0.84,0 -1.51,-0.67 -1.51,-1.48 0,-0.84 0.68,-1.5 1.51,-1.5 0.84,0 1.5,0.68 1.5,1.49 z"
   inkscape:connector-curvature="0" />
</g>      </g>
    </g>
    <path
       sodipodi:nodetypes="cc"
       inkscape:connector-curvature="0"
       id="path4557-05-0-6"
       d="M 170,912.5196533203 H 300"
       style="color:#000000;clip-rule:nonzero;display:inline;overflow:visible;visibility:visible;opacity:1;isolation:auto;mix-blend-mode:normal;color-interpolation:sRGB;color-interpolation-filters:linearRGB;solid-color:#000000;solid-opacity:1;vector-effect:none;fill:#000000;fill-opacity:1;fill-rule:nonzero;stroke:#5f8dd3;stroke-width:1px;stroke-linecap:round;stroke-linejoin:round;stroke-miterlimit:4;stroke-dasharray:none;stroke-dashoffset:0;stroke-opacity:1;marker:none;color-rendering:auto;image-rendering:auto;shape-rendering:auto;text-rendering:auto;enable-background:accumulate" />
    <path
       sodipodi:nodetypes="cc"
       inkscape:connector-curvature="0"
       id="path4557-0-6-8-0"
       d="m 170,862.5196216012 130,3.17191e-5"
       style="color:#000000;clip-rule:nonzero;display:inline;overflow:visible;visibility:visible;opacity:1;isolation:auto;mix-blend-mode:normal;color-interpolation:sRGB;color-interpolation-filters:linearRGB;solid-color:#000000;solid-opacity:1;vector-effect:none;fill:#000000;fill-opacity:1;fill-rule:nonzero;stroke:#5f8dd3;stroke-width:1px;stroke-linecap:round;stroke-linejoin:round;stroke-miterlimit:4;stroke-dasharray:none;stroke-dashoffset:0;stroke-opacity:1;marker:none;color-rendering:auto;image-rendering:auto;shape-rendering:auto;text-rendering:auto;enable-background:accumulate" />
    <path
       sodipodi:nodetypes="cc"
       inkscape:connector-curvature="0"
       id="path4557-0-6-2-4-6-4"
       d="m 235,852.5196533203 v 59.9999682809"
       style="color:#000000;clip-rule:nonzero;display:inline;overflow:visible;visibility:visible;opacity:1;isolation:auto;mix-blend-mode:normal;color-interpolation:sRGB;color-interpolation-filters:linearRGB;solid-color:#000000;solid-opacity:1;vector-effect:none;fill:#000000;fill-opacity:1;fill-rule:nonzero;stroke:#5f8dd3;stroke-width:1px;stroke-linecap:round;stroke-linejoin:round;stroke-miterlimit:4;stroke-dasharray:none;stroke-dashoffset:0;stroke-opacity:1;marker:none;color-rendering:auto;image-rendering:auto;shape-rendering:auto;text-rendering:auto;enable-background:accumulate" />
    <path
       sodipodi:nodetypes="cc"
       inkscape:connector-curvature="0"
       id="path4557-0-6-6-0-8"
       d="m 170,842.5196216012 v 70.0000317191"
       style="color:#000000;clip-rule:nonzero;display:inline;overflow:visible;visibility:visible;opacity:1;isolation:auto;mix-blend-mode:normal;color-interpolation:sRGB;color-interpolation-filters:linearRGB;solid-color:#000000;solid-opacity:1;vector-effect:none;fill:#000000;fill-opacity:1;fill-rule:nonzero;stroke:#5f8dd3;stroke-width:1px;stroke-linecap:round;stroke-linejoin:round;stroke-miterlimit:4;stroke-dasharray:none;stroke-dashoffset:0;stroke-opacity:1;marker:none;color-rendering:auto;image-rendering:auto;shape-rendering:auto;text-rendering:auto;enable-background:accumulate" />
    <path
       sodipodi:nodetypes="cc"
       inkscape:connector-curvature="0"
       id="path4557-0-7-7-8-8"
       d="m 170,852.5196216012 130,3.17191e-5"
       style="color:#000000;clip-rule:nonzero;display:inline;overflow:visible;visibility:visible;opacity:1;isolation:auto;mix-blend-mode:normal;color-interpolation:sRGB;color-interpolation-filters:linearRGB;solid-color:#000000;solid-opacity:1;vector-effect:none;fill:#000000;fill-opacity:1;fill-rule:nonzero;stroke:#5f8dd3;stroke-width:1px;stroke-linecap:round;stroke-linejoin:round;stroke-miterlimit:4;stroke-dasharray:none;stroke-dashoffset:0;stroke-opacity:1;marker:none;color-rendering:auto;image-rendering:auto;shape-rendering:auto;text-rendering:auto;enable-background:accumulate" />
    <path
       sodipodi:nodetypes="cc"
       inkscape:connector-curvature="0"
       id="path4557-0-6-2-2-0-1-8"
       d="m 300,842.5196533203 v 69.9999682809"
       style="color:#000000;clip-rule:nonzero;display:inline;overflow:visible;visibility:visible;opacity:1;isolation:auto;mix-blend-mode:normal;color-interpolation:sRGB;color-interpolation-filters:linearRGB;solid-color:#000000;solid-opacity:1;vector-effect:none;fill:#000000;fill-opacity:1;fill-rule:nonzero;stroke:#5f8dd3;stroke-width:1px;stroke-linecap:round;stroke-linejoin:round;stroke-miterlimit:4;stroke-dasharray:none;stroke-dashoffset:0;stroke-opacity:1;marker:none;color-rendering:auto;image-rendering:auto;shape-rendering:auto;text-rendering:auto;enable-background:accumulate" />
    <text
       xml:space="preserve"
       style="font-style:normal;font-variant:normal;font-weight:normal;font-stretch:normal;font-size:5.3333334923px;line-height:20px;font-family:Verdana;-inkscape-font-specification:Verdana;font-variant-ligatures:normal;font-variant-position:normal;font-variant-caps:normal;font-variant-numeric:normal;font-variant-alternates:normal;font-feature-settings:normal;text-indent:0;text-align:center;text-decoration:none;text-decoration-line:none;text-decoration-style:solid;text-decoration-color:#000000;letter-spacing:0px;word-spacing:0px;text-transform:none;writing-mode:lr-tb;direction:ltr;text-orientation:mixed;dominant-baseline:auto;baseline-shift:baseline;text-anchor:middle;white-space:normal;shape-padding:0;opacity:1;vector-effect:none;fill:#000000;fill-opacity:1;stroke:none;stroke-width:1px;stroke-linecap:butt;stroke-linejoin:miter;stroke-miterlimit:4;stroke-dasharray:none;stroke-dashoffset:0;stroke-opacity:1"
       x="202.3802032471"
       y="859.4583740234"
       id="text4572-3-69-8"
       inkscape:export-xdpi="253.8950042725"
       inkscape:export-ydpi="253.8950042725"><tspan
         sodipodi:role="line"
         x="202.3802032471"
         y="859.4583740234"
         id="tspan25745">False</tspan></text>
    <text
       xml:space="preserve"
       style="font-style:normal;font-variant:normal;font-weight:normal;font-stretch:normal;font-size:5.3333334923px;line-height:20px;font-family:Verdana;-inkscape-font-specification:Verdana;font-variant-ligatures:normal;font-variant-position:normal;font-variant-caps:normal;font-variant-numeric:normal;font-variant-alternates:normal;font-feature-settings:normal;text-indent:0;text-align:center;text-decoration:none;text-decoration-line:none;text-decoration-style:solid;text-decoration-color:#000000;letter-spacing:0px;word-spacing:0px;text-transform:none;writing-mode:lr-tb;direction:ltr;text-orientation:mixed;dominant-baseline:auto;baseline-shift:baseline;text-anchor:middle;white-space:normal;shape-padding:0;opacity:1;vector-effect:none;fill:#000000;fill-opacity:1;stroke:none;stroke-width:1px;stroke-linecap:butt;stroke-linejoin:miter;stroke-miterlimit:4;stroke-dasharray:none;stroke-dashoffset:0;stroke-opacity:1"
       x="267.6497497559"
       y="859.4583740234"
       id="text4572-3-6-3-4-2"
       inkscape:export-xdpi="253.8950042725"
       inkscape:export-ydpi="253.8950042725"><tspan
         sodipodi:role="line"
         id="tspan4570-5-2-8-3-8"
         x="267.6497497559"
         y="859.4583740234">True</tspan></text>
    <path
       sodipodi:nodetypes="cc"
       inkscape:connector-curvature="0"
       id="path4557-0-7-7-8-8-9"
       d="m 170,842.5196216012 130,3.17191e-5"
       style="color:#000000;clip-rule:nonzero;display:inline;overflow:visible;visibility:visible;opacity:1;isolation:auto;mix-blend-mode:normal;color-interpolation:sRGB;color-interpolation-filters:linearRGB;solid-color:#000000;solid-opacity:1;vector-effect:none;fill:#000000;fill-opacity:1;fill-rule:nonzero;stroke:#5f8dd3;stroke-width:1px;stroke-linecap:round;stroke-linejoin:round;stroke-miterlimit:4;stroke-dasharray:none;stroke-dashoffset:0;stroke-opacity:1;marker:none;color-rendering:auto;image-rendering:auto;shape-rendering:auto;text-rendering:auto;enable-background:accumulate" />
    <text
       xml:space="preserve"
       style="font-style:normal;font-variant:normal;font-weight:normal;font-stretch:normal;font-size:5.3333334923px;line-height:20px;font-family:Verdana;-inkscape-font-specification:Verdana;font-variant-ligatures:normal;font-variant-position:normal;font-variant-caps:normal;font-variant-numeric:normal;font-variant-alternates:normal;font-feature-settings:normal;text-indent:0;text-align:center;text-decoration:none;text-decoration-line:none;text-decoration-style:solid;text-decoration-color:#000000;letter-spacing:0px;word-spacing:0px;text-transform:none;writing-mode:lr-tb;direction:ltr;text-orientation:mixed;dominant-baseline:auto;baseline-shift:baseline;text-anchor:middle;white-space:normal;shape-padding:0;opacity:1;vector-effect:none;fill:#000000;fill-opacity:1;stroke:none;stroke-width:1px;stroke-linecap:butt;stroke-linejoin:miter;stroke-miterlimit:4;stroke-dasharray:none;stroke-dashoffset:0;stroke-opacity:1"
       x="234.8802032471"
       y="849.4583740234"
       id="text4572-3-69-8-3"
       inkscape:export-xdpi="253.8950042725"
       inkscape:export-ydpi="253.8950042725"><tspan
         sodipodi:role="line"
         id="tspan4570-5-3-1-6"
         x="234.8802032471"
         y="849.4583740234">Explementary angle</tspan></text>
  </g>
</svg>
