<?xml version="1.0" encoding="UTF-8" standalone="no"?>
<!-- Created with Inkscape (http://www.inkscape.org/) -->

<svg
   xmlns:ns0="http://www.iki.fi/pav/software/textext/"
   xmlns:dc="http://purl.org/dc/elements/1.1/"
   xmlns:cc="http://creativecommons.org/ns#"
   xmlns:rdf="http://www.w3.org/1999/02/22-rdf-syntax-ns#"
   xmlns:svg="http://www.w3.org/2000/svg"
   xmlns="http://www.w3.org/2000/svg"
   xmlns:sodipodi="http://sodipodi.sourceforge.net/DTD/sodipodi-0.dtd"
   xmlns:inkscape="http://www.inkscape.org/namespaces/inkscape"
   sodipodi:docname="ANOT_scale.svg"
   inkscape:version="0.92.3 (2405546, 2018-03-11)"
   id="svg2"
   version="1.1"
   viewBox="0 0 793.7008056641 1122.51965332"
   height="297mm"
   width="210mm">
  <sodipodi:namedview
     inkscape:current-layer="svg2"
     inkscape:window-maximized="1"
     inkscape:window-y="0"
     inkscape:window-x="0"
     inkscape:cy="704.5784259512"
     inkscape:cx="427.327767327"
     inkscape:zoom="4.421661346426"
     showgrid="true"
     id="namedview4"
     inkscape:window-height="1056"
     inkscape:window-width="1920"
     inkscape:pageshadow="2"
     inkscape:pageopacity="0"
     guidetolerance="10"
     gridtolerance="10"
     objecttolerance="10"
     borderopacity="1"
     bordercolor="#666666"
     pagecolor="#ffffff">
    <inkscape:grid
       id="grid815"
       type="xygrid" />
  </sodipodi:namedview>
  <metadata
     id="metadata8">
    <rdf:RDF>
      <cc:Work
         rdf:about="">
        <dc:format>image/svg+xml</dc:format>
        <dc:type
           rdf:resource="http://purl.org/dc/dcmitype/StillImage" />
        <dc:title />
      </cc:Work>
    </rdf:RDF>
  </metadata>
  <defs
     id="defs6">
    <marker
       id="AnnArrow_Start-5"
       orient="auto"
       refX="0"
       refY="0"
       style="overflow:visible"
       inkscape:stockid="AnnArrow_Start">
      <path
         d="M 0,0 5,-5 -12.5,0 5,5 Z"
         style="fill:#ff0000;fill-rule:evenodd;stroke:none;stroke-width:1"
         transform="matrix(0.3,0,0,0.3,1.2,0)"
         id="path1028-3"
         inkscape:connector-curvature="0" />
    </marker>
    <marker
       inkscape:stockid="AnnArrow_Start"
       style="overflow:visible"
       refY="0"
       refX="0"
       orient="auto"
       id="AnnArrow_Start-3">
      <path
         inkscape:connector-curvature="0"
         id="path6145-6"
         transform="matrix(0.3,0,0,0.3,1.2,0)"
         style="fill:#ff0000;fill-rule:evenodd;stroke:none;stroke-width:1"
         d="M 0,0 5,-5 -12.5,0 5,5 Z" />
    </marker>
    <marker
       inkscape:stockid="AnnArrow_Start"
       style="overflow:visible"
       refY="0"
       refX="0"
       orient="auto"
       id="AnnArrow_Start-3-9">
      <path
         inkscape:connector-curvature="0"
         id="path6145-6-1"
         transform="matrix(0.3,0,0,0.3,1.2,0)"
         style="fill:#ff0000;fill-rule:evenodd;stroke:none;stroke-width:1"
         d="M 0,0 5,-5 -12.5,0 5,5 Z" />
    </marker>
    <marker
       inkscape:stockid="AnnArrow_Start"
       style="overflow:visible"
       refY="0"
       refX="0"
       orient="auto"
       id="AnnArrow_Start-3-7">
      <path
         inkscape:connector-curvature="0"
         id="path6145-6-0"
         transform="matrix(0.3,0,0,0.3,1.2,0)"
         style="fill:#ff0000;fill-rule:evenodd;stroke:none;stroke-width:1"
         d="M 0,0 5,-5 -12.5,0 5,5 Z" />
    </marker>
    <marker
       inkscape:stockid="AnnArrow_Start"
       style="overflow:visible"
       refY="0"
       refX="0"
       orient="auto"
       id="AnnArrow_Start-3-7-3">
      <path
         inkscape:connector-curvature="0"
         id="path6145-6-0-6"
         transform="matrix(0.3,0,0,0.3,1.2,0)"
         style="fill:#ff0000;fill-rule:evenodd;stroke:none;stroke-width:1"
         d="M 0,0 5,-5 -12.5,0 5,5 Z" />
    </marker>
    <marker
       inkscape:stockid="AnnArrow_Start"
       style="overflow:visible"
       refY="0"
       refX="0"
       orient="auto"
       id="AnnArrow_Start-3-7-6">
      <path
         inkscape:connector-curvature="0"
         id="path6145-6-0-2"
         transform="matrix(0.3,0,0,0.3,1.2,0)"
         style="fill:#ff0000;fill-rule:evenodd;stroke:none;stroke-width:1"
         d="M 0,0 5,-5 -12.5,0 5,5 Z" />
    </marker>
    <marker
       inkscape:stockid="AnnArrow_Start"
       style="overflow:visible"
       refY="0"
       refX="0"
       orient="auto"
       id="AnnArrow_Start-3-7-1">
      <path
         inkscape:connector-curvature="0"
         id="path6145-6-0-8"
         transform="matrix(0.3,0,0,0.3,1.2,0)"
         style="fill:#ff0000;fill-rule:evenodd;stroke:none;stroke-width:1"
         d="M 0,0 5,-5 -12.5,0 5,5 Z" />
    </marker>
    <marker
       inkscape:stockid="AnnArrow_Start"
       style="overflow:visible"
       refY="0"
       refX="0"
       orient="auto"
       id="AnnArrow_Start-3-7-9">
      <path
         inkscape:connector-curvature="0"
         id="path6145-6-0-20"
         transform="matrix(0.3,0,0,0.3,1.2,0)"
         style="fill:#ff0000;fill-rule:evenodd;stroke:none;stroke-width:1"
         d="M 0,0 5,-5 -12.5,0 5,5 Z" />
    </marker>
    <marker
       inkscape:stockid="AnnArrow_Start"
       style="overflow:visible"
       refY="0"
       refX="0"
       orient="auto"
       id="AnnArrow_Start-3-7-37">
      <path
         inkscape:connector-curvature="0"
         id="path6145-6-0-5"
         transform="matrix(0.3,0,0,0.3,1.2,0)"
         style="fill:#ff0000;fill-rule:evenodd;stroke:none;stroke-width:1"
         d="M 0,0 5,-5 -12.5,0 5,5 Z" />
    </marker>
    <marker
       inkscape:stockid="AnnArrow_Start"
       style="overflow:visible"
       refY="0"
       refX="0"
       orient="auto"
       id="AnnArrow_Start-3-7-2">
      <path
         inkscape:connector-curvature="0"
         id="path6145-6-0-28"
         transform="matrix(0.3,0,0,0.3,1.2,0)"
         style="fill:#ff0000;fill-rule:evenodd;stroke:none;stroke-width:1"
         d="M 0,0 5,-5 -12.5,0 5,5 Z" />
    </marker>
    <marker
       inkscape:stockid="AnnArrow_Start"
       style="overflow:visible"
       refY="0"
       refX="0"
       orient="auto"
       id="AnnArrow_Start-3-7-36">
      <path
         inkscape:connector-curvature="0"
         id="path6145-6-0-1"
         transform="matrix(0.3,0,0,0.3,1.2,0)"
         style="fill:#ff0000;fill-rule:evenodd;stroke:none;stroke-width:1"
         d="M 0,0 5,-5 -12.5,0 5,5 Z" />
    </marker>
    <marker
       inkscape:stockid="AnnArrow_Start"
       style="overflow:visible"
       refY="0"
       refX="0"
       orient="auto"
       id="AnnArrow_Start-3-7-9-3">
      <path
         inkscape:connector-curvature="0"
         id="path6145-6-0-20-1"
         transform="matrix(0.3,0,0,0.3,1.2,0)"
         style="fill:#ff0000;fill-rule:evenodd;stroke:none;stroke-width:1"
         d="M 0,0 5,-5 -12.5,0 5,5 Z" />
    </marker>
    <marker
       inkscape:stockid="AnnArrow_Start"
       style="overflow:visible"
       refY="0"
       refX="0"
       orient="auto"
       id="AnnArrow_Start-3-7-94">
      <path
         inkscape:connector-curvature="0"
         id="path6145-6-0-7"
         transform="matrix(0.3,0,0,0.3,1.2,0)"
         style="fill:#ff0000;fill-rule:evenodd;stroke:none;stroke-width:1"
         d="M 0,0 5,-5 -12.5,0 5,5 Z" />
    </marker>
    <marker
       inkscape:stockid="DimmArrow_Start"
       style="overflow:visible"
       refY="0.0"
       refX="0.0"
       orient="auto"
       id="DimmArrow_Start">
      <path
         id="path9479"
         transform="scale (2.5)rotate(180)translate (4.0,0)"
         style="stroke-width:1.0;stroke:none;fill:#FF0000;fill-rule:evenodd"
         d="M 0.0,0.0 L -4.000000,0.705308 L -4.000000,-0.705308 L 0.0,0.0 z " />
    </marker>
    <marker
       inkscape:stockid="DimmArrow_End"
       style="overflow:visible"
       refY="0.0"
       refX="0.0"
       orient="auto"
       id="DimmArrow_End">
      <path
         id="path9482"
         transform="scale (2.5)translate (4.0,0)"
         style="stroke-width:1.0;stroke:none;fill:#FF0000;fill-rule:evenodd"
         d="M 0.0,0.0 L -4.000000,0.705308 L -4.000000,-0.705308 L 0.0,0.0 z " />
    </marker>
    <marker
       inkscape:stockid="AnnArrow_Start"
       style="overflow:visible"
       refY="0.0"
       refX="0.0"
       orient="auto"
       id="AnnArrow_Start">
      <path
         id="path9485"
         transform="translate (1.2,0)scale (0.300000)"
         style="stroke-width:1.0;stroke:none;fill:#FF0000;fill-rule:evenodd"
         d="M 0.0,0.0 L 5.0,-5.0 L -12.5,0.0 L 5.0,5.0 L 0.0,0.0 z" />
    </marker>
  </defs>
  <g
     id="g982"
     inkscape:label="annotation">
    <path
       sodipodi:nodetypes="ccc"
       inkscape:connector-curvature="0"
       id="path941"
       inkscape:label="dim"
       style="fill:none;stroke:#ff0000;stroke-width:0.400000006;stroke-linecap:round;stroke-linejoin:round;stroke-dasharray:none;marker-start:url(#AnnArrow_Start)"
       d="m 355,412.519685039 15,-10 45,-3.17187e-5" />
    <g
       transform="translate(370.000000 401.186352) translate(-132.420124 282.260366) scale(0.591716 -0.591716)  "
       ns0:preamble="/home/fernando/.config/inkscape/extensions/textextLib/basicLatexPackages.tex"
       ns0:text=" This is scale is 1.0 "
       text-anchor="start"
       word-spacing="normal"
       letter-spacing="normal"
       font-size-adjust="none"
       font-stretch="normal"
       font-weight="normal"
       font-variant="normal"
       font-style="normal"
       fill-opacity="1"
       fill-rule="evenodd"
       fill="none"
       stroke-opacity="1"
       stroke-dashoffset="0"
       stroke-dasharray="none"
       stroke-miterlimit="10.433"
       stroke-linejoin="miter"
       stroke-linecap="butt"
       stroke="black"
       xml:space="preserve"
       id="content">
<path
   id="path943"
   style="fill:#000000;stroke-width:0"
   fill="black"
   stroke-width="0"
   d="M230.07,483.96 H223.98 L223.79,481.73 H224.04 C224.18,483.32,224.33,483.65,225.84,483.65 C226.01,483.65,226.27,483.65,226.37,483.63 C226.58,483.59,226.58,483.48,226.58,483.26 V478.02 C226.58,477.68,226.58,477.54,225.54,477.54 H225.14 V477.23 C225.55,477.27,226.56,477.27,227.02,477.27 C227.48,477.27,228.51,477.27,228.92,477.23 V477.54 H228.52 C227.47,477.54,227.47,477.68,227.47,478.02 V483.26 C227.47,483.45,227.47,483.59,227.65,483.63 C227.76,483.65,228.03,483.65,228.22,483.65 C229.72,483.65,229.87,483.32,230.01,481.73 H230.26 Z " />
<path
   id="path945"
   style="fill:#000000;stroke-width:0"
   fill="black"
   stroke-width="0"
   d="M231.72,477.99 L231.72,477.97 L231.72,477.95 L231.72,477.91 L231.72,477.88 L231.72,477.84 L231.71,477.81 L231.71,477.78 L231.7,477.76 L231.7,477.73 L231.69,477.71 L231.68,477.69 L231.67,477.67 L231.65,477.65 L231.64,477.64 L231.62,477.62 L231.61,477.61 L231.59,477.6 L231.56,477.59 L231.54,477.58 L231.51,477.57 L231.49,477.57 L231.46,477.56 L231.42,477.56 L231.39,477.55 L231.37,477.55 L231.35,477.55 L231.33,477.55 L231.31,477.55 L231.29,477.55 L231.27,477.55 L231.24,477.55 L231.22,477.54 L231.2,477.54 L231.17,477.54 L231.15,477.54 L231.12,477.54 L231.09,477.54 L231.06,477.54 L231.04,477.54 L231.01,477.54 L230.98,477.54 L230.95,477.54 V477.23 C231.29,477.24,231.8,477.27,232.07,477.27 C232.33,477.27,232.85,477.24,233.19,477.23 V477.54 C232.52,477.54,232.41,477.54,232.41,477.99 V479.82 C232.41,480.85,233.12,481.41,233.76,481.41 C234.39,481.41,234.5,480.87,234.5,480.3 V477.99 C234.5,477.54,234.39,477.54,233.72,477.54 V477.23 C234.07,477.24,234.58,477.27,234.85,477.27 C235.1,477.27,235.62,477.24,235.96,477.23 V477.54 C235.44,477.54,235.19,477.54,235.18,477.84 V479.74 C235.18,480.59,235.18,480.9,234.88,481.26 C234.74,481.43,234.41,481.63,233.83,481.63 C232.99,481.63,232.55,481.03,232.38,480.65 V484.13 L230.95,484.02 V483.71 C231.64,483.71,231.72,483.64,231.72,483.16 Z " />
<path
   id="path947"
   style="fill:#000000;stroke-width:0"
   fill="black"
   stroke-width="0"
   d="M237.93,481.63 L236.53,481.52 V481.21 C237.18,481.21,237.27,481.15,237.27,480.66 V477.99 C237.27,477.54,237.16,477.54,236.49,477.54 V477.23 C236.81,477.24,237.35,477.27,237.59,477.27 C237.94,477.27,238.29,477.24,238.62,477.23 V477.54 C237.97,477.54,237.93,477.59,237.93,477.98 Z " />
<path
   id="path949"
   style="fill:#000000;stroke-width:0"
   fill="black"
   stroke-width="0"
   d="M237.97,483.35 L237.97,483.38 L237.96,483.41 L237.96,483.44 L237.96,483.47 L237.95,483.49 L237.94,483.52 L237.93,483.55 L237.92,483.57 L237.91,483.59 L237.9,483.62 L237.89,483.64 L237.87,483.66 L237.86,483.68 L237.84,483.7 L237.83,483.72 L237.81,483.74 L237.79,483.75 L237.77,483.77 L237.75,483.78 L237.73,483.8 L237.71,483.81 L237.69,483.82 L237.66,483.83 L237.64,483.84 L237.62,483.85 L237.59,483.86 L237.57,483.87 L237.54,483.87 L237.52,483.88 L237.49,483.88 L237.47,483.88 L237.44,483.88 C237.13,483.88,236.91,483.61,236.91,483.35 C236.91,483.09,237.13,482.83,237.44,482.83 C237.72,482.83,237.97,483.04,237.97,483.35 Z " />
<path
   id="path951"
   style="fill:#000000;stroke-width:0"
   fill="black"
   stroke-width="0"
   d="M241,479.16 L241.03,479.16 L241.05,479.15 L241.08,479.15 L241.11,479.14 L241.15,479.13 L241.18,479.12 L241.22,479.11 L241.26,479.1 L241.3,479.09 L241.34,479.08 L241.38,479.06 L241.43,479.04 L241.47,479.03 L241.52,479 L241.56,478.98 L241.6,478.96 L241.65,478.93 L241.69,478.9 L241.73,478.87 L241.77,478.84 L241.81,478.81 L241.84,478.77 L241.88,478.73 L241.91,478.69 L241.94,478.64 L241.95,478.62 L241.96,478.59 L241.98,478.57 L241.99,478.54 L242,478.52 L242.01,478.49 L242.01,478.46 L242.02,478.44 L242.03,478.41 L242.03,478.38 L242.04,478.35 L242.04,478.31 L242.04,478.28 L242.04,478.25 C242.04,477.74,241.69,477.34,240.91,477.34 C240.08,477.34,239.72,477.91,239.53,478.76 C239.5,478.88,239.49,478.92,239.39,478.92 C239.26,478.92,239.26,478.85,239.26,478.67 V477.36 C239.26,477.2,239.26,477.13,239.37,477.13 C239.42,477.13,239.43,477.14,239.62,477.32 C239.64,477.34,239.64,477.36,239.82,477.55 C240.26,477.14,240.71,477.13,240.91,477.13 C242.06,477.13,242.52,477.79,242.52,478.51 C242.52,479.03,242.22,479.33,242.1,479.45 C241.77,479.77,241.38,479.85,240.96,479.93 C240.41,480.04,239.74,480.17,239.74,480.74 C239.74,481.09,240,481.5,240.85,481.5 C241.95,481.5,242,480.6,242.02,480.3 C242.03,480.2,242.12,480.2,242.14,480.2 C242.27,480.2,242.27,480.26,242.27,480.44 V481.45 C242.27,481.62,242.27,481.68,242.16,481.68 C242.11,481.68,242.09,481.68,241.96,481.57 C241.93,481.53,241.83,481.44,241.79,481.41 C241.41,481.68,241,481.68,240.85,481.68 C239.64,481.68,239.26,481.02,239.26,480.46 C239.26,480.12,239.42,479.84,239.69,479.62 C240.01,479.36,240.29,479.3,241,479.16 Z " />
<path
   id="path953"
   style="fill:#000000;stroke-width:0"
   fill="black"
   stroke-width="0"
   d="M247.94,481.63 L246.55,481.52 V481.21 C247.19,481.21,247.28,481.15,247.28,480.66 V477.99 C247.28,477.54,247.17,477.54,246.51,477.54 V477.23 C246.82,477.24,247.36,477.27,247.6,477.27 C247.95,477.27,248.3,477.24,248.64,477.23 V477.54 C247.98,477.54,247.94,477.59,247.94,477.98 Z " />
<path
   id="path955"
   style="fill:#000000;stroke-width:0"
   fill="black"
   stroke-width="0"
   d="M247.98,483.35 L247.98,483.38 L247.98,483.41 L247.97,483.44 L247.97,483.47 L247.96,483.49 L247.96,483.52 L247.95,483.55 L247.94,483.57 L247.93,483.59 L247.91,483.62 L247.9,483.64 L247.89,483.66 L247.87,483.68 L247.86,483.7 L247.84,483.72 L247.82,483.74 L247.8,483.75 L247.78,483.77 L247.76,483.78 L247.74,483.8 L247.72,483.81 L247.7,483.82 L247.68,483.83 L247.65,483.84 L247.63,483.85 L247.61,483.86 L247.58,483.87 L247.56,483.87 L247.53,483.88 L247.5,483.88 L247.48,483.88 L247.45,483.88 C247.14,483.88,246.92,483.61,246.92,483.35 C246.92,483.09,247.14,482.83,247.45,482.83 C247.73,482.83,247.98,483.04,247.98,483.35 Z " />
<path
   id="path957"
   style="fill:#000000;stroke-width:0"
   fill="black"
   stroke-width="0"
   d="M251.02,479.16 L251.04,479.16 L251.07,479.15 L251.09,479.15 L251.13,479.14 L251.16,479.13 L251.2,479.12 L251.23,479.11 L251.27,479.1 L251.31,479.09 L251.36,479.08 L251.4,479.06 L251.44,479.04 L251.49,479.03 L251.53,479 L251.58,478.98 L251.62,478.96 L251.66,478.93 L251.7,478.9 L251.75,478.87 L251.78,478.84 L251.82,478.81 L251.86,478.77 L251.89,478.73 L251.92,478.69 L251.95,478.64 L251.97,478.62 L251.98,478.59 L251.99,478.57 L252,478.54 L252.01,478.52 L252.02,478.49 L252.03,478.46 L252.03,478.44 L252.04,478.41 L252.05,478.38 L252.05,478.35 L252.05,478.31 L252.05,478.28 L252.05,478.25 C252.05,477.74,251.71,477.34,250.93,477.34 C250.09,477.34,249.73,477.91,249.54,478.76 C249.51,478.88,249.5,478.92,249.4,478.92 C249.27,478.92,249.27,478.85,249.27,478.67 V477.36 C249.27,477.2,249.27,477.13,249.38,477.13 C249.43,477.13,249.44,477.14,249.63,477.32 C249.65,477.34,249.65,477.36,249.83,477.55 C250.27,477.14,250.72,477.13,250.93,477.13 C252.07,477.13,252.53,477.79,252.53,478.51 C252.53,479.03,252.24,479.33,252.12,479.45 C251.79,479.77,251.4,479.85,250.98,479.93 C250.42,480.04,249.75,480.17,249.75,480.74 C249.75,481.09,250.01,481.5,250.87,481.5 C251.97,481.5,252.02,480.6,252.04,480.3 C252.05,480.2,252.13,480.2,252.15,480.2 C252.29,480.2,252.29,480.26,252.29,480.44 V481.45 C252.29,481.62,252.29,481.68,252.18,481.68 C252.12,481.68,252.1,481.68,251.98,481.57 C251.95,481.53,251.85,481.44,251.81,481.41 C251.43,481.68,251.02,481.68,250.87,481.68 C249.65,481.68,249.27,481.02,249.27,480.46 C249.27,480.12,249.43,479.84,249.7,479.62 C250.02,479.36,250.3,479.3,251.02,479.16 Z " />
<path
   id="path959"
   style="fill:#000000;stroke-width:0"
   fill="black"
   stroke-width="0"
   d="M258.27,479.16 L258.3,479.16 L258.32,479.15 L258.35,479.15 L258.38,479.14 L258.42,479.13 L258.45,479.12 L258.49,479.11 L258.53,479.1 L258.57,479.09 L258.61,479.08 L258.66,479.06 L258.7,479.04 L258.74,479.03 L258.79,479 L258.83,478.98 L258.88,478.96 L258.92,478.93 L258.96,478.9 L259,478.87 L259.04,478.84 L259.08,478.81 L259.12,478.77 L259.15,478.73 L259.18,478.69 L259.21,478.64 L259.22,478.62 L259.24,478.59 L259.25,478.57 L259.26,478.54 L259.27,478.52 L259.28,478.49 L259.28,478.46 L259.29,478.44 L259.3,478.41 L259.3,478.38 L259.31,478.35 L259.31,478.31 L259.31,478.28 L259.31,478.25 C259.31,477.74,258.96,477.34,258.18,477.34 C257.35,477.34,256.99,477.91,256.8,478.76 C256.77,478.88,256.76,478.92,256.66,478.92 C256.53,478.92,256.53,478.85,256.53,478.67 V477.36 C256.53,477.2,256.53,477.13,256.64,477.13 C256.69,477.13,256.7,477.14,256.89,477.32 C256.91,477.34,256.91,477.36,257.09,477.55 C257.53,477.14,257.98,477.13,258.18,477.13 C259.33,477.13,259.79,477.79,259.79,478.51 C259.79,479.03,259.49,479.33,259.37,479.45 C259.04,479.77,258.65,479.85,258.23,479.93 C257.68,480.04,257.01,480.17,257.01,480.74 C257.01,481.09,257.27,481.5,258.12,481.5 C259.22,481.5,259.27,480.6,259.29,480.3 C259.3,480.2,259.39,480.2,259.41,480.2 C259.54,480.2,259.54,480.26,259.54,480.44 V481.45 C259.54,481.62,259.54,481.68,259.43,481.68 C259.38,481.68,259.36,481.68,259.23,481.57 C259.2,481.53,259.1,481.44,259.06,481.41 C258.68,481.68,258.27,481.68,258.12,481.68 C256.91,481.68,256.53,481.02,256.53,480.46 C256.53,480.12,256.69,479.84,256.96,479.62 C257.28,479.36,257.56,479.3,258.27,479.16 Z " />
<path
   id="path961"
   style="fill:#000000;stroke-width:0"
   fill="black"
   stroke-width="0"
   d="M261.3,479.4 L261.3,479.48 L261.3,479.55 L261.3,479.62 L261.31,479.69 L261.31,479.76 L261.32,479.83 L261.32,479.89 L261.33,479.95 L261.34,480.01 L261.35,480.07 L261.36,480.13 L261.38,480.19 L261.4,480.3 L261.43,480.4 L261.47,480.5 L261.5,480.59 L261.54,480.68 L261.58,480.76 L261.63,480.83 L261.67,480.9 L261.72,480.97 L261.77,481.03 L261.82,481.08 L261.88,481.13 L261.93,481.18 L261.99,481.22 L262.04,481.26 L262.1,481.29 L262.15,481.32 L262.21,481.35 L262.27,481.37 L262.32,481.39 L262.38,481.4 L262.43,481.42 L262.49,481.43 L262.54,481.43 L262.59,481.44 L262.64,481.44 C262.73,481.44,263.36,481.43,263.71,481.07 C263.3,481.04,263.24,480.74,263.24,480.61 C263.24,480.35,263.42,480.16,263.7,480.16 C263.96,480.16,264.16,480.32,264.16,480.62 C264.16,481.3,263.4,481.68,262.63,481.68 C261.39,481.68,260.47,480.61,260.47,479.38 C260.47,478.11,261.46,477.13,262.61,477.13 C263.95,477.13,264.27,478.32,264.27,478.42 C264.27,478.52,264.17,478.52,264.14,478.52 C264.05,478.52,264.03,478.48,264.01,478.42 C263.72,477.49,263.07,477.37,262.7,477.37 C262.17,477.37,261.3,477.8,261.3,479.4 Z " />
<path
   id="path963"
   style="fill:#000000;stroke-width:0"
   fill="black"
   stroke-width="0"
   d="M267.88,477.99 L267.88,477.95 L267.89,477.92 L267.9,477.88 L267.9,477.84 L267.91,477.8 L267.92,477.77 L267.94,477.73 L267.95,477.7 L267.97,477.66 L267.98,477.63 L268,477.59 L268.02,477.56 L268.04,477.53 L268.06,477.49 L268.08,477.46 L268.11,477.43 L268.13,477.41 L268.16,477.38 L268.19,477.35 L268.21,477.33 L268.24,477.31 L268.28,477.28 L268.31,477.26 L268.34,477.25 L268.38,477.23 L268.41,477.22 L268.45,477.2 L268.49,477.19 L268.53,477.19 L268.57,477.18 L268.61,477.18 L268.66,477.17 C268.86,477.17,269.47,477.31,269.47,478.12 V478.67 H269.22 V478.12 C269.22,477.54,268.98,477.48,268.86,477.48 C268.54,477.48,268.5,477.93,268.5,477.98 V479.97 C268.5,480.38,268.5,480.77,268.14,481.14 C267.75,481.53,267.25,481.68,266.77,481.68 C265.95,481.68,265.27,481.22,265.27,480.56 C265.27,480.27,265.46,480.1,265.72,480.1 C266,480.1,266.18,480.3,266.18,480.55 C266.18,480.67,266.13,481,265.67,481.01 C265.94,481.36,266.43,481.47,266.75,481.47 C267.24,481.47,267.81,481.08,267.81,480.2 V479.83 V479.62 V478.63 C267.81,477.68,267.09,477.34,266.64,477.34 C266.15,477.34,265.74,477.69,265.74,478.19 C265.74,478.73,266.16,479.56,267.81,479.62 H267.81 V479.83 C267.3,479.8,266.6,479.77,265.97,479.47 C265.23,479.13,264.98,478.62,264.98,478.18 C264.98,477.37,265.94,477.13,266.57,477.13 C267.23,477.13,267.69,477.52,267.88,477.99 Z " />
<path
   id="path965"
   style="fill:#000000;stroke-width:0"
   fill="black"
   stroke-width="0"
   d="M271.3,484.13 L269.87,484.02 V483.71 C270.57,483.71,270.65,483.64,270.65,483.16 V477.99 C270.65,477.54,270.54,477.54,269.87,477.54 V477.23 C270.2,477.24,270.73,477.27,270.98,477.27 C271.22,477.27,271.71,477.24,272.08,477.23 V477.54 C271.41,477.54,271.3,477.54,271.3,477.99 Z " />
<path
   id="path967"
   style="fill:#000000;stroke-width:0"
   fill="black"
   stroke-width="0"
   d="M273.41,479.53 L273.42,479.74 C273.48,481.22,274.32,481.47,274.66,481.47 C275.69,481.47,275.79,480.13,275.79,479.74 H273.42 L273.41,479.53 H276.2 C276.42,479.53,276.45,479.53,276.45,479.74 C276.45,480.72,275.91,481.68,274.66,481.68 C273.5,481.68,272.59,480.66,272.59,479.42 C272.59,478.09,273.63,477.13,274.78,477.13 C276,477.13,276.45,478.23,276.45,478.42 C276.45,478.52,276.36,478.54,276.32,478.54 C276.23,478.54,276.2,478.48,276.19,478.4 C275.84,477.37,274.94,477.37,274.84,477.37 C274.34,477.37,273.94,477.67,273.71,478.04 C273.41,478.52,273.41,479.17,273.41,479.53 Z " />
<path
   id="path969"
   style="fill:#000000;stroke-width:0"
   fill="black"
   stroke-width="0"
   d="M281.82,481.63 L280.42,481.52 V481.21 C281.07,481.21,281.16,481.15,281.16,480.66 V477.99 C281.16,477.54,281.05,477.54,280.38,477.54 V477.23 C280.7,477.24,281.24,477.27,281.48,477.27 C281.83,477.27,282.17,477.24,282.51,477.23 V477.54 C281.86,477.54,281.82,477.59,281.82,477.98 Z " />
<path
   id="path971"
   style="fill:#000000;stroke-width:0"
   fill="black"
   stroke-width="0"
   d="M281.86,483.35 L281.86,483.38 L281.85,483.41 L281.85,483.44 L281.84,483.47 L281.84,483.49 L281.83,483.52 L281.82,483.55 L281.81,483.57 L281.8,483.59 L281.79,483.62 L281.78,483.64 L281.76,483.66 L281.75,483.68 L281.73,483.7 L281.71,483.72 L281.7,483.74 L281.68,483.75 L281.66,483.77 L281.64,483.78 L281.62,483.8 L281.6,483.81 L281.57,483.82 L281.55,483.83 L281.53,483.84 L281.5,483.85 L281.48,483.86 L281.46,483.87 L281.43,483.87 L281.41,483.88 L281.38,483.88 L281.35,483.88 L281.33,483.88 C281.02,483.88,280.8,483.61,280.8,483.35 C280.8,483.09,281.02,482.83,281.33,482.83 C281.61,482.83,281.86,483.04,281.86,483.35 Z " />
<path
   id="path973"
   style="fill:#000000;stroke-width:0"
   fill="black"
   stroke-width="0"
   d="M284.89,479.16 L284.92,479.16 L284.94,479.15 L284.97,479.15 L285,479.14 L285.03,479.13 L285.07,479.12 L285.11,479.11 L285.15,479.1 L285.19,479.09 L285.23,479.08 L285.27,479.06 L285.32,479.04 L285.36,479.03 L285.41,479 L285.45,478.98 L285.49,478.96 L285.54,478.93 L285.58,478.9 L285.62,478.87 L285.66,478.84 L285.7,478.81 L285.73,478.77 L285.77,478.73 L285.8,478.69 L285.83,478.64 L285.84,478.62 L285.85,478.59 L285.86,478.57 L285.88,478.54 L285.89,478.52 L285.89,478.49 L285.9,478.46 L285.91,478.44 L285.92,478.41 L285.92,478.38 L285.92,478.35 L285.93,478.31 L285.93,478.28 L285.93,478.25 C285.93,477.74,285.58,477.34,284.8,477.34 C283.97,477.34,283.61,477.91,283.42,478.76 C283.39,478.88,283.38,478.92,283.28,478.92 C283.15,478.92,283.15,478.85,283.15,478.67 V477.36 C283.15,477.2,283.15,477.13,283.26,477.13 C283.31,477.13,283.32,477.14,283.51,477.32 C283.53,477.34,283.53,477.36,283.71,477.55 C284.14,477.14,284.59,477.13,284.8,477.13 C285.95,477.13,286.41,477.79,286.41,478.51 C286.41,479.03,286.11,479.33,285.99,479.45 C285.66,479.77,285.27,479.85,284.85,479.93 C284.3,480.04,283.63,480.17,283.63,480.74 C283.63,481.09,283.89,481.5,284.74,481.5 C285.84,481.5,285.89,480.6,285.91,480.3 C285.92,480.2,286.01,480.2,286.03,480.2 C286.16,480.2,286.16,480.26,286.16,480.44 V481.45 C286.16,481.62,286.16,481.68,286.05,481.68 C286,481.68,285.98,481.68,285.85,481.57 C285.82,481.53,285.72,481.44,285.68,481.41 C285.3,481.68,284.89,481.68,284.74,481.68 C283.53,481.68,283.15,481.02,283.15,480.46 C283.15,480.12,283.31,479.84,283.58,479.62 C283.9,479.36,284.17,479.3,284.89,479.16 Z " />
<path
   id="path975"
   style="fill:#000000;stroke-width:0"
   fill="black"
   stroke-width="0"
   d="M293.01,483.59 L293.01,483.6 L293.01,483.61 L293.01,483.63 L293.01,483.64 L293.01,483.64 L293.01,483.65 L293.01,483.66 L293.01,483.67 L293.01,483.68 L293.01,483.69 L293.01,483.7 L293.01,483.71 L293.01,483.71 L293,483.72 L293,483.73 L293,483.73 L293,483.74 L293,483.75 L293,483.76 L293,483.77 L292.99,483.78 L292.99,483.79 L292.99,483.8 L292.98,483.8 L292.98,483.81 L292.97,483.82 L292.97,483.82 L292.96,483.83 L292.95,483.83 L292.94,483.84 L292.94,483.84 L292.93,483.84 L292.93,483.84 L292.92,483.84 L292.92,483.84 L292.91,483.84 L292.9,483.85 L292.9,483.85 L292.89,483.85 L292.88,483.85 L292.88,483.85 L292.87,483.85 L292.86,483.85 L292.85,483.85 L292.85,483.85 L292.84,483.85 L292.83,483.85 L292.82,483.85 L292.81,483.85 L292.8,483.85 L292.79,483.85 L292.78,483.85 C292.16,483.21,291.28,483.21,290.96,483.21 V482.91 C291.16,482.91,291.75,482.91,292.27,483.17 V478.02 C292.27,477.66,292.24,477.54,291.34,477.54 H291.02 V477.23 C291.37,477.27,292.24,477.27,292.64,477.27 C293.04,477.27,293.9,477.27,294.25,477.23 V477.54 H293.93 C293.04,477.54,293.01,477.65,293.01,478.02 Z " />
<path
   id="path977"
   style="fill:#000000;stroke-width:0"
   fill="black"
   stroke-width="0"
   d="M296.97,477.76 L296.97,477.79 L296.97,477.82 L296.97,477.84 L296.96,477.87 L296.96,477.89 L296.95,477.92 L296.94,477.94 L296.93,477.97 L296.92,477.99 L296.91,478.01 L296.89,478.03 L296.88,478.05 L296.87,478.08 L296.85,478.1 L296.83,478.11 L296.82,478.13 L296.8,478.15 L296.78,478.17 L296.76,478.18 L296.74,478.2 L296.72,478.21 L296.69,478.22 L296.67,478.24 L296.65,478.25 L296.62,478.26 L296.6,478.26 L296.57,478.27 L296.55,478.28 L296.52,478.28 L296.5,478.29 L296.47,478.29 L296.44,478.29 C296.15,478.29,295.91,478.05,295.91,477.76 C295.91,477.47,296.15,477.23,296.44,477.23 C296.73,477.23,296.97,477.47,296.97,477.76 Z " />
<path
   id="path979"
   style="fill:#000000;stroke-width:0"
   fill="black"
   stroke-width="0"
   d="M302.41,480.41 L302.41,480.56 L302.41,480.71 L302.41,480.86 L302.4,481.01 L302.39,481.16 L302.38,481.3 L302.36,481.45 L302.34,481.6 L302.32,481.74 L302.29,481.89 L302.26,482.03 L302.22,482.18 L302.18,482.32 L302.13,482.46 L302.07,482.6 L302.04,482.67 L302.01,482.74 C301.55,483.69,300.74,483.85,300.32,483.85 C299.72,483.85,298.99,483.59,298.58,482.67 C298.26,481.98,298.21,481.21,298.21,480.41 C298.21,479.67,298.25,478.77,298.66,478.02 C299.09,477.21,299.82,477.02,300.31,477.02 V477.23 C299.92,477.23,299.33,477.48,299.15,478.44 C299.04,479.03,299.04,479.95,299.04,480.53 C299.04,481.17,299.04,481.82,299.12,482.36 C299.31,483.54,300.06,483.63,300.31,483.63 C300.64,483.63,301.3,483.45,301.48,482.47 C301.58,481.91,301.58,481.16,301.58,480.53 C301.58,479.79,301.58,479.11,301.47,478.48 C301.33,477.53,300.76,477.23,300.31,477.23 H300.31 V477.02 C300.85,477.02,301.6,477.23,302.04,478.17 C302.36,478.85,302.41,479.63,302.41,480.41 Z " />
</g>  </g>
  <g
     transform="translate(10,-5.000031718688)"
     inkscape:label="annotation"
     id="g1098">
    <path
       sodipodi:nodetypes="ccc"
       inkscape:connector-curvature="0"
       d="m 345,447.519685039 15,-10 95,0"
       style="fill:none;stroke:#ff0000;stroke-width:0.8000000119;stroke-linecap:round;stroke-linejoin:round;stroke-dasharray:none;marker-start:url(#AnnArrow_Start)"
       inkscape:label="dim"
       id="path1056" />
    <g
       style="font-style:normal;font-variant:normal;font-weight:normal;font-stretch:normal;letter-spacing:normal;word-spacing:normal;text-anchor:start;fill:none;fill-opacity:1;fill-rule:evenodd;stroke:#000000;stroke-linecap:butt;stroke-linejoin:miter;stroke-miterlimit:10.4329996109;stroke-dasharray:none;stroke-dashoffset:0;stroke-opacity:1"
       id="g1096"
       xml:space="preserve"
       stroke-miterlimit="10.433"
       font-style="normal"
       font-variant="normal"
       font-weight="normal"
       font-stretch="normal"
       font-size-adjust="none"
       letter-spacing="normal"
       word-spacing="normal"
       ns0:text=" This is scale is 2.0"
       ns0:preamble="/home/fernando/.config/inkscape/extensions/textextLib/basicLatexPackages.tex"
       transform="matrix(1.183432,0,0,-1.183432,95.159753,999.373751)">
<path
   inkscape:connector-curvature="0"
   d="m 230.07,483.96 h -6.09 l -0.19,-2.23 h 0.25 c 0.14,1.59 0.29,1.92 1.8,1.92 0.17,0 0.43,0 0.53,-0.02 0.21,-0.04 0.21,-0.15 0.21,-0.37 v -5.24 c 0,-0.34 0,-0.48 -1.04,-0.48 h -0.4 v -0.31 c 0.41,0.04 1.42,0.04 1.88,0.04 0.46,0 1.49,0 1.9,-0.04 v 0.31 h -0.4 c -1.05,0 -1.05,0.14 -1.05,0.48 v 5.24 c 0,0.19 0,0.33 0.18,0.37 0.11,0.02 0.38,0.02 0.57,0.02 1.5,0 1.65,-0.33 1.79,-1.92 h 0.25 z"
   style="fill:#000000;stroke-width:0"
   id="path1058" />
<path
   inkscape:connector-curvature="0"
   d="m 231.72,477.99 v -0.02 -0.02 -0.04 -0.03 -0.04 l -0.01,-0.03 v -0.03 l -0.01,-0.02 v -0.03 l -0.01,-0.02 -0.01,-0.02 -0.01,-0.02 -0.02,-0.02 -0.01,-0.01 -0.02,-0.02 -0.01,-0.01 -0.02,-0.01 -0.03,-0.01 -0.02,-0.01 -0.03,-0.01 h -0.02 l -0.03,-0.01 h -0.04 l -0.03,-0.01 h -0.02 -0.02 -0.02 -0.02 -0.02 -0.02 -0.03 l -0.02,-0.01 h -0.02 -0.03 -0.02 -0.03 -0.03 -0.03 -0.02 -0.03 -0.03 -0.03 v -0.31 c 0.34,0.01 0.85,0.04 1.12,0.04 0.26,0 0.78,-0.03 1.12,-0.04 v 0.31 c -0.67,0 -0.78,0 -0.78,0.45 v 1.83 c 0,1.03 0.71,1.59 1.35,1.59 0.63,0 0.74,-0.54 0.74,-1.11 v -2.31 c 0,-0.45 -0.11,-0.45 -0.78,-0.45 v -0.31 c 0.35,0.01 0.86,0.04 1.13,0.04 0.25,0 0.77,-0.03 1.11,-0.04 v 0.31 c -0.52,0 -0.77,0 -0.78,0.3 v 1.9 c 0,0.85 0,1.16 -0.3,1.52 -0.14,0.17 -0.47,0.37 -1.05,0.37 -0.84,0 -1.28,-0.6 -1.45,-0.98 v 3.48 l -1.43,-0.11 v -0.31 c 0.69,0 0.77,-0.07 0.77,-0.55 z"
   style="fill:#000000;stroke-width:0"
   id="path1060" />
<path
   inkscape:connector-curvature="0"
   d="m 237.93,481.63 -1.4,-0.11 v -0.31 c 0.65,0 0.74,-0.06 0.74,-0.55 v -2.67 c 0,-0.45 -0.11,-0.45 -0.78,-0.45 v -0.31 c 0.32,0.01 0.86,0.04 1.1,0.04 0.35,0 0.7,-0.03 1.03,-0.04 v 0.31 c -0.65,0 -0.69,0.05 -0.69,0.44 z"
   style="fill:#000000;stroke-width:0"
   id="path1062" />
<path
   inkscape:connector-curvature="0"
   d="m 237.97,483.35 v 0.03 l -0.01,0.03 v 0.03 0.03 l -0.01,0.02 -0.01,0.03 -0.01,0.03 -0.01,0.02 -0.01,0.02 -0.01,0.03 -0.01,0.02 -0.02,0.02 -0.01,0.02 -0.02,0.02 -0.01,0.02 -0.02,0.02 -0.02,0.01 -0.02,0.02 -0.02,0.01 -0.02,0.02 -0.02,0.01 -0.02,0.01 -0.03,0.01 -0.02,0.01 -0.02,0.01 -0.03,0.01 -0.02,0.01 h -0.03 l -0.02,0.01 h -0.03 -0.02 -0.03 c -0.31,0 -0.53,-0.27 -0.53,-0.53 0,-0.26 0.22,-0.52 0.53,-0.52 0.28,0 0.53,0.21 0.53,0.52 z"
   style="fill:#000000;stroke-width:0"
   id="path1064" />
<path
   inkscape:connector-curvature="0"
   d="m 241,479.16 h 0.03 l 0.02,-0.01 h 0.03 l 0.03,-0.01 0.04,-0.01 0.03,-0.01 0.04,-0.01 0.04,-0.01 0.04,-0.01 0.04,-0.01 0.04,-0.02 0.05,-0.02 0.04,-0.01 0.05,-0.03 0.04,-0.02 0.04,-0.02 0.05,-0.03 0.04,-0.03 0.04,-0.03 0.04,-0.03 0.04,-0.03 0.03,-0.04 0.04,-0.04 0.03,-0.04 0.03,-0.05 0.01,-0.02 0.01,-0.03 0.02,-0.02 0.01,-0.03 0.01,-0.02 0.01,-0.03 v -0.03 l 0.01,-0.02 0.01,-0.03 v -0.03 l 0.01,-0.03 v -0.04 -0.03 -0.03 c 0,-0.51 -0.35,-0.91 -1.13,-0.91 -0.83,0 -1.19,0.57 -1.38,1.42 -0.03,0.12 -0.04,0.16 -0.14,0.16 -0.13,0 -0.13,-0.07 -0.13,-0.25 v -1.31 c 0,-0.16 0,-0.23 0.11,-0.23 0.05,0 0.06,0.01 0.25,0.19 0.02,0.02 0.02,0.04 0.2,0.23 0.44,-0.41 0.89,-0.42 1.09,-0.42 1.15,0 1.61,0.66 1.61,1.38 0,0.52 -0.3,0.82 -0.42,0.94 -0.33,0.32 -0.72,0.4 -1.14,0.48 -0.55,0.11 -1.22,0.24 -1.22,0.81 0,0.35 0.26,0.76 1.11,0.76 1.1,0 1.15,-0.9 1.17,-1.2 0.01,-0.1 0.1,-0.1 0.12,-0.1 0.13,0 0.13,0.06 0.13,0.24 v 1.01 c 0,0.17 0,0.23 -0.11,0.23 -0.05,0 -0.07,0 -0.2,-0.11 -0.03,-0.04 -0.13,-0.13 -0.17,-0.16 -0.38,0.27 -0.79,0.27 -0.94,0.27 -1.21,0 -1.59,-0.66 -1.59,-1.22 0,-0.34 0.16,-0.62 0.43,-0.84 0.32,-0.26 0.6,-0.32 1.31,-0.46 z"
   style="fill:#000000;stroke-width:0"
   id="path1066" />
<path
   inkscape:connector-curvature="0"
   d="m 247.94,481.63 -1.39,-0.11 v -0.31 c 0.64,0 0.73,-0.06 0.73,-0.55 v -2.67 c 0,-0.45 -0.11,-0.45 -0.77,-0.45 v -0.31 c 0.31,0.01 0.85,0.04 1.09,0.04 0.35,0 0.7,-0.03 1.04,-0.04 v 0.31 c -0.66,0 -0.7,0.05 -0.7,0.44 z"
   style="fill:#000000;stroke-width:0"
   id="path1068" />
<path
   inkscape:connector-curvature="0"
   d="m 247.98,483.35 v 0.03 0.03 l -0.01,0.03 v 0.03 l -0.01,0.02 v 0.03 l -0.01,0.03 -0.01,0.02 -0.01,0.02 -0.02,0.03 -0.01,0.02 -0.01,0.02 -0.02,0.02 -0.01,0.02 -0.02,0.02 -0.02,0.02 -0.02,0.01 -0.02,0.02 -0.02,0.01 -0.02,0.02 -0.02,0.01 -0.02,0.01 -0.02,0.01 -0.03,0.01 -0.02,0.01 -0.02,0.01 -0.03,0.01 h -0.02 l -0.03,0.01 h -0.03 -0.02 -0.03 c -0.31,0 -0.53,-0.27 -0.53,-0.53 0,-0.26 0.22,-0.52 0.53,-0.52 0.28,0 0.53,0.21 0.53,0.52 z"
   style="fill:#000000;stroke-width:0"
   id="path1070" />
<path
   inkscape:connector-curvature="0"
   d="m 251.02,479.16 h 0.02 l 0.03,-0.01 h 0.02 l 0.04,-0.01 0.03,-0.01 0.04,-0.01 0.03,-0.01 0.04,-0.01 0.04,-0.01 0.05,-0.01 0.04,-0.02 0.04,-0.02 0.05,-0.01 0.04,-0.03 0.05,-0.02 0.04,-0.02 0.04,-0.03 0.04,-0.03 0.05,-0.03 0.03,-0.03 0.04,-0.03 0.04,-0.04 0.03,-0.04 0.03,-0.04 0.03,-0.05 0.02,-0.02 0.01,-0.03 0.01,-0.02 0.01,-0.03 0.01,-0.02 0.01,-0.03 0.01,-0.03 v -0.02 l 0.01,-0.03 0.01,-0.03 v -0.03 -0.04 -0.03 -0.03 c 0,-0.51 -0.34,-0.91 -1.12,-0.91 -0.84,0 -1.2,0.57 -1.39,1.42 -0.03,0.12 -0.04,0.16 -0.14,0.16 -0.13,0 -0.13,-0.07 -0.13,-0.25 v -1.31 c 0,-0.16 0,-0.23 0.11,-0.23 0.05,0 0.06,0.01 0.25,0.19 0.02,0.02 0.02,0.04 0.2,0.23 0.44,-0.41 0.89,-0.42 1.1,-0.42 1.14,0 1.6,0.66 1.6,1.38 0,0.52 -0.29,0.82 -0.41,0.94 -0.33,0.32 -0.72,0.4 -1.14,0.48 -0.56,0.11 -1.23,0.24 -1.23,0.81 0,0.35 0.26,0.76 1.12,0.76 1.1,0 1.15,-0.9 1.17,-1.2 0.01,-0.1 0.09,-0.1 0.11,-0.1 0.14,0 0.14,0.06 0.14,0.24 v 1.01 c 0,0.17 0,0.23 -0.11,0.23 -0.06,0 -0.08,0 -0.2,-0.11 -0.03,-0.04 -0.13,-0.13 -0.17,-0.16 -0.38,0.27 -0.79,0.27 -0.94,0.27 -1.22,0 -1.6,-0.66 -1.6,-1.22 0,-0.34 0.16,-0.62 0.43,-0.84 0.32,-0.26 0.6,-0.32 1.32,-0.46 z"
   style="fill:#000000;stroke-width:0"
   id="path1072" />
<path
   inkscape:connector-curvature="0"
   d="m 258.27,479.16 h 0.03 l 0.02,-0.01 h 0.03 l 0.03,-0.01 0.04,-0.01 0.03,-0.01 0.04,-0.01 0.04,-0.01 0.04,-0.01 0.04,-0.01 0.05,-0.02 0.04,-0.02 0.04,-0.01 0.05,-0.03 0.04,-0.02 0.05,-0.02 0.04,-0.03 0.04,-0.03 0.04,-0.03 0.04,-0.03 0.04,-0.03 0.04,-0.04 0.03,-0.04 0.03,-0.04 0.03,-0.05 0.01,-0.02 0.02,-0.03 0.01,-0.02 0.01,-0.03 0.01,-0.02 0.01,-0.03 v -0.03 l 0.01,-0.02 0.01,-0.03 v -0.03 l 0.01,-0.03 v -0.04 -0.03 -0.03 c 0,-0.51 -0.35,-0.91 -1.13,-0.91 -0.83,0 -1.19,0.57 -1.38,1.42 -0.03,0.12 -0.04,0.16 -0.14,0.16 -0.13,0 -0.13,-0.07 -0.13,-0.25 v -1.31 c 0,-0.16 0,-0.23 0.11,-0.23 0.05,0 0.06,0.01 0.25,0.19 0.02,0.02 0.02,0.04 0.2,0.23 0.44,-0.41 0.89,-0.42 1.09,-0.42 1.15,0 1.61,0.66 1.61,1.38 0,0.52 -0.3,0.82 -0.42,0.94 -0.33,0.32 -0.72,0.4 -1.14,0.48 -0.55,0.11 -1.22,0.24 -1.22,0.81 0,0.35 0.26,0.76 1.11,0.76 1.1,0 1.15,-0.9 1.17,-1.2 0.01,-0.1 0.1,-0.1 0.12,-0.1 0.13,0 0.13,0.06 0.13,0.24 v 1.01 c 0,0.17 0,0.23 -0.11,0.23 -0.05,0 -0.07,0 -0.2,-0.11 -0.03,-0.04 -0.13,-0.13 -0.17,-0.16 -0.38,0.27 -0.79,0.27 -0.94,0.27 -1.21,0 -1.59,-0.66 -1.59,-1.22 0,-0.34 0.16,-0.62 0.43,-0.84 0.32,-0.26 0.6,-0.32 1.31,-0.46 z"
   style="fill:#000000;stroke-width:0"
   id="path1074" />
<path
   inkscape:connector-curvature="0"
   d="m 261.3,479.4 v 0.08 0.07 0.07 l 0.01,0.07 v 0.07 l 0.01,0.07 v 0.06 l 0.01,0.06 0.01,0.06 0.01,0.06 0.01,0.06 0.02,0.06 0.02,0.11 0.03,0.1 0.04,0.1 0.03,0.09 0.04,0.09 0.04,0.08 0.05,0.07 0.04,0.07 0.05,0.07 0.05,0.06 0.05,0.05 0.06,0.05 0.05,0.05 0.06,0.04 0.05,0.04 0.06,0.03 0.05,0.03 0.06,0.03 0.06,0.02 0.05,0.02 0.06,0.01 0.05,0.02 0.06,0.01 h 0.05 l 0.05,0.01 h 0.05 c 0.09,0 0.72,-0.01 1.07,-0.37 -0.41,-0.03 -0.47,-0.33 -0.47,-0.46 0,-0.26 0.18,-0.45 0.46,-0.45 0.26,0 0.46,0.16 0.46,0.46 0,0.68 -0.76,1.06 -1.53,1.06 -1.24,0 -2.16,-1.07 -2.16,-2.3 0,-1.27 0.99,-2.25 2.14,-2.25 1.34,0 1.66,1.19 1.66,1.29 0,0.1 -0.1,0.1 -0.13,0.1 -0.09,0 -0.11,-0.04 -0.13,-0.1 -0.29,-0.93 -0.94,-1.05 -1.31,-1.05 -0.53,0 -1.4,0.43 -1.4,2.03 z"
   style="fill:#000000;stroke-width:0"
   id="path1076" />
<path
   inkscape:connector-curvature="0"
   d="m 267.88,477.99 v -0.04 l 0.01,-0.03 0.01,-0.04 v -0.04 l 0.01,-0.04 0.01,-0.03 0.02,-0.04 0.01,-0.03 0.02,-0.04 0.01,-0.03 0.02,-0.04 0.02,-0.03 0.02,-0.03 0.02,-0.04 0.02,-0.03 0.03,-0.03 0.02,-0.02 0.03,-0.03 0.03,-0.03 0.02,-0.02 0.03,-0.02 0.04,-0.03 0.03,-0.02 0.03,-0.01 0.04,-0.02 0.03,-0.01 0.04,-0.02 0.04,-0.01 h 0.04 l 0.04,-0.01 h 0.04 l 0.05,-0.01 c 0.2,0 0.81,0.14 0.81,0.95 v 0.55 h -0.25 v -0.55 c 0,-0.58 -0.24,-0.64 -0.36,-0.64 -0.32,0 -0.36,0.45 -0.36,0.5 v 1.99 c 0,0.41 0,0.8 -0.36,1.17 -0.39,0.39 -0.89,0.54 -1.37,0.54 -0.82,0 -1.5,-0.46 -1.5,-1.12 0,-0.29 0.19,-0.46 0.45,-0.46 0.28,0 0.46,0.2 0.46,0.45 0,0.12 -0.05,0.45 -0.51,0.46 0.27,0.35 0.76,0.46 1.08,0.46 0.49,0 1.06,-0.39 1.06,-1.27 v -0.37 -0.21 -0.99 c 0,-0.95 -0.72,-1.29 -1.17,-1.29 -0.49,0 -0.9,0.35 -0.9,0.85 0,0.54 0.42,1.37 2.07,1.43 v 0 0.21 c -0.51,-0.03 -1.21,-0.06 -1.84,-0.36 -0.74,-0.34 -0.99,-0.85 -0.99,-1.29 0,-0.81 0.96,-1.05 1.59,-1.05 0.66,0 1.12,0.39 1.31,0.86 z"
   style="fill:#000000;stroke-width:0"
   id="path1078" />
<path
   inkscape:connector-curvature="0"
   d="m 271.3,484.13 -1.43,-0.11 v -0.31 c 0.7,0 0.78,-0.07 0.78,-0.55 v -5.17 c 0,-0.45 -0.11,-0.45 -0.78,-0.45 v -0.31 c 0.33,0.01 0.86,0.04 1.11,0.04 0.24,0 0.73,-0.03 1.1,-0.04 v 0.31 c -0.67,0 -0.78,0 -0.78,0.45 z"
   style="fill:#000000;stroke-width:0"
   id="path1080" />
<path
   inkscape:connector-curvature="0"
   d="m 273.41,479.53 0.01,0.21 c 0.06,1.48 0.9,1.73 1.24,1.73 1.03,0 1.13,-1.34 1.13,-1.73 h -2.37 l -0.01,-0.21 h 2.79 c 0.22,0 0.25,0 0.25,0.21 0,0.98 -0.54,1.94 -1.79,1.94 -1.16,0 -2.07,-1.02 -2.07,-2.26 0,-1.33 1.04,-2.29 2.19,-2.29 1.22,0 1.67,1.1 1.67,1.29 0,0.1 -0.09,0.12 -0.13,0.12 -0.09,0 -0.12,-0.06 -0.13,-0.14 -0.35,-1.03 -1.25,-1.03 -1.35,-1.03 -0.5,0 -0.9,0.3 -1.13,0.67 -0.3,0.48 -0.3,1.13 -0.3,1.49 z"
   style="fill:#000000;stroke-width:0"
   id="path1082" />
<path
   inkscape:connector-curvature="0"
   d="m 281.82,481.63 -1.4,-0.11 v -0.31 c 0.65,0 0.74,-0.06 0.74,-0.55 v -2.67 c 0,-0.45 -0.11,-0.45 -0.78,-0.45 v -0.31 c 0.32,0.01 0.86,0.04 1.1,0.04 0.35,0 0.69,-0.03 1.03,-0.04 v 0.31 c -0.65,0 -0.69,0.05 -0.69,0.44 z"
   style="fill:#000000;stroke-width:0"
   id="path1084" />
<path
   inkscape:connector-curvature="0"
   d="m 281.86,483.35 v 0.03 l -0.01,0.03 v 0.03 l -0.01,0.03 v 0.02 l -0.01,0.03 -0.01,0.03 -0.01,0.02 -0.01,0.02 -0.01,0.03 -0.01,0.02 -0.02,0.02 -0.01,0.02 -0.02,0.02 -0.02,0.02 -0.01,0.02 -0.02,0.01 -0.02,0.02 -0.02,0.01 -0.02,0.02 -0.02,0.01 -0.03,0.01 -0.02,0.01 -0.02,0.01 -0.03,0.01 -0.02,0.01 -0.02,0.01 h -0.03 l -0.02,0.01 h -0.03 -0.03 -0.02 c -0.31,0 -0.53,-0.27 -0.53,-0.53 0,-0.26 0.22,-0.52 0.53,-0.52 0.28,0 0.53,0.21 0.53,0.52 z"
   style="fill:#000000;stroke-width:0"
   id="path1086" />
<path
   inkscape:connector-curvature="0"
   d="m 284.89,479.16 h 0.03 l 0.02,-0.01 h 0.03 l 0.03,-0.01 0.03,-0.01 0.04,-0.01 0.04,-0.01 0.04,-0.01 0.04,-0.01 0.04,-0.01 0.04,-0.02 0.05,-0.02 0.04,-0.01 0.05,-0.03 0.04,-0.02 0.04,-0.02 0.05,-0.03 0.04,-0.03 0.04,-0.03 0.04,-0.03 0.04,-0.03 0.03,-0.04 0.04,-0.04 0.03,-0.04 0.03,-0.05 0.01,-0.02 0.01,-0.03 0.01,-0.02 0.02,-0.03 0.01,-0.02 v -0.03 l 0.01,-0.03 0.01,-0.02 0.01,-0.03 v -0.03 -0.03 l 0.01,-0.04 v -0.03 -0.03 c 0,-0.51 -0.35,-0.91 -1.13,-0.91 -0.83,0 -1.19,0.57 -1.38,1.42 -0.03,0.12 -0.04,0.16 -0.14,0.16 -0.13,0 -0.13,-0.07 -0.13,-0.25 v -1.31 c 0,-0.16 0,-0.23 0.11,-0.23 0.05,0 0.06,0.01 0.25,0.19 0.02,0.02 0.02,0.04 0.2,0.23 0.43,-0.41 0.88,-0.42 1.09,-0.42 1.15,0 1.61,0.66 1.61,1.38 0,0.52 -0.3,0.82 -0.42,0.94 -0.33,0.32 -0.72,0.4 -1.14,0.48 -0.55,0.11 -1.22,0.24 -1.22,0.81 0,0.35 0.26,0.76 1.11,0.76 1.1,0 1.15,-0.9 1.17,-1.2 0.01,-0.1 0.1,-0.1 0.12,-0.1 0.13,0 0.13,0.06 0.13,0.24 v 1.01 c 0,0.17 0,0.23 -0.11,0.23 -0.05,0 -0.07,0 -0.2,-0.11 -0.03,-0.04 -0.13,-0.13 -0.17,-0.16 -0.38,0.27 -0.79,0.27 -0.94,0.27 -1.21,0 -1.59,-0.66 -1.59,-1.22 0,-0.34 0.16,-0.62 0.43,-0.84 0.32,-0.26 0.59,-0.32 1.31,-0.46 z"
   style="fill:#000000;stroke-width:0"
   id="path1088" />
<path
   inkscape:connector-curvature="0"
   d="m 291.34,478 1.06,1.02 c 1.55,1.37 2.15,1.91 2.15,2.9 0,1.14 -0.89,1.93 -2.11,1.93 -1.13,0 -1.87,-0.91 -1.87,-1.8 0,-0.55 0.5,-0.55 0.53,-0.55 0.17,0 0.52,0.12 0.52,0.52 0,0.26 -0.18,0.52 -0.53,0.52 -0.08,0 -0.1,0 -0.13,-0.01 0.23,0.64 0.77,1.01 1.35,1.01 0.91,0 1.34,-0.8 1.34,-1.62 0,-0.79 -0.5,-1.58 -1.05,-2.19 l -1.92,-2.13 c -0.11,-0.11 -0.11,-0.13 -0.11,-0.37 h 3.7 l 0.28,1.73 h -0.25 c -0.05,-0.29 -0.12,-0.73 -0.22,-0.88 C 294.02,478 293.36,478 293.14,478 Z"
   style="fill:#000000;stroke-width:0"
   id="path1090" />
<path
   inkscape:connector-curvature="0"
   d="m 296.97,477.76 v 0.03 0.03 0.02 l -0.01,0.03 v 0.02 l -0.01,0.03 -0.01,0.02 -0.01,0.03 -0.01,0.02 -0.01,0.02 -0.02,0.02 -0.01,0.02 -0.01,0.03 -0.02,0.02 -0.02,0.01 -0.01,0.02 -0.02,0.02 -0.02,0.02 -0.02,0.01 -0.02,0.02 -0.02,0.01 -0.03,0.01 -0.02,0.02 -0.02,0.01 -0.03,0.01 h -0.02 l -0.03,0.01 -0.02,0.01 h -0.03 l -0.02,0.01 h -0.03 -0.03 c -0.29,0 -0.53,-0.24 -0.53,-0.53 0,-0.29 0.24,-0.53 0.53,-0.53 0.29,0 0.53,0.24 0.53,0.53 z"
   style="fill:#000000;stroke-width:0"
   id="path1092" />
<path
   inkscape:connector-curvature="0"
   d="m 302.41,480.41 v 0.15 0.15 0.15 l -0.01,0.15 -0.01,0.15 -0.01,0.14 -0.02,0.15 -0.02,0.15 -0.02,0.14 -0.03,0.15 -0.03,0.14 -0.04,0.15 -0.04,0.14 -0.05,0.14 -0.06,0.14 -0.03,0.07 -0.03,0.07 c -0.46,0.95 -1.27,1.11 -1.69,1.11 -0.6,0 -1.33,-0.26 -1.74,-1.18 -0.32,-0.69 -0.37,-1.46 -0.37,-2.26 0,-0.74 0.04,-1.64 0.45,-2.39 0.43,-0.81 1.16,-1 1.65,-1 v 0.21 c -0.39,0 -0.98,0.25 -1.16,1.21 -0.11,0.59 -0.11,1.51 -0.11,2.09 0,0.64 0,1.29 0.08,1.83 0.19,1.18 0.94,1.27 1.19,1.27 0.33,0 0.99,-0.18 1.17,-1.16 0.1,-0.56 0.1,-1.31 0.1,-1.94 0,-0.74 0,-1.42 -0.11,-2.05 -0.14,-0.95 -0.71,-1.25 -1.16,-1.25 v 0 -0.21 c 0.54,0 1.29,0.21 1.73,1.15 0.32,0.68 0.37,1.46 0.37,2.24 z"
   style="fill:#000000;stroke-width:0"
   id="path1094" />
</g>  </g>
  <g
     inkscape:label="annotation"
     id="g8493" />
</svg>
