<?xml version="1.0" encoding="UTF-8" standalone="no"?>
<!-- Created with Inkscape (http://www.inkscape.org/) -->

<svg
   xmlns:ns0="http://www.iki.fi/pav/software/textext/"
   xmlns:dc="http://purl.org/dc/elements/1.1/"
   xmlns:cc="http://creativecommons.org/ns#"
   xmlns:rdf="http://www.w3.org/1999/02/22-rdf-syntax-ns#"
   xmlns:svg="http://www.w3.org/2000/svg"
   xmlns="http://www.w3.org/2000/svg"
   xmlns:sodipodi="http://sodipodi.sourceforge.net/DTD/sodipodi-0.dtd"
   xmlns:inkscape="http://www.inkscape.org/namespaces/inkscape"
   sodipodi:docname="ANOT_scale.svg"
   inkscape:version="0.92.3 (2405546, 2018-03-11)"
   id="svg2"
   version="1.1"
   viewBox="0 0 793.7008056641 1122.51965332"
   height="297mm"
   width="210mm">
  <sodipodi:namedview
     inkscape:current-layer="svg2"
     inkscape:window-maximized="1"
     inkscape:window-y="0"
     inkscape:window-x="0"
     inkscape:cy="722.8429219593"
     inkscape:cx="363.2966847429"
     inkscape:zoom="6.253173442687"
     showgrid="true"
     id="namedview4"
     inkscape:window-height="1056"
     inkscape:window-width="1920"
     inkscape:pageshadow="2"
     inkscape:pageopacity="0"
     guidetolerance="10"
     gridtolerance="10"
     objecttolerance="10"
     borderopacity="1"
     bordercolor="#666666"
     pagecolor="#ffffff">
    <inkscape:grid
       id="grid815"
       type="xygrid" />
  </sodipodi:namedview>
  <metadata
     id="metadata8">
    <rdf:RDF>
      <cc:Work
         rdf:about="">
        <dc:format>image/svg+xml</dc:format>
        <dc:type
           rdf:resource="http://purl.org/dc/dcmitype/StillImage" />
        <dc:title />
      </cc:Work>
    </rdf:RDF>
  </metadata>
  <defs
     id="defs6">
    <marker
       id="AnnArrow_Start-5"
       orient="auto"
       refX="0"
       refY="0"
       style="overflow:visible"
       inkscape:stockid="AnnArrow_Start">
      <path
         d="M 0,0 5,-5 -12.5,0 5,5 Z"
         style="fill:#ff0000;fill-rule:evenodd;stroke:none;stroke-width:1"
         transform="matrix(0.3,0,0,0.3,1.2,0)"
         id="path1028-3"
         inkscape:connector-curvature="0" />
    </marker>
    <marker
       inkscape:stockid="AnnArrow_Start"
       style="overflow:visible"
       refY="0"
       refX="0"
       orient="auto"
       id="AnnArrow_Start-3">
      <path
         inkscape:connector-curvature="0"
         id="path6145-6"
         transform="matrix(0.3,0,0,0.3,1.2,0)"
         style="fill:#ff0000;fill-rule:evenodd;stroke:none;stroke-width:1"
         d="M 0,0 5,-5 -12.5,0 5,5 Z" />
    </marker>
    <marker
       inkscape:stockid="AnnArrow_Start"
       style="overflow:visible"
       refY="0"
       refX="0"
       orient="auto"
       id="AnnArrow_Start-3-9">
      <path
         inkscape:connector-curvature="0"
         id="path6145-6-1"
         transform="matrix(0.3,0,0,0.3,1.2,0)"
         style="fill:#ff0000;fill-rule:evenodd;stroke:none;stroke-width:1"
         d="M 0,0 5,-5 -12.5,0 5,5 Z" />
    </marker>
    <marker
       inkscape:stockid="AnnArrow_Start"
       style="overflow:visible"
       refY="0"
       refX="0"
       orient="auto"
       id="AnnArrow_Start-3-7">
      <path
         inkscape:connector-curvature="0"
         id="path6145-6-0"
         transform="matrix(0.3,0,0,0.3,1.2,0)"
         style="fill:#ff0000;fill-rule:evenodd;stroke:none;stroke-width:1"
         d="M 0,0 5,-5 -12.5,0 5,5 Z" />
    </marker>
    <marker
       inkscape:stockid="AnnArrow_Start"
       style="overflow:visible"
       refY="0"
       refX="0"
       orient="auto"
       id="AnnArrow_Start-3-7-3">
      <path
         inkscape:connector-curvature="0"
         id="path6145-6-0-6"
         transform="matrix(0.3,0,0,0.3,1.2,0)"
         style="fill:#ff0000;fill-rule:evenodd;stroke:none;stroke-width:1"
         d="M 0,0 5,-5 -12.5,0 5,5 Z" />
    </marker>
    <marker
       inkscape:stockid="AnnArrow_Start"
       style="overflow:visible"
       refY="0"
       refX="0"
       orient="auto"
       id="AnnArrow_Start-3-7-6">
      <path
         inkscape:connector-curvature="0"
         id="path6145-6-0-2"
         transform="matrix(0.3,0,0,0.3,1.2,0)"
         style="fill:#ff0000;fill-rule:evenodd;stroke:none;stroke-width:1"
         d="M 0,0 5,-5 -12.5,0 5,5 Z" />
    </marker>
    <marker
       inkscape:stockid="AnnArrow_Start"
       style="overflow:visible"
       refY="0"
       refX="0"
       orient="auto"
       id="AnnArrow_Start-3-7-1">
      <path
         inkscape:connector-curvature="0"
         id="path6145-6-0-8"
         transform="matrix(0.3,0,0,0.3,1.2,0)"
         style="fill:#ff0000;fill-rule:evenodd;stroke:none;stroke-width:1"
         d="M 0,0 5,-5 -12.5,0 5,5 Z" />
    </marker>
    <marker
       inkscape:stockid="AnnArrow_Start"
       style="overflow:visible"
       refY="0"
       refX="0"
       orient="auto"
       id="AnnArrow_Start-3-7-9">
      <path
         inkscape:connector-curvature="0"
         id="path6145-6-0-20"
         transform="matrix(0.3,0,0,0.3,1.2,0)"
         style="fill:#ff0000;fill-rule:evenodd;stroke:none;stroke-width:1"
         d="M 0,0 5,-5 -12.5,0 5,5 Z" />
    </marker>
    <marker
       inkscape:stockid="AnnArrow_Start"
       style="overflow:visible"
       refY="0"
       refX="0"
       orient="auto"
       id="AnnArrow_Start-3-7-37">
      <path
         inkscape:connector-curvature="0"
         id="path6145-6-0-5"
         transform="matrix(0.3,0,0,0.3,1.2,0)"
         style="fill:#ff0000;fill-rule:evenodd;stroke:none;stroke-width:1"
         d="M 0,0 5,-5 -12.5,0 5,5 Z" />
    </marker>
    <marker
       inkscape:stockid="AnnArrow_Start"
       style="overflow:visible"
       refY="0"
       refX="0"
       orient="auto"
       id="AnnArrow_Start-3-7-2">
      <path
         inkscape:connector-curvature="0"
         id="path6145-6-0-28"
         transform="matrix(0.3,0,0,0.3,1.2,0)"
         style="fill:#ff0000;fill-rule:evenodd;stroke:none;stroke-width:1"
         d="M 0,0 5,-5 -12.5,0 5,5 Z" />
    </marker>
    <marker
       inkscape:stockid="AnnArrow_Start"
       style="overflow:visible"
       refY="0"
       refX="0"
       orient="auto"
       id="AnnArrow_Start-3-7-36">
      <path
         inkscape:connector-curvature="0"
         id="path6145-6-0-1"
         transform="matrix(0.3,0,0,0.3,1.2,0)"
         style="fill:#ff0000;fill-rule:evenodd;stroke:none;stroke-width:1"
         d="M 0,0 5,-5 -12.5,0 5,5 Z" />
    </marker>
    <marker
       inkscape:stockid="AnnArrow_Start"
       style="overflow:visible"
       refY="0"
       refX="0"
       orient="auto"
       id="AnnArrow_Start-3-7-9-3">
      <path
         inkscape:connector-curvature="0"
         id="path6145-6-0-20-1"
         transform="matrix(0.3,0,0,0.3,1.2,0)"
         style="fill:#ff0000;fill-rule:evenodd;stroke:none;stroke-width:1"
         d="M 0,0 5,-5 -12.5,0 5,5 Z" />
    </marker>
    <marker
       inkscape:stockid="AnnArrow_Start"
       style="overflow:visible"
       refY="0"
       refX="0"
       orient="auto"
       id="AnnArrow_Start-3-7-94">
      <path
         inkscape:connector-curvature="0"
         id="path6145-6-0-7"
         transform="matrix(0.3,0,0,0.3,1.2,0)"
         style="fill:#ff0000;fill-rule:evenodd;stroke:none;stroke-width:1"
         d="M 0,0 5,-5 -12.5,0 5,5 Z" />
    </marker>
    <marker
       inkscape:stockid="DimmArrow_Start"
       style="overflow:visible"
       refY="0.0"
       refX="0.0"
       orient="auto"
       id="DimmArrow_Start">
      <path
         id="path9479"
         transform="scale (2.5)rotate(180)translate (4.0,0)"
         style="stroke-width:1.0;stroke:none;fill:#FF0000;fill-rule:evenodd"
         d="M 0.0,0.0 L -4.000000,0.705308 L -4.000000,-0.705308 L 0.0,0.0 z " />
    </marker>
    <marker
       inkscape:stockid="DimmArrow_End"
       style="overflow:visible"
       refY="0.0"
       refX="0.0"
       orient="auto"
       id="DimmArrow_End">
      <path
         id="path9482"
         transform="scale (2.5)translate (4.0,0)"
         style="stroke-width:1.0;stroke:none;fill:#FF0000;fill-rule:evenodd"
         d="M 0.0,0.0 L -4.000000,0.705308 L -4.000000,-0.705308 L 0.0,0.0 z " />
    </marker>
    <marker
       inkscape:stockid="AnnArrow_Start"
       style="overflow:visible"
       refY="0.0"
       refX="0.0"
       orient="auto"
       id="AnnArrow_Start">
      <path
         id="path9485"
         transform="translate (1.2,0)scale (0.300000)"
         style="stroke-width:1.0;stroke:none;fill:#FF0000;fill-rule:evenodd"
         d="M 0.0,0.0 L 5.0,-5.0 L -12.5,0.0 L 5.0,5.0 L 0.0,0.0 z" />
    </marker>
  </defs>
  <g
     id="g982"
     inkscape:label="annotation"
     inkscape:export-xdpi="880.706237793"
     inkscape:export-ydpi="880.706237793">
    <path
       sodipodi:nodetypes="ccc"
       inkscape:connector-curvature="0"
       id="path941"
       inkscape:label="dim"
       style="fill:none;stroke:#ff0000;stroke-width:0.400000006;stroke-linecap:round;stroke-linejoin:round;stroke-dasharray:none;marker-start:url(#AnnArrow_Start)"
       d="m 355,412.519685039 15,-10 40,-3.17187e-5" />
    <g
       id="content"
       transform="translate(370.000000 401.186352) translate(-132.420124 282.260366) scale(0.591716 -0.591716)  "
       xml:space="preserve"
       stroke="black"
       stroke-linecap="butt"
       stroke-linejoin="miter"
       stroke-miterlimit="10.433"
       stroke-dasharray="none"
       stroke-dashoffset="0"
       stroke-opacity="1"
       fill="none"
       fill-rule="evenodd"
       fill-opacity="1"
       font-style="normal"
       font-variant="normal"
       font-weight="normal"
       font-stretch="normal"
       font-size-adjust="none"
       letter-spacing="normal"
       word-spacing="normal"
       text-anchor="start"
       ns0:text=" This scale is 1.0 "
       ns0:preamble="/home/fernando/.config/inkscape/extensions/textextLib/basicLatexPackages.tex">
<path
   d="M230.07,483.96 H223.98 L223.79,481.73 H224.04 C224.18,483.32,224.33,483.65,225.84,483.65 C226.01,483.65,226.27,483.65,226.37,483.63 C226.58,483.59,226.58,483.48,226.58,483.26 V478.02 C226.58,477.68,226.58,477.54,225.54,477.54 H225.14 V477.23 C225.55,477.27,226.56,477.27,227.02,477.27 C227.48,477.27,228.51,477.27,228.92,477.23 V477.54 H228.52 C227.47,477.54,227.47,477.68,227.47,478.02 V483.26 C227.47,483.45,227.47,483.59,227.65,483.63 C227.76,483.65,228.03,483.65,228.22,483.65 C229.72,483.65,229.87,483.32,230.01,481.73 H230.26 Z "
   stroke-width="0"
   fill="black"
   id="path1022" />
<path
   d="M231.72,477.99 L231.72,477.97 L231.72,477.95 L231.72,477.91 L231.72,477.88 L231.72,477.84 L231.71,477.81 L231.71,477.78 L231.7,477.76 L231.7,477.73 L231.69,477.71 L231.68,477.69 L231.67,477.67 L231.65,477.65 L231.64,477.64 L231.62,477.62 L231.61,477.61 L231.59,477.6 L231.56,477.59 L231.54,477.58 L231.51,477.57 L231.49,477.57 L231.46,477.56 L231.42,477.56 L231.39,477.55 L231.37,477.55 L231.35,477.55 L231.33,477.55 L231.31,477.55 L231.29,477.55 L231.27,477.55 L231.24,477.55 L231.22,477.54 L231.2,477.54 L231.17,477.54 L231.15,477.54 L231.12,477.54 L231.09,477.54 L231.06,477.54 L231.04,477.54 L231.01,477.54 L230.98,477.54 L230.95,477.54 V477.23 C231.29,477.24,231.8,477.27,232.07,477.27 C232.33,477.27,232.85,477.24,233.19,477.23 V477.54 C232.52,477.54,232.41,477.54,232.41,477.99 V479.82 C232.41,480.85,233.12,481.41,233.76,481.41 C234.39,481.41,234.5,480.87,234.5,480.3 V477.99 C234.5,477.54,234.39,477.54,233.72,477.54 V477.23 C234.07,477.24,234.58,477.27,234.85,477.27 C235.1,477.27,235.62,477.24,235.96,477.23 V477.54 C235.44,477.54,235.19,477.54,235.18,477.84 V479.74 C235.18,480.59,235.18,480.9,234.88,481.26 C234.74,481.43,234.41,481.63,233.83,481.63 C232.99,481.63,232.55,481.03,232.38,480.65 V484.13 L230.95,484.02 V483.71 C231.64,483.71,231.72,483.64,231.72,483.16 Z "
   stroke-width="0"
   fill="black"
   id="path1024" />
<path
   d="M237.93,481.63 L236.53,481.52 V481.21 C237.18,481.21,237.27,481.15,237.27,480.66 V477.99 C237.27,477.54,237.16,477.54,236.49,477.54 V477.23 C236.81,477.24,237.35,477.27,237.59,477.27 C237.94,477.27,238.29,477.24,238.62,477.23 V477.54 C237.97,477.54,237.93,477.59,237.93,477.98 Z "
   stroke-width="0"
   fill="black"
   id="path1026" />
<path
   d="M237.97,483.35 L237.97,483.38 L237.96,483.41 L237.96,483.44 L237.96,483.47 L237.95,483.49 L237.94,483.52 L237.93,483.55 L237.92,483.57 L237.91,483.59 L237.9,483.62 L237.89,483.64 L237.87,483.66 L237.86,483.68 L237.84,483.7 L237.83,483.72 L237.81,483.74 L237.79,483.75 L237.77,483.77 L237.75,483.78 L237.73,483.8 L237.71,483.81 L237.69,483.82 L237.66,483.83 L237.64,483.84 L237.62,483.85 L237.59,483.86 L237.57,483.87 L237.54,483.87 L237.52,483.88 L237.49,483.88 L237.47,483.88 L237.44,483.88 C237.13,483.88,236.91,483.61,236.91,483.35 C236.91,483.09,237.13,482.83,237.44,482.83 C237.72,482.83,237.97,483.04,237.97,483.35 Z "
   stroke-width="0"
   fill="black"
   id="path1028" />
<path
   d="M241,479.16 L241.03,479.16 L241.05,479.15 L241.08,479.15 L241.11,479.14 L241.15,479.13 L241.18,479.12 L241.22,479.11 L241.26,479.1 L241.3,479.09 L241.34,479.08 L241.38,479.06 L241.43,479.04 L241.47,479.03 L241.52,479 L241.56,478.98 L241.6,478.96 L241.65,478.93 L241.69,478.9 L241.73,478.87 L241.77,478.84 L241.81,478.81 L241.84,478.77 L241.88,478.73 L241.91,478.69 L241.94,478.64 L241.95,478.62 L241.96,478.59 L241.98,478.57 L241.99,478.54 L242,478.52 L242.01,478.49 L242.01,478.46 L242.02,478.44 L242.03,478.41 L242.03,478.38 L242.04,478.35 L242.04,478.31 L242.04,478.28 L242.04,478.25 C242.04,477.74,241.69,477.34,240.91,477.34 C240.08,477.34,239.72,477.91,239.53,478.76 C239.5,478.88,239.49,478.92,239.39,478.92 C239.26,478.92,239.26,478.85,239.26,478.67 V477.36 C239.26,477.2,239.26,477.13,239.37,477.13 C239.42,477.13,239.43,477.14,239.62,477.32 C239.64,477.34,239.64,477.36,239.82,477.55 C240.26,477.14,240.71,477.13,240.91,477.13 C242.06,477.13,242.52,477.79,242.52,478.51 C242.52,479.03,242.22,479.33,242.1,479.45 C241.77,479.77,241.38,479.85,240.96,479.93 C240.41,480.04,239.74,480.17,239.74,480.74 C239.74,481.09,240,481.5,240.85,481.5 C241.95,481.5,242,480.6,242.02,480.3 C242.03,480.2,242.12,480.2,242.14,480.2 C242.27,480.2,242.27,480.26,242.27,480.44 V481.45 C242.27,481.62,242.27,481.68,242.16,481.68 C242.11,481.68,242.09,481.68,241.96,481.57 C241.93,481.53,241.83,481.44,241.79,481.41 C241.41,481.68,241,481.68,240.85,481.68 C239.64,481.68,239.26,481.02,239.26,480.46 C239.26,480.12,239.42,479.84,239.69,479.62 C240.01,479.36,240.29,479.3,241,479.16 Z "
   stroke-width="0"
   fill="black"
   id="path1030" />
<path
   d="M248.25,479.16 L248.27,479.16 L248.3,479.15 L248.33,479.15 L248.36,479.14 L248.39,479.13 L248.43,479.12 L248.47,479.11 L248.51,479.1 L248.55,479.09 L248.59,479.08 L248.63,479.06 L248.68,479.04 L248.72,479.03 L248.76,479 L248.81,478.98 L248.85,478.96 L248.89,478.93 L248.94,478.9 L248.98,478.87 L249.02,478.84 L249.06,478.81 L249.09,478.77 L249.13,478.73 L249.16,478.69 L249.19,478.64 L249.2,478.62 L249.21,478.59 L249.22,478.57 L249.23,478.54 L249.24,478.52 L249.25,478.49 L249.26,478.46 L249.27,478.44 L249.27,478.41 L249.28,478.38 L249.28,478.35 L249.29,478.31 L249.29,478.28 L249.29,478.25 C249.29,477.74,248.94,477.34,248.16,477.34 C247.32,477.34,246.96,477.91,246.77,478.76 C246.74,478.88,246.74,478.92,246.63,478.92 C246.51,478.92,246.51,478.85,246.51,478.67 V477.36 C246.51,477.2,246.51,477.13,246.62,477.13 C246.66,477.13,246.68,477.14,246.87,477.32 C246.88,477.34,246.88,477.36,247.06,477.55 C247.5,477.14,247.95,477.13,248.16,477.13 C249.31,477.13,249.77,477.79,249.77,478.51 C249.77,479.03,249.47,479.33,249.35,479.45 C249.02,479.77,248.63,479.85,248.21,479.93 C247.65,480.04,246.98,480.17,246.98,480.74 C246.98,481.09,247.24,481.5,248.1,481.5 C249.2,481.5,249.25,480.6,249.27,480.3 C249.28,480.2,249.37,480.2,249.39,480.2 C249.52,480.2,249.52,480.26,249.52,480.44 V481.45 C249.52,481.62,249.52,481.68,249.41,481.68 C249.36,481.68,249.34,481.68,249.21,481.57 C249.18,481.53,249.08,481.44,249.04,481.41 C248.66,481.68,248.25,481.68,248.1,481.68 C246.88,481.68,246.51,481.02,246.51,480.46 C246.51,480.12,246.66,479.84,246.93,479.62 C247.25,479.36,247.53,479.3,248.25,479.16 Z "
   stroke-width="0"
   fill="black"
   id="path1032" />
<path
   d="M251.27,479.4 L251.27,479.48 L251.28,479.55 L251.28,479.62 L251.28,479.69 L251.29,479.76 L251.29,479.83 L251.3,479.89 L251.31,479.95 L251.32,480.01 L251.33,480.07 L251.34,480.13 L251.35,480.19 L251.38,480.3 L251.41,480.4 L251.44,480.5 L251.48,480.59 L251.52,480.68 L251.56,480.76 L251.6,480.83 L251.65,480.9 L251.7,480.97 L251.75,481.03 L251.8,481.08 L251.85,481.13 L251.91,481.18 L251.96,481.22 L252.02,481.26 L252.07,481.29 L252.13,481.32 L252.19,481.35 L252.24,481.37 L252.3,481.39 L252.35,481.4 L252.41,481.42 L252.46,481.43 L252.52,481.43 L252.57,481.44 L252.62,481.44 C252.71,481.44,253.34,481.43,253.69,481.07 C253.28,481.04,253.22,480.74,253.22,480.61 C253.22,480.35,253.4,480.16,253.68,480.16 C253.93,480.16,254.13,480.32,254.13,480.62 C254.13,481.3,253.38,481.68,252.61,481.68 C251.36,481.68,250.45,480.61,250.45,479.38 C250.45,478.11,251.43,477.13,252.59,477.13 C253.93,477.13,254.24,478.32,254.24,478.42 C254.24,478.52,254.14,478.52,254.12,478.52 C254.02,478.52,254.01,478.48,253.99,478.42 C253.7,477.49,253.05,477.37,252.68,477.37 C252.15,477.37,251.27,477.8,251.27,479.4 Z "
   stroke-width="0"
   fill="black"
   id="path1034" />
<path
   d="M257.85,477.99 L257.86,477.95 L257.86,477.92 L257.87,477.88 L257.88,477.84 L257.89,477.8 L257.9,477.77 L257.91,477.73 L257.93,477.7 L257.94,477.66 L257.96,477.63 L257.98,477.59 L257.99,477.56 L258.01,477.53 L258.04,477.49 L258.06,477.46 L258.08,477.43 L258.11,477.41 L258.13,477.38 L258.16,477.35 L258.19,477.33 L258.22,477.31 L258.25,477.28 L258.28,477.26 L258.32,477.25 L258.35,477.23 L258.39,477.22 L258.43,477.2 L258.47,477.19 L258.51,477.19 L258.55,477.18 L258.59,477.18 L258.63,477.17 C258.84,477.17,259.45,477.31,259.45,478.12 V478.67 H259.2 V478.12 C259.2,477.54,258.95,477.48,258.84,477.48 C258.51,477.48,258.47,477.93,258.47,477.98 V479.97 C258.47,480.38,258.47,480.77,258.11,481.14 C257.72,481.53,257.23,481.68,256.75,481.68 C255.93,481.68,255.24,481.22,255.24,480.56 C255.24,480.27,255.44,480.1,255.7,480.1 C255.98,480.1,256.16,480.3,256.16,480.55 C256.16,480.67,256.11,481,255.65,481.01 C255.92,481.36,256.41,481.47,256.73,481.47 C257.22,481.47,257.78,481.08,257.78,480.2 V479.83 V479.62 V478.63 C257.78,477.68,257.07,477.34,256.62,477.34 C256.13,477.34,255.72,477.69,255.72,478.19 C255.72,478.73,256.14,479.56,257.78,479.62 H257.78 V479.83 C257.27,479.8,256.58,479.77,255.95,479.47 C255.2,479.13,254.95,478.62,254.95,478.18 C254.95,477.37,255.92,477.13,256.55,477.13 C257.21,477.13,257.66,477.52,257.85,477.99 Z "
   stroke-width="0"
   fill="black"
   id="path1036" />
<path
   d="M261.28,484.13 L259.84,484.02 V483.71 C260.54,483.71,260.62,483.64,260.62,483.16 V477.99 C260.62,477.54,260.51,477.54,259.84,477.54 V477.23 C260.17,477.24,260.7,477.27,260.95,477.27 C261.2,477.27,261.69,477.24,262.06,477.23 V477.54 C261.39,477.54,261.28,477.54,261.28,477.99 Z "
   stroke-width="0"
   fill="black"
   id="path1038" />
<path
   d="M263.39,479.53 L263.4,479.74 C263.46,481.22,264.3,481.47,264.64,481.47 C265.66,481.47,265.76,480.13,265.76,479.74 H263.4 L263.39,479.53 H266.17 C266.39,479.53,266.42,479.53,266.42,479.74 C266.42,480.72,265.88,481.68,264.64,481.68 C263.48,481.68,262.56,480.66,262.56,479.42 C262.56,478.09,263.61,477.13,264.76,477.13 C265.97,477.13,266.42,478.23,266.42,478.42 C266.42,478.52,266.34,478.54,266.29,478.54 C266.2,478.54,266.18,478.48,266.16,478.4 C265.81,477.37,264.92,477.37,264.82,477.37 C264.32,477.37,263.92,477.67,263.69,478.04 C263.39,478.52,263.39,479.17,263.39,479.53 Z "
   stroke-width="0"
   fill="black"
   id="path1040" />
<path
   d="M271.8,481.63 L270.41,481.52 V481.21 C271.05,481.21,271.14,481.15,271.14,480.66 V477.99 C271.14,477.54,271.03,477.54,270.37,477.54 V477.23 C270.68,477.24,271.22,477.27,271.46,477.27 C271.81,477.27,272.16,477.24,272.5,477.23 V477.54 C271.84,477.54,271.8,477.59,271.8,477.98 Z "
   stroke-width="0"
   fill="black"
   id="path1042" />
<path
   d="M271.84,483.35 L271.84,483.38 L271.84,483.41 L271.84,483.44 L271.83,483.47 L271.82,483.49 L271.82,483.52 L271.81,483.55 L271.8,483.57 L271.79,483.59 L271.78,483.62 L271.76,483.64 L271.75,483.66 L271.73,483.68 L271.72,483.7 L271.7,483.72 L271.68,483.74 L271.66,483.75 L271.64,483.77 L271.62,483.78 L271.6,483.8 L271.58,483.81 L271.56,483.82 L271.54,483.83 L271.51,483.84 L271.49,483.85 L271.47,483.86 L271.44,483.87 L271.42,483.87 L271.39,483.88 L271.37,483.88 L271.34,483.88 L271.31,483.88 C271,483.88,270.79,483.61,270.79,483.35 C270.79,483.09,271,482.83,271.31,482.83 C271.59,482.83,271.84,483.04,271.84,483.35 Z "
   stroke-width="0"
   fill="black"
   id="path1044" />
<path
   d="M274.88,479.16 L274.9,479.16 L274.93,479.15 L274.96,479.15 L274.99,479.14 L275.02,479.13 L275.06,479.12 L275.09,479.11 L275.13,479.1 L275.17,479.09 L275.22,479.08 L275.26,479.06 L275.3,479.04 L275.35,479.03 L275.39,479 L275.44,478.98 L275.48,478.96 L275.52,478.93 L275.56,478.9 L275.61,478.87 L275.65,478.84 L275.68,478.81 L275.72,478.77 L275.75,478.73 L275.78,478.69 L275.81,478.64 L275.83,478.62 L275.84,478.59 L275.85,478.57 L275.86,478.54 L275.87,478.52 L275.88,478.49 L275.89,478.46 L275.9,478.44 L275.9,478.41 L275.91,478.38 L275.91,478.35 L275.91,478.31 L275.92,478.28 L275.92,478.25 C275.92,477.74,275.57,477.34,274.79,477.34 C273.95,477.34,273.59,477.91,273.4,478.76 C273.37,478.88,273.36,478.92,273.26,478.92 C273.13,478.92,273.13,478.85,273.13,478.67 V477.36 C273.13,477.2,273.13,477.13,273.24,477.13 C273.29,477.13,273.3,477.14,273.49,477.32 C273.51,477.34,273.51,477.36,273.69,477.55 C274.13,477.14,274.58,477.13,274.79,477.13 C275.94,477.13,276.39,477.79,276.39,478.51 C276.39,479.03,276.1,479.33,275.98,479.45 C275.65,479.77,275.26,479.85,274.84,479.93 C274.28,480.04,273.61,480.17,273.61,480.74 C273.61,481.09,273.87,481.5,274.73,481.5 C275.83,481.5,275.88,480.6,275.9,480.3 C275.91,480.2,276,480.2,276.02,480.2 C276.14,480.2,276.14,480.26,276.14,480.44 V481.45 C276.14,481.62,276.14,481.68,276.04,481.68 C275.99,481.68,275.97,481.68,275.84,481.57 C275.81,481.53,275.71,481.44,275.67,481.41 C275.29,481.68,274.88,481.68,274.73,481.68 C273.51,481.68,273.13,481.02,273.13,480.46 C273.13,480.12,273.29,479.84,273.56,479.62 C273.88,479.36,274.16,479.3,274.88,479.16 Z "
   stroke-width="0"
   fill="black"
   id="path1046" />
<path
   d="M282.98,483.59 L282.98,483.6 L282.98,483.61 L282.98,483.63 L282.98,483.64 L282.98,483.64 L282.98,483.65 L282.98,483.66 L282.98,483.67 L282.98,483.68 L282.98,483.69 L282.98,483.7 L282.98,483.71 L282.98,483.71 L282.98,483.72 L282.98,483.73 L282.98,483.73 L282.98,483.74 L282.98,483.75 L282.98,483.76 L282.97,483.77 L282.97,483.78 L282.97,483.79 L282.96,483.8 L282.96,483.8 L282.95,483.81 L282.95,483.82 L282.94,483.82 L282.94,483.83 L282.93,483.83 L282.92,483.84 L282.91,483.84 L282.91,483.84 L282.9,483.84 L282.9,483.84 L282.89,483.84 L282.89,483.84 L282.88,483.85 L282.87,483.85 L282.87,483.85 L282.86,483.85 L282.85,483.85 L282.85,483.85 L282.84,483.85 L282.83,483.85 L282.82,483.85 L282.81,483.85 L282.8,483.85 L282.79,483.85 L282.78,483.85 L282.77,483.85 L282.76,483.85 L282.75,483.85 C282.14,483.21,281.26,483.21,280.94,483.21 V482.91 C281.14,482.91,281.73,482.91,282.24,483.17 V478.02 C282.24,477.66,282.21,477.54,281.32,477.54 H281 V477.23 C281.35,477.27,282.21,477.27,282.61,477.27 C283.01,477.27,283.88,477.27,284.23,477.23 V477.54 H283.91 C283.01,477.54,282.98,477.65,282.98,478.02 Z "
   stroke-width="0"
   fill="black"
   id="path1048" />
<path
   d="M286.95,477.76 L286.95,477.79 L286.94,477.82 L286.94,477.84 L286.94,477.87 L286.93,477.89 L286.92,477.92 L286.91,477.94 L286.91,477.97 L286.89,477.99 L286.88,478.01 L286.87,478.03 L286.86,478.05 L286.84,478.08 L286.83,478.1 L286.81,478.11 L286.79,478.13 L286.77,478.15 L286.75,478.17 L286.73,478.18 L286.71,478.2 L286.69,478.21 L286.67,478.22 L286.65,478.24 L286.62,478.25 L286.6,478.26 L286.58,478.26 L286.55,478.27 L286.52,478.28 L286.5,478.28 L286.47,478.29 L286.45,478.29 L286.42,478.29 C286.13,478.29,285.89,478.05,285.89,477.76 C285.89,477.47,286.13,477.23,286.42,477.23 C286.71,477.23,286.95,477.47,286.95,477.76 Z "
   stroke-width="0"
   fill="black"
   id="path1050" />
<path
   d="M292.39,480.41 L292.39,480.56 L292.38,480.71 L292.38,480.86 L292.37,481.01 L292.36,481.16 L292.35,481.3 L292.34,481.45 L292.32,481.6 L292.3,481.74 L292.27,481.89 L292.24,482.03 L292.2,482.18 L292.15,482.32 L292.11,482.46 L292.05,482.6 L292.02,482.67 L291.99,482.74 C291.53,483.69,290.71,483.85,290.29,483.85 C289.7,483.85,288.97,483.59,288.56,482.67 C288.24,481.98,288.19,481.21,288.19,480.41 C288.19,479.67,288.23,478.77,288.64,478.02 C289.07,477.21,289.8,477.02,290.28,477.02 V477.23 C289.89,477.23,289.31,477.48,289.13,478.44 C289.02,479.03,289.02,479.95,289.02,480.53 C289.02,481.17,289.02,481.82,289.1,482.36 C289.29,483.54,290.03,483.63,290.28,483.63 C290.61,483.63,291.27,483.45,291.46,482.47 C291.56,481.91,291.56,481.16,291.56,480.53 C291.56,479.79,291.56,479.11,291.45,478.48 C291.3,477.53,290.73,477.23,290.28,477.23 H290.28 V477.02 C290.82,477.02,291.58,477.23,292.02,478.17 C292.34,478.85,292.39,479.63,292.39,480.41 Z "
   stroke-width="0"
   fill="black"
   id="path1052" />
</g>  </g>
  <g
     transform="translate(10,-5.000031718688)"
     inkscape:label="annotation"
     id="g1098"
     inkscape:export-xdpi="880.706237793"
     inkscape:export-ydpi="880.706237793">
    <path
       sodipodi:nodetypes="ccc"
       inkscape:connector-curvature="0"
       d="m 345,447.519685039 15,-10 h 81"
       style="fill:none;stroke:#ff0000;stroke-width:0.8000000119;stroke-linecap:round;stroke-linejoin:round;stroke-dasharray:none;marker-start:url(#AnnArrow_Start)"
       inkscape:label="dim"
       id="path1056" />
    <g
       style="font-style:normal;font-variant:normal;font-weight:normal;font-stretch:normal;letter-spacing:normal;word-spacing:normal;text-anchor:start;fill:none;fill-opacity:1;fill-rule:evenodd;stroke:#000000;stroke-linecap:butt;stroke-linejoin:miter;stroke-miterlimit:10.4329996109;stroke-dasharray:none;stroke-dashoffset:0;stroke-opacity:1"
       ns0:preamble="/home/fernando/.config/inkscape/extensions/textextLib/basicLatexPackages.tex"
       ns0:text=" This scale is 2.0"
       text-anchor="start"
       word-spacing="normal"
       letter-spacing="normal"
       font-size-adjust="none"
       font-stretch="normal"
       font-weight="normal"
       font-variant="normal"
       font-style="normal"
       fill-opacity="1"
       fill-rule="evenodd"
       fill="none"
       stroke-opacity="1"
       stroke-dashoffset="0"
       stroke-dasharray="none"
       stroke-miterlimit="10.433"
       stroke-linejoin="miter"
       stroke-linecap="butt"
       stroke="black"
       xml:space="preserve"
       transform="matrix(1.183432,0,0,-1.183432,95.159753,999.373751)"
       id="g1245">
<path
   id="path1213"
   fill="black"
   stroke-width="0"
   d="M230.07,483.96 H223.98 L223.79,481.73 H224.04 C224.18,483.32,224.33,483.65,225.84,483.65 C226.01,483.65,226.27,483.65,226.37,483.63 C226.58,483.59,226.58,483.48,226.58,483.26 V478.02 C226.58,477.68,226.58,477.54,225.54,477.54 H225.14 V477.23 C225.55,477.27,226.56,477.27,227.02,477.27 C227.48,477.27,228.51,477.27,228.92,477.23 V477.54 H228.52 C227.47,477.54,227.47,477.68,227.47,478.02 V483.26 C227.47,483.45,227.47,483.59,227.65,483.63 C227.76,483.65,228.03,483.65,228.22,483.65 C229.72,483.65,229.87,483.32,230.01,481.73 H230.26 Z " />
<path
   id="path1215"
   fill="black"
   stroke-width="0"
   d="M231.72,477.99 L231.72,477.97 L231.72,477.95 L231.72,477.91 L231.72,477.88 L231.72,477.84 L231.71,477.81 L231.71,477.78 L231.7,477.76 L231.7,477.73 L231.69,477.71 L231.68,477.69 L231.67,477.67 L231.65,477.65 L231.64,477.64 L231.62,477.62 L231.61,477.61 L231.59,477.6 L231.56,477.59 L231.54,477.58 L231.51,477.57 L231.49,477.57 L231.46,477.56 L231.42,477.56 L231.39,477.55 L231.37,477.55 L231.35,477.55 L231.33,477.55 L231.31,477.55 L231.29,477.55 L231.27,477.55 L231.24,477.55 L231.22,477.54 L231.2,477.54 L231.17,477.54 L231.15,477.54 L231.12,477.54 L231.09,477.54 L231.06,477.54 L231.04,477.54 L231.01,477.54 L230.98,477.54 L230.95,477.54 V477.23 C231.29,477.24,231.8,477.27,232.07,477.27 C232.33,477.27,232.85,477.24,233.19,477.23 V477.54 C232.52,477.54,232.41,477.54,232.41,477.99 V479.82 C232.41,480.85,233.12,481.41,233.76,481.41 C234.39,481.41,234.5,480.87,234.5,480.3 V477.99 C234.5,477.54,234.39,477.54,233.72,477.54 V477.23 C234.07,477.24,234.58,477.27,234.85,477.27 C235.1,477.27,235.62,477.24,235.96,477.23 V477.54 C235.44,477.54,235.19,477.54,235.18,477.84 V479.74 C235.18,480.59,235.18,480.9,234.88,481.26 C234.74,481.43,234.41,481.63,233.83,481.63 C232.99,481.63,232.55,481.03,232.38,480.65 V484.13 L230.95,484.02 V483.71 C231.64,483.71,231.72,483.64,231.72,483.16 Z " />
<path
   id="path1217"
   fill="black"
   stroke-width="0"
   d="M237.93,481.63 L236.53,481.52 V481.21 C237.18,481.21,237.27,481.15,237.27,480.66 V477.99 C237.27,477.54,237.16,477.54,236.49,477.54 V477.23 C236.81,477.24,237.35,477.27,237.59,477.27 C237.94,477.27,238.29,477.24,238.62,477.23 V477.54 C237.97,477.54,237.93,477.59,237.93,477.98 Z " />
<path
   id="path1219"
   fill="black"
   stroke-width="0"
   d="M237.97,483.35 L237.97,483.38 L237.96,483.41 L237.96,483.44 L237.96,483.47 L237.95,483.49 L237.94,483.52 L237.93,483.55 L237.92,483.57 L237.91,483.59 L237.9,483.62 L237.89,483.64 L237.87,483.66 L237.86,483.68 L237.84,483.7 L237.83,483.72 L237.81,483.74 L237.79,483.75 L237.77,483.77 L237.75,483.78 L237.73,483.8 L237.71,483.81 L237.69,483.82 L237.66,483.83 L237.64,483.84 L237.62,483.85 L237.59,483.86 L237.57,483.87 L237.54,483.87 L237.52,483.88 L237.49,483.88 L237.47,483.88 L237.44,483.88 C237.13,483.88,236.91,483.61,236.91,483.35 C236.91,483.09,237.13,482.83,237.44,482.83 C237.72,482.83,237.97,483.04,237.97,483.35 Z " />
<path
   id="path1221"
   fill="black"
   stroke-width="0"
   d="M241,479.16 L241.03,479.16 L241.05,479.15 L241.08,479.15 L241.11,479.14 L241.15,479.13 L241.18,479.12 L241.22,479.11 L241.26,479.1 L241.3,479.09 L241.34,479.08 L241.38,479.06 L241.43,479.04 L241.47,479.03 L241.52,479 L241.56,478.98 L241.6,478.96 L241.65,478.93 L241.69,478.9 L241.73,478.87 L241.77,478.84 L241.81,478.81 L241.84,478.77 L241.88,478.73 L241.91,478.69 L241.94,478.64 L241.95,478.62 L241.96,478.59 L241.98,478.57 L241.99,478.54 L242,478.52 L242.01,478.49 L242.01,478.46 L242.02,478.44 L242.03,478.41 L242.03,478.38 L242.04,478.35 L242.04,478.31 L242.04,478.28 L242.04,478.25 C242.04,477.74,241.69,477.34,240.91,477.34 C240.08,477.34,239.72,477.91,239.53,478.76 C239.5,478.88,239.49,478.92,239.39,478.92 C239.26,478.92,239.26,478.85,239.26,478.67 V477.36 C239.26,477.2,239.26,477.13,239.37,477.13 C239.42,477.13,239.43,477.14,239.62,477.32 C239.64,477.34,239.64,477.36,239.82,477.55 C240.26,477.14,240.71,477.13,240.91,477.13 C242.06,477.13,242.52,477.79,242.52,478.51 C242.52,479.03,242.22,479.33,242.1,479.45 C241.77,479.77,241.38,479.85,240.96,479.93 C240.41,480.04,239.74,480.17,239.74,480.74 C239.74,481.09,240,481.5,240.85,481.5 C241.95,481.5,242,480.6,242.02,480.3 C242.03,480.2,242.12,480.2,242.14,480.2 C242.27,480.2,242.27,480.26,242.27,480.44 V481.45 C242.27,481.62,242.27,481.68,242.16,481.68 C242.11,481.68,242.09,481.68,241.96,481.57 C241.93,481.53,241.83,481.44,241.79,481.41 C241.41,481.68,241,481.68,240.85,481.68 C239.64,481.68,239.26,481.02,239.26,480.46 C239.26,480.12,239.42,479.84,239.69,479.62 C240.01,479.36,240.29,479.3,241,479.16 Z " />
<path
   id="path1223"
   fill="black"
   stroke-width="0"
   d="M248.25,479.16 L248.27,479.16 L248.3,479.15 L248.33,479.15 L248.36,479.14 L248.39,479.13 L248.43,479.12 L248.47,479.11 L248.51,479.1 L248.55,479.09 L248.59,479.08 L248.63,479.06 L248.68,479.04 L248.72,479.03 L248.76,479 L248.81,478.98 L248.85,478.96 L248.89,478.93 L248.94,478.9 L248.98,478.87 L249.02,478.84 L249.06,478.81 L249.09,478.77 L249.13,478.73 L249.16,478.69 L249.19,478.64 L249.2,478.62 L249.21,478.59 L249.22,478.57 L249.23,478.54 L249.24,478.52 L249.25,478.49 L249.26,478.46 L249.27,478.44 L249.27,478.41 L249.28,478.38 L249.28,478.35 L249.29,478.31 L249.29,478.28 L249.29,478.25 C249.29,477.74,248.94,477.34,248.16,477.34 C247.32,477.34,246.96,477.91,246.77,478.76 C246.74,478.88,246.74,478.92,246.63,478.92 C246.51,478.92,246.51,478.85,246.51,478.67 V477.36 C246.51,477.2,246.51,477.13,246.62,477.13 C246.66,477.13,246.68,477.14,246.87,477.32 C246.88,477.34,246.88,477.36,247.06,477.55 C247.5,477.14,247.95,477.13,248.16,477.13 C249.31,477.13,249.77,477.79,249.77,478.51 C249.77,479.03,249.47,479.33,249.35,479.45 C249.02,479.77,248.63,479.85,248.21,479.93 C247.65,480.04,246.98,480.17,246.98,480.74 C246.98,481.09,247.24,481.5,248.1,481.5 C249.2,481.5,249.25,480.6,249.27,480.3 C249.28,480.2,249.37,480.2,249.39,480.2 C249.52,480.2,249.52,480.26,249.52,480.44 V481.45 C249.52,481.62,249.52,481.68,249.41,481.68 C249.36,481.68,249.34,481.68,249.21,481.57 C249.18,481.53,249.08,481.44,249.04,481.41 C248.66,481.68,248.25,481.68,248.1,481.68 C246.88,481.68,246.51,481.02,246.51,480.46 C246.51,480.12,246.66,479.84,246.93,479.62 C247.25,479.36,247.53,479.3,248.25,479.16 Z " />
<path
   id="path1225"
   fill="black"
   stroke-width="0"
   d="M251.27,479.4 L251.27,479.48 L251.28,479.55 L251.28,479.62 L251.28,479.69 L251.29,479.76 L251.29,479.83 L251.3,479.89 L251.31,479.95 L251.32,480.01 L251.33,480.07 L251.34,480.13 L251.35,480.19 L251.38,480.3 L251.41,480.4 L251.44,480.5 L251.48,480.59 L251.52,480.68 L251.56,480.76 L251.6,480.83 L251.65,480.9 L251.7,480.97 L251.75,481.03 L251.8,481.08 L251.85,481.13 L251.91,481.18 L251.96,481.22 L252.02,481.26 L252.07,481.29 L252.13,481.32 L252.19,481.35 L252.24,481.37 L252.3,481.39 L252.35,481.4 L252.41,481.42 L252.46,481.43 L252.52,481.43 L252.57,481.44 L252.62,481.44 C252.71,481.44,253.34,481.43,253.69,481.07 C253.28,481.04,253.22,480.74,253.22,480.61 C253.22,480.35,253.4,480.16,253.68,480.16 C253.93,480.16,254.13,480.32,254.13,480.62 C254.13,481.3,253.38,481.68,252.61,481.68 C251.36,481.68,250.45,480.61,250.45,479.38 C250.45,478.11,251.43,477.13,252.59,477.13 C253.93,477.13,254.24,478.32,254.24,478.42 C254.24,478.52,254.14,478.52,254.12,478.52 C254.02,478.52,254.01,478.48,253.99,478.42 C253.7,477.49,253.05,477.37,252.68,477.37 C252.15,477.37,251.27,477.8,251.27,479.4 Z " />
<path
   id="path1227"
   fill="black"
   stroke-width="0"
   d="M257.85,477.99 L257.86,477.95 L257.86,477.92 L257.87,477.88 L257.88,477.84 L257.89,477.8 L257.9,477.77 L257.91,477.73 L257.93,477.7 L257.94,477.66 L257.96,477.63 L257.98,477.59 L257.99,477.56 L258.01,477.53 L258.04,477.49 L258.06,477.46 L258.08,477.43 L258.11,477.41 L258.13,477.38 L258.16,477.35 L258.19,477.33 L258.22,477.31 L258.25,477.28 L258.28,477.26 L258.32,477.25 L258.35,477.23 L258.39,477.22 L258.43,477.2 L258.47,477.19 L258.51,477.19 L258.55,477.18 L258.59,477.18 L258.63,477.17 C258.84,477.17,259.45,477.31,259.45,478.12 V478.67 H259.2 V478.12 C259.2,477.54,258.95,477.48,258.84,477.48 C258.51,477.48,258.47,477.93,258.47,477.98 V479.97 C258.47,480.38,258.47,480.77,258.11,481.14 C257.72,481.53,257.23,481.68,256.75,481.68 C255.93,481.68,255.24,481.22,255.24,480.56 C255.24,480.27,255.44,480.1,255.7,480.1 C255.98,480.1,256.16,480.3,256.16,480.55 C256.16,480.67,256.11,481,255.65,481.01 C255.92,481.36,256.41,481.47,256.73,481.47 C257.22,481.47,257.78,481.08,257.78,480.2 V479.83 V479.62 V478.63 C257.78,477.68,257.07,477.34,256.62,477.34 C256.13,477.34,255.72,477.69,255.72,478.19 C255.72,478.73,256.14,479.56,257.78,479.62 H257.78 V479.83 C257.27,479.8,256.58,479.77,255.95,479.47 C255.2,479.13,254.95,478.62,254.95,478.18 C254.95,477.37,255.92,477.13,256.55,477.13 C257.21,477.13,257.66,477.52,257.85,477.99 Z " />
<path
   id="path1229"
   fill="black"
   stroke-width="0"
   d="M261.28,484.13 L259.84,484.02 V483.71 C260.54,483.71,260.62,483.64,260.62,483.16 V477.99 C260.62,477.54,260.51,477.54,259.84,477.54 V477.23 C260.17,477.24,260.7,477.27,260.95,477.27 C261.2,477.27,261.69,477.24,262.06,477.23 V477.54 C261.39,477.54,261.28,477.54,261.28,477.99 Z " />
<path
   id="path1231"
   fill="black"
   stroke-width="0"
   d="M263.39,479.53 L263.4,479.74 C263.46,481.22,264.3,481.47,264.64,481.47 C265.66,481.47,265.76,480.13,265.76,479.74 H263.4 L263.39,479.53 H266.17 C266.39,479.53,266.42,479.53,266.42,479.74 C266.42,480.72,265.88,481.68,264.64,481.68 C263.48,481.68,262.56,480.66,262.56,479.42 C262.56,478.09,263.61,477.13,264.76,477.13 C265.97,477.13,266.42,478.23,266.42,478.42 C266.42,478.52,266.34,478.54,266.29,478.54 C266.2,478.54,266.18,478.48,266.16,478.4 C265.81,477.37,264.92,477.37,264.82,477.37 C264.32,477.37,263.92,477.67,263.69,478.04 C263.39,478.52,263.39,479.17,263.39,479.53 Z " />
<path
   id="path1233"
   fill="black"
   stroke-width="0"
   d="M271.8,481.63 L270.41,481.52 V481.21 C271.05,481.21,271.14,481.15,271.14,480.66 V477.99 C271.14,477.54,271.03,477.54,270.37,477.54 V477.23 C270.68,477.24,271.22,477.27,271.46,477.27 C271.81,477.27,272.16,477.24,272.5,477.23 V477.54 C271.84,477.54,271.8,477.59,271.8,477.98 Z " />
<path
   id="path1235"
   fill="black"
   stroke-width="0"
   d="M271.84,483.35 L271.84,483.38 L271.84,483.41 L271.84,483.44 L271.83,483.47 L271.82,483.49 L271.82,483.52 L271.81,483.55 L271.8,483.57 L271.79,483.59 L271.78,483.62 L271.76,483.64 L271.75,483.66 L271.73,483.68 L271.72,483.7 L271.7,483.72 L271.68,483.74 L271.66,483.75 L271.64,483.77 L271.62,483.78 L271.6,483.8 L271.58,483.81 L271.56,483.82 L271.54,483.83 L271.51,483.84 L271.49,483.85 L271.47,483.86 L271.44,483.87 L271.42,483.87 L271.39,483.88 L271.37,483.88 L271.34,483.88 L271.31,483.88 C271,483.88,270.79,483.61,270.79,483.35 C270.79,483.09,271,482.83,271.31,482.83 C271.59,482.83,271.84,483.04,271.84,483.35 Z " />
<path
   id="path1237"
   fill="black"
   stroke-width="0"
   d="M274.88,479.16 L274.9,479.16 L274.93,479.15 L274.96,479.15 L274.99,479.14 L275.02,479.13 L275.06,479.12 L275.09,479.11 L275.13,479.1 L275.17,479.09 L275.22,479.08 L275.26,479.06 L275.3,479.04 L275.35,479.03 L275.39,479 L275.44,478.98 L275.48,478.96 L275.52,478.93 L275.56,478.9 L275.61,478.87 L275.65,478.84 L275.68,478.81 L275.72,478.77 L275.75,478.73 L275.78,478.69 L275.81,478.64 L275.83,478.62 L275.84,478.59 L275.85,478.57 L275.86,478.54 L275.87,478.52 L275.88,478.49 L275.89,478.46 L275.9,478.44 L275.9,478.41 L275.91,478.38 L275.91,478.35 L275.91,478.31 L275.92,478.28 L275.92,478.25 C275.92,477.74,275.57,477.34,274.79,477.34 C273.95,477.34,273.59,477.91,273.4,478.76 C273.37,478.88,273.36,478.92,273.26,478.92 C273.13,478.92,273.13,478.85,273.13,478.67 V477.36 C273.13,477.2,273.13,477.13,273.24,477.13 C273.29,477.13,273.3,477.14,273.49,477.32 C273.51,477.34,273.51,477.36,273.69,477.55 C274.13,477.14,274.58,477.13,274.79,477.13 C275.94,477.13,276.39,477.79,276.39,478.51 C276.39,479.03,276.1,479.33,275.98,479.45 C275.65,479.77,275.26,479.85,274.84,479.93 C274.28,480.04,273.61,480.17,273.61,480.74 C273.61,481.09,273.87,481.5,274.73,481.5 C275.83,481.5,275.88,480.6,275.9,480.3 C275.91,480.2,276,480.2,276.02,480.2 C276.14,480.2,276.14,480.26,276.14,480.44 V481.45 C276.14,481.62,276.14,481.68,276.04,481.68 C275.99,481.68,275.97,481.68,275.84,481.57 C275.81,481.53,275.71,481.44,275.67,481.41 C275.29,481.68,274.88,481.68,274.73,481.68 C273.51,481.68,273.13,481.02,273.13,480.46 C273.13,480.12,273.29,479.84,273.56,479.62 C273.88,479.36,274.16,479.3,274.88,479.16 Z " />
<path
   id="path1239"
   fill="black"
   stroke-width="0"
   d="M281.32,478 L282.38,479.02 C283.93,480.39,284.53,480.93,284.53,481.92 C284.53,483.06,283.63,483.85,282.42,483.85 C281.29,483.85,280.55,482.94,280.55,482.05 C280.55,481.5,281.05,481.5,281.08,481.5 C281.25,481.5,281.6,481.62,281.6,482.02 C281.6,482.28,281.42,482.54,281.07,482.54 C280.99,482.54,280.97,482.54,280.94,482.53 C281.17,483.17,281.71,483.54,282.29,483.54 C283.19,483.54,283.62,482.74,283.62,481.92 C283.62,481.13,283.12,480.34,282.57,479.73 L280.66,477.6 C280.55,477.49,280.55,477.47,280.55,477.23 H284.25 L284.53,478.96 H284.28 C284.23,478.67,284.16,478.23,284.06,478.08 C283.99,478,283.33,478,283.11,478 Z " />
<path
   id="path1241"
   fill="black"
   stroke-width="0"
   d="M286.95,477.76 L286.95,477.79 L286.94,477.82 L286.94,477.84 L286.94,477.87 L286.93,477.89 L286.92,477.92 L286.91,477.94 L286.91,477.97 L286.89,477.99 L286.88,478.01 L286.87,478.03 L286.86,478.05 L286.84,478.08 L286.83,478.1 L286.81,478.11 L286.79,478.13 L286.77,478.15 L286.75,478.17 L286.73,478.18 L286.71,478.2 L286.69,478.21 L286.67,478.22 L286.65,478.24 L286.62,478.25 L286.6,478.26 L286.58,478.26 L286.55,478.27 L286.52,478.28 L286.5,478.28 L286.47,478.29 L286.45,478.29 L286.42,478.29 C286.13,478.29,285.89,478.05,285.89,477.76 C285.89,477.47,286.13,477.23,286.42,477.23 C286.71,477.23,286.95,477.47,286.95,477.76 Z " />
<path
   id="path1243"
   fill="black"
   stroke-width="0"
   d="M292.39,480.41 L292.39,480.56 L292.38,480.71 L292.38,480.86 L292.37,481.01 L292.36,481.16 L292.35,481.3 L292.34,481.45 L292.32,481.6 L292.3,481.74 L292.27,481.89 L292.24,482.03 L292.2,482.18 L292.15,482.32 L292.11,482.46 L292.05,482.6 L292.02,482.67 L291.99,482.74 C291.53,483.69,290.71,483.85,290.29,483.85 C289.7,483.85,288.97,483.59,288.56,482.67 C288.24,481.98,288.19,481.21,288.19,480.41 C288.19,479.67,288.23,478.77,288.64,478.02 C289.07,477.21,289.8,477.02,290.28,477.02 V477.23 C289.89,477.23,289.31,477.48,289.13,478.44 C289.02,479.03,289.02,479.95,289.02,480.53 C289.02,481.17,289.02,481.82,289.1,482.36 C289.29,483.54,290.03,483.63,290.28,483.63 C290.61,483.63,291.27,483.45,291.46,482.47 C291.56,481.91,291.56,481.16,291.56,480.53 C291.56,479.79,291.56,479.11,291.45,478.48 C291.3,477.53,290.73,477.23,290.28,477.23 H290.28 V477.02 C290.82,477.02,291.58,477.23,292.02,478.17 C292.34,478.85,292.39,479.63,292.39,480.41 Z " />
</g>  </g>
  <g
     inkscape:label="annotation"
     id="g8493"
     inkscape:export-xdpi="880.706237793"
     inkscape:export-ydpi="880.706237793" />
</svg>
